<?xml version="1.0" encoding="utf-8"?>
<!DOCTYPE svg
  PUBLIC '-//W3C//DTD SVG 1.0//EN'
  'http://www.w3.org/TR/2001/REC-SVG-20010904/DTD/svg10.dtd'>
<svg fill-rule="evenodd" height="400" preserveAspectRatio="xMinYMin meet" version="1.0" viewBox="0 0 600 400" width="600" xmlns="http://www.w3.org/2000/svg" xmlns:xlink="http://www.w3.org/1999/xlink">
	<title>...</title>
	<desc>...</desc>
	<clipPath id="clip">
		<rect height="400" width="600" x="0" y="0"/>
	</clipPath>
	<g id="group" style="clip-path: url(#clip)" transform="scale(1,-1) translate(0,-400)">
		<g transform="">
			<path d="M 39.818182,260.608571 L 39.818182,260.608571 Z" style="stroke: rgb(93%,50%,93%); stroke-linecap: butt; stroke-width: 1;"/>
			<path d="M 39.818182,260.608571 L 49.636364,250.58 Z" style="stroke: rgb(93%,50%,93%); stroke-linecap: butt; stroke-width: 1;"/>
			<path d="M 49.636364,250.58 L 59.454545,258.602857 Z" style="stroke: rgb(93%,50%,93%); stroke-linecap: butt; stroke-width: 1;"/>
			<path d="M 59.454545,258.602857 L 69.272727,262.614286 Z" style="stroke: rgb(93%,50%,93%); stroke-linecap: butt; stroke-width: 1;"/>
			<path d="M 69.272727,262.614286 L 79.090909,260.608571 Z" style="stroke: rgb(93%,50%,93%); stroke-linecap: butt; stroke-width: 1;"/>
			<path d="M 79.090909,260.608571 L 88.909091,254.591429 Z" style="stroke: rgb(93%,50%,93%); stroke-linecap: butt; stroke-width: 1;"/>
			<path d="M 88.909091,254.591429 L 98.727273,250.58 Z" style="stroke: rgb(93%,50%,93%); stroke-linecap: butt; stroke-width: 1;"/>
			<path d="M 98.727273,250.58 L 108.545455,262.614286 Z" style="stroke: rgb(93%,50%,93%); stroke-linecap: butt; stroke-width: 1;"/>
			<path d="M 108.545455,262.614286 L 118.363636,272.642857 Z" style="stroke: rgb(93%,50%,93%); stroke-linecap: butt; stroke-width: 1;"/>
			<path d="M 118.363636,272.642857 L 128.181818,274.648571 Z" style="stroke: rgb(93%,50%,93%); stroke-linecap: butt; stroke-width: 1;"/>
			<path d="M 128.181818,274.648571 L 138,278.66 Z" style="stroke: rgb(93%,50%,93%); stroke-linecap: butt; stroke-width: 1;"/>
			<path d="M 138,278.66 L 147.818182,276.654286 Z" style="stroke: rgb(93%,50%,93%); stroke-linecap: butt; stroke-width: 1;"/>
			<path d="M 147.818182,276.654286 L 157.636364,268.631429 Z" style="stroke: rgb(93%,50%,93%); stroke-linecap: butt; stroke-width: 1;"/>
			<path d="M 157.636364,268.631429 L 167.454545,254.591429 Z" style="stroke: rgb(93%,50%,93%); stroke-linecap: butt; stroke-width: 1;"/>
			<path d="M 167.454545,254.591429 L 177.272727,246.568571 Z" style="stroke: rgb(93%,50%,93%); stroke-linecap: butt; stroke-width: 1;"/>
			<path d="M 177.272727,246.568571 L 187.090909,250.58 Z" style="stroke: rgb(93%,50%,93%); stroke-linecap: butt; stroke-width: 1;"/>
			<path d="M 187.090909,250.58 L 196.909091,248.574286 Z" style="stroke: rgb(93%,50%,93%); stroke-linecap: butt; stroke-width: 1;"/>
			<path d="M 196.909091,248.574286 L 206.727273,246.568571 Z" style="stroke: rgb(93%,50%,93%); stroke-linecap: butt; stroke-width: 1;"/>
			<path d="M 206.727273,246.568571 L 216.545455,252.585714 Z" style="stroke: rgb(93%,50%,93%); stroke-linecap: butt; stroke-width: 1;"/>
			<path d="M 216.545455,252.585714 L 226.363636,254.591429 Z" style="stroke: rgb(93%,50%,93%); stroke-linecap: butt; stroke-width: 1;"/>
			<path d="M 226.363636,254.591429 L 236.181818,260.608571 Z" style="stroke: rgb(93%,50%,93%); stroke-linecap: butt; stroke-width: 1;"/>
			<path d="M 236.181818,260.608571 L 246,264.62 Z" style="stroke: rgb(93%,50%,93%); stroke-linecap: butt; stroke-width: 1;"/>
			<path d="M 246,264.62 L 255.818182,268.631429 Z" style="stroke: rgb(93%,50%,93%); stroke-linecap: butt; stroke-width: 1;"/>
			<path d="M 255.818182,268.631429 L 265.636364,262.614286 Z" style="stroke: rgb(93%,50%,93%); stroke-linecap: butt; stroke-width: 1;"/>
			<path d="M 265.636364,262.614286 L 275.454545,252.585714 Z" style="stroke: rgb(93%,50%,93%); stroke-linecap: butt; stroke-width: 1;"/>
			<path d="M 275.454545,252.585714 L 285.272727,254.591429 Z" style="stroke: rgb(93%,50%,93%); stroke-linecap: butt; stroke-width: 1;"/>
			<path d="M 285.272727,254.591429 L 295.090909,256.597143 Z" style="stroke: rgb(93%,50%,93%); stroke-linecap: butt; stroke-width: 1;"/>
			<path d="M 295.090909,256.597143 L 304.909091,252.585714 Z" style="stroke: rgb(93%,50%,93%); stroke-linecap: butt; stroke-width: 1;"/>
			<path d="M 304.909091,252.585714 L 314.727273,244.562857 Z" style="stroke: rgb(93%,50%,93%); stroke-linecap: butt; stroke-width: 1;"/>
			<path d="M 314.727273,244.562857 L 324.545455,244.562857 Z" style="stroke: rgb(93%,50%,93%); stroke-linecap: butt; stroke-width: 1;"/>
			<path d="M 324.545455,244.562857 L 334.363636,248.574286 Z" style="stroke: rgb(93%,50%,93%); stroke-linecap: butt; stroke-width: 1;"/>
			<path d="M 334.363636,248.574286 L 344.181818,252.585714 Z" style="stroke: rgb(93%,50%,93%); stroke-linecap: butt; stroke-width: 1;"/>
			<path d="M 344.181818,252.585714 L 354,254.591429 Z" style="stroke: rgb(93%,50%,93%); stroke-linecap: butt; stroke-width: 1;"/>
			<path d="M 354,254.591429 L 363.818182,252.585714 Z" style="stroke: rgb(93%,50%,93%); stroke-linecap: butt; stroke-width: 1;"/>
			<path d="M 363.818182,252.585714 L 373.636364,244.562857 Z" style="stroke: rgb(93%,50%,93%); stroke-linecap: butt; stroke-width: 1;"/>
			<path d="M 373.636364,244.562857 L 383.454545,244.562857 Z" style="stroke: rgb(93%,50%,93%); stroke-linecap: butt; stroke-width: 1;"/>
			<path d="M 383.454545,244.562857 L 393.272727,248.574286 Z" style="stroke: rgb(93%,50%,93%); stroke-linecap: butt; stroke-width: 1;"/>
			<path d="M 393.272727,248.574286 L 403.090909,252.585714 Z" style="stroke: rgb(93%,50%,93%); stroke-linecap: butt; stroke-width: 1;"/>
			<path d="M 403.090909,252.585714 L 412.909091,264.62 Z" style="stroke: rgb(93%,50%,93%); stroke-linecap: butt; stroke-width: 1;"/>
			<path d="M 412.909091,264.62 L 422.727273,266.625714 Z" style="stroke: rgb(93%,50%,93%); stroke-linecap: butt; stroke-width: 1;"/>
			<path d="M 422.727273,266.625714 L 432.545455,256.597143 Z" style="stroke: rgb(93%,50%,93%); stroke-linecap: butt; stroke-width: 1;"/>
			<path d="M 432.545455,256.597143 L 442.363636,256.597143 Z" style="stroke: rgb(93%,50%,93%); stroke-linecap: butt; stroke-width: 1;"/>
			<path d="M 442.363636,256.597143 L 452.181818,262.614286 Z" style="stroke: rgb(93%,50%,93%); stroke-linecap: butt; stroke-width: 1;"/>
			<path d="M 452.181818,262.614286 L 462,252.585714 Z" style="stroke: rgb(93%,50%,93%); stroke-linecap: butt; stroke-width: 1;"/>
			<path d="M 462,252.585714 L 471.818182,248.574286 Z" style="stroke: rgb(93%,50%,93%); stroke-linecap: butt; stroke-width: 1;"/>
			<path d="M 471.818182,248.574286 L 481.636364,256.597143 Z" style="stroke: rgb(93%,50%,93%); stroke-linecap: butt; stroke-width: 1;"/>
			<path d="M 481.636364,256.597143 L 491.454545,256.597143 Z" style="stroke: rgb(93%,50%,93%); stroke-linecap: butt; stroke-width: 1;"/>
			<path d="M 491.454545,256.597143 L 501.272727,244.562857 Z" style="stroke: rgb(93%,50%,93%); stroke-linecap: butt; stroke-width: 1;"/>
			<path d="M 501.272727,244.562857 L 511.090909,240.551429 Z" style="stroke: rgb(93%,50%,93%); stroke-linecap: butt; stroke-width: 1;"/>
			<path d="M 511.090909,240.551429 L 520.909091,244.562857 Z" style="stroke: rgb(93%,50%,93%); stroke-linecap: butt; stroke-width: 1;"/>
			<path d="M 520.909091,244.562857 L 530.727273,248.574286 Z" style="stroke: rgb(93%,50%,93%); stroke-linecap: butt; stroke-width: 1;"/>
			<path d="M 530.727273,248.574286 L 540.545455,260.608571 Z" style="stroke: rgb(93%,50%,93%); stroke-linecap: butt; stroke-width: 1;"/>
			<path d="M 540.545455,260.608571 L 550.363636,272.642857 Z" style="stroke: rgb(93%,50%,93%); stroke-linecap: butt; stroke-width: 1;"/>
			<path d="M 550.363636,272.642857 L 560.181818,274.648571 Z" style="stroke: rgb(93%,50%,93%); stroke-linecap: butt; stroke-width: 1;"/>
			<path d="M 560.181818,274.648571 L 570,262.614286 Z" style="stroke: rgb(93%,50%,93%); stroke-linecap: butt; stroke-width: 1;"/>
			<path d="M 30,82.614286 L 30,82.614286 Z" style="stroke: rgb(93%,50%,93%); stroke-linecap: butt; stroke-width: 1;"/>
			<path d="M 30,82.614286 L 39.818182,78.602857 Z" style="stroke: rgb(93%,50%,93%); stroke-linecap: butt; stroke-width: 1;"/>
			<path d="M 39.818182,78.602857 L 49.636364,74.591429 Z" style="stroke: rgb(93%,50%,93%); stroke-linecap: butt; stroke-width: 1;"/>
			<path d="M 49.636364,74.591429 L 59.454545,76.597143 Z" style="stroke: rgb(93%,50%,93%); stroke-linecap: butt; stroke-width: 1;"/>
			<path d="M 59.454545,76.597143 L 69.272727,78.602857 Z" style="stroke: rgb(93%,50%,93%); stroke-linecap: butt; stroke-width: 1;"/>
			<path d="M 69.272727,78.602857 L 79.090909,76.597143 Z" style="stroke: rgb(93%,50%,93%); stroke-linecap: butt; stroke-width: 1;"/>
			<path d="M 79.090909,76.597143 L 88.909091,78.602857 Z" style="stroke: rgb(93%,50%,93%); stroke-linecap: butt; stroke-width: 1;"/>
			<path d="M 88.909091,78.602857 L 98.727273,70.58 Z" style="stroke: rgb(93%,50%,93%); stroke-linecap: butt; stroke-width: 1;"/>
			<path d="M 98.727273,70.58 L 108.545455,66.568571 Z" style="stroke: rgb(93%,50%,93%); stroke-linecap: butt; stroke-width: 1;"/>
			<path d="M 108.545455,66.568571 L 118.363636,60.551429 Z" style="stroke: rgb(93%,50%,93%); stroke-linecap: butt; stroke-width: 1;"/>
			<path d="M 118.363636,60.551429 L 128.181818,70.58 Z" style="stroke: rgb(93%,50%,93%); stroke-linecap: butt; stroke-width: 1;"/>
			<path d="M 128.181818,70.58 L 138,80.608571 Z" style="stroke: rgb(93%,50%,93%); stroke-linecap: butt; stroke-width: 1;"/>
			<path d="M 138,80.608571 L 147.818182,76.597143 Z" style="stroke: rgb(93%,50%,93%); stroke-linecap: butt; stroke-width: 1;"/>
			<path d="M 147.818182,76.597143 L 157.636364,76.597143 Z" style="stroke: rgb(93%,50%,93%); stroke-linecap: butt; stroke-width: 1;"/>
			<path d="M 157.636364,76.597143 L 167.454545,76.597143 Z" style="stroke: rgb(93%,50%,93%); stroke-linecap: butt; stroke-width: 1;"/>
			<path d="M 167.454545,76.597143 L 177.272727,78.602857 Z" style="stroke: rgb(93%,50%,93%); stroke-linecap: butt; stroke-width: 1;"/>
			<path d="M 177.272727,78.602857 L 187.090909,80.608571 Z" style="stroke: rgb(93%,50%,93%); stroke-linecap: butt; stroke-width: 1;"/>
			<path d="M 187.090909,80.608571 L 196.909091,70.58 Z" style="stroke: rgb(93%,50%,93%); stroke-linecap: butt; stroke-width: 1;"/>
			<path d="M 196.909091,70.58 L 206.727273,60.551429 Z" style="stroke: rgb(93%,50%,93%); stroke-linecap: butt; stroke-width: 1;"/>
			<path d="M 206.727273,60.551429 L 216.545455,66.568571 Z" style="stroke: rgb(93%,50%,93%); stroke-linecap: butt; stroke-width: 1;"/>
			<path d="M 216.545455,66.568571 L 226.363636,68.574286 Z" style="stroke: rgb(93%,50%,93%); stroke-linecap: butt; stroke-width: 1;"/>
			<path d="M 226.363636,68.574286 L 236.181818,68.574286 Z" style="stroke: rgb(93%,50%,93%); stroke-linecap: butt; stroke-width: 1;"/>
			<path d="M 236.181818,68.574286 L 246,72.585714 Z" style="stroke: rgb(93%,50%,93%); stroke-linecap: butt; stroke-width: 1;"/>
			<path d="M 246,72.585714 L 255.818182,76.597143 Z" style="stroke: rgb(93%,50%,93%); stroke-linecap: butt; stroke-width: 1;"/>
			<path d="M 255.818182,76.597143 L 265.636364,82.614286 Z" style="stroke: rgb(93%,50%,93%); stroke-linecap: butt; stroke-width: 1;"/>
			<path d="M 265.636364,82.614286 L 275.454545,84.62 Z" style="stroke: rgb(93%,50%,93%); stroke-linecap: butt; stroke-width: 1;"/>
			<path d="M 275.454545,84.62 L 285.272727,72.585714 Z" style="stroke: rgb(93%,50%,93%); stroke-linecap: butt; stroke-width: 1;"/>
			<path d="M 285.272727,72.585714 L 295.090909,68.574286 Z" style="stroke: rgb(93%,50%,93%); stroke-linecap: butt; stroke-width: 1;"/>
			<path d="M 295.090909,68.574286 L 304.909091,74.591429 Z" style="stroke: rgb(93%,50%,93%); stroke-linecap: butt; stroke-width: 1;"/>
			<path d="M 304.909091,74.591429 L 314.727273,72.585714 Z" style="stroke: rgb(93%,50%,93%); stroke-linecap: butt; stroke-width: 1;"/>
			<path d="M 314.727273,72.585714 L 324.545455,74.591429 Z" style="stroke: rgb(93%,50%,93%); stroke-linecap: butt; stroke-width: 1;"/>
			<path d="M 324.545455,74.591429 L 334.363636,76.597143 Z" style="stroke: rgb(93%,50%,93%); stroke-linecap: butt; stroke-width: 1;"/>
			<path d="M 334.363636,76.597143 L 344.181818,72.585714 Z" style="stroke: rgb(93%,50%,93%); stroke-linecap: butt; stroke-width: 1;"/>
			<path d="M 344.181818,72.585714 L 354,84.62 Z" style="stroke: rgb(93%,50%,93%); stroke-linecap: butt; stroke-width: 1;"/>
			<path d="M 354,84.62 L 363.818182,88.631429 Z" style="stroke: rgb(93%,50%,93%); stroke-linecap: butt; stroke-width: 1;"/>
			<path d="M 363.818182,88.631429 L 373.636364,62.557143 Z" style="stroke: rgb(93%,50%,93%); stroke-linecap: butt; stroke-width: 1;"/>
			<path d="M 373.636364,62.557143 L 383.454545,56.54 Z" style="stroke: rgb(93%,50%,93%); stroke-linecap: butt; stroke-width: 1;"/>
			<path d="M 383.454545,56.54 L 393.272727,68.574286 Z" style="stroke: rgb(93%,50%,93%); stroke-linecap: butt; stroke-width: 1;"/>
			<path d="M 393.272727,68.574286 L 403.090909,72.585714 Z" style="stroke: rgb(93%,50%,93%); stroke-linecap: butt; stroke-width: 1;"/>
			<path d="M 403.090909,72.585714 L 412.909091,76.597143 Z" style="stroke: rgb(93%,50%,93%); stroke-linecap: butt; stroke-width: 1;"/>
			<path d="M 412.909091,76.597143 L 422.727273,70.58 Z" style="stroke: rgb(93%,50%,93%); stroke-linecap: butt; stroke-width: 1;"/>
			<path d="M 422.727273,70.58 L 432.545455,66.568571 Z" style="stroke: rgb(93%,50%,93%); stroke-linecap: butt; stroke-width: 1;"/>
			<path d="M 432.545455,66.568571 L 442.363636,70.58 Z" style="stroke: rgb(93%,50%,93%); stroke-linecap: butt; stroke-width: 1;"/>
			<path d="M 442.363636,70.58 L 452.181818,68.574286 Z" style="stroke: rgb(93%,50%,93%); stroke-linecap: butt; stroke-width: 1;"/>
			<path d="M 452.181818,68.574286 L 462,72.585714 Z" style="stroke: rgb(93%,50%,93%); stroke-linecap: butt; stroke-width: 1;"/>
			<path d="M 462,72.585714 L 471.818182,80.608571 Z" style="stroke: rgb(93%,50%,93%); stroke-linecap: butt; stroke-width: 1;"/>
			<path d="M 471.818182,80.608571 L 481.636364,82.614286 Z" style="stroke: rgb(93%,50%,93%); stroke-linecap: butt; stroke-width: 1;"/>
			<path d="M 481.636364,82.614286 L 491.454545,76.597143 Z" style="stroke: rgb(93%,50%,93%); stroke-linecap: butt; stroke-width: 1;"/>
			<path d="M 491.454545,76.597143 L 501.272727,74.591429 Z" style="stroke: rgb(93%,50%,93%); stroke-linecap: butt; stroke-width: 1;"/>
			<path d="M 501.272727,74.591429 L 511.090909,74.591429 Z" style="stroke: rgb(93%,50%,93%); stroke-linecap: butt; stroke-width: 1;"/>
			<path d="M 511.090909,74.591429 L 520.909091,74.591429 Z" style="stroke: rgb(93%,50%,93%); stroke-linecap: butt; stroke-width: 1;"/>
			<path d="M 520.909091,74.591429 L 530.727273,72.585714 Z" style="stroke: rgb(93%,50%,93%); stroke-linecap: butt; stroke-width: 1;"/>
			<path d="M 530.727273,72.585714 L 540.545455,68.574286 Z" style="stroke: rgb(93%,50%,93%); stroke-linecap: butt; stroke-width: 1;"/>
			<path d="M 540.545455,68.574286 L 550.363636,62.557143 Z" style="stroke: rgb(93%,50%,93%); stroke-linecap: butt; stroke-width: 1;"/>
			<path d="M 550.363636,62.557143 L 559.396364,68.574286 Z" style="stroke: rgb(93%,50%,93%); stroke-linecap: butt; stroke-width: 1;"/>
			<polygon points="82.62545 338.6, 194.16 338.6, 194.16 343.46, 82.62545 343.46" style="stroke: rgb(85%,43%,57%); stroke-linecap: butt; stroke-width: 1; fill: rgb(85%,43%,57%); fill-rule: evenodd;"/>
			<polygon points="82.62545 338.6, 90.87273 338.6, 90.87273 343.46, 82.62545 343.46" style="stroke: rgb(100%,0%,0%); stroke-linecap: butt; stroke-width: 1; fill: rgb(100%,0%,0%); fill-rule: evenodd;"/>
			<polygon points="185.1273 338.6, 194.16 338.6, 194.16 343.46, 185.1273 343.46" style="stroke: rgb(100%,0%,0%); stroke-linecap: butt; stroke-width: 1; fill: rgb(100%,0%,0%); fill-rule: evenodd;"/>
			<polygon points="151.3527 333.74, 260.1382 333.74, 260.1382 338.6, 151.3527 338.6" style="stroke: rgb(85%,43%,57%); stroke-linecap: butt; stroke-width: 1; fill: rgb(85%,43%,57%); fill-rule: evenodd;"/>
			<polygon points="151.3527 333.74, 159.6 333.74, 159.6 338.6, 151.3527 338.6" style="stroke: rgb(100%,0%,0%); stroke-linecap: butt; stroke-width: 1; fill: rgb(100%,0%,0%); fill-rule: evenodd;"/>
			<polygon points="251.8909 333.74, 260.1382 333.74, 260.1382 338.6, 251.8909 338.6" style="stroke: rgb(100%,0%,0%); stroke-linecap: butt; stroke-width: 1; fill: rgb(100%,0%,0%); fill-rule: evenodd;"/>
			<polygon points="251.8909 338.6, 357.1418 338.6, 357.1418 343.46, 251.8909 343.46" style="stroke: rgb(85%,43%,57%); stroke-linecap: butt; stroke-width: 1; fill: rgb(85%,43%,57%); fill-rule: evenodd;"/>
			<polygon points="251.8909 338.6, 260.1382 338.6, 260.1382 343.46, 251.8909 343.46" style="stroke: rgb(100%,0%,0%); stroke-linecap: butt; stroke-width: 1; fill: rgb(100%,0%,0%); fill-rule: evenodd;"/>
			<polygon points="348.8945 338.6, 357.1418 338.6, 357.1418 343.46, 348.8945 343.46" style="stroke: rgb(100%,0%,0%); stroke-linecap: butt; stroke-width: 1; fill: rgb(100%,0%,0%); fill-rule: evenodd;"/>
			<polygon points="260.5309 333.74, 415.6582 333.74, 415.6582 338.6, 260.5309 338.6" style="stroke: rgb(85%,43%,57%); stroke-linecap: butt; stroke-width: 1; fill: rgb(85%,43%,57%); fill-rule: evenodd;"/>
			<polygon points="260.5309 333.74, 268.7782 333.74, 268.7782 338.6, 260.5309 338.6" style="stroke: rgb(100%,0%,0%); stroke-linecap: butt; stroke-width: 1; fill: rgb(100%,0%,0%); fill-rule: evenodd;"/>
			<polygon points="407.4109 333.74, 415.6582 333.74, 415.6582 338.6, 407.4109 338.6" style="stroke: rgb(100%,0%,0%); stroke-linecap: butt; stroke-width: 1; fill: rgb(100%,0%,0%); fill-rule: evenodd;"/>
			<polygon points="407.4109 338.6, 550.3636 338.6, 550.3636 343.46, 407.4109 343.46" style="stroke: rgb(85%,43%,57%); stroke-linecap: butt; stroke-width: 1; fill: rgb(85%,43%,57%); fill-rule: evenodd;"/>
			<polygon points="407.4109 338.6, 415.6582 338.6, 415.6582 343.46, 407.4109 343.46" style="stroke: rgb(100%,0%,0%); stroke-linecap: butt; stroke-width: 1; fill: rgb(100%,0%,0%); fill-rule: evenodd;"/>
			<polygon points="542.1164 338.6, 550.3636 338.6, 550.3636 343.46, 542.1164 343.46" style="stroke: rgb(100%,0%,0%); stroke-linecap: butt; stroke-width: 1; fill: rgb(100%,0%,0%); fill-rule: evenodd;"/>
			<polygon points="449.04 333.74, 564.1091 333.74, 564.1091 338.6, 449.04 338.6" style="stroke: rgb(85%,43%,57%); stroke-linecap: butt; stroke-width: 1; fill: rgb(85%,43%,57%); fill-rule: evenodd;"/>
			<polygon points="449.04 333.74, 457.2873 333.74, 457.2873 338.6, 449.04 338.6" style="stroke: rgb(100%,0%,0%); stroke-linecap: butt; stroke-width: 1; fill: rgb(100%,0%,0%); fill-rule: evenodd;"/>
			<polygon points="555.8618 333.74, 564.1091 333.74, 564.1091 338.6, 555.8618 338.6" style="stroke: rgb(100%,0%,0%); stroke-linecap: butt; stroke-width: 1; fill: rgb(100%,0%,0%); fill-rule: evenodd;"/>
			<polygon points="555.8618 338.6, 570 338.6, 570 343.46, 555.8618 343.46" style="stroke: rgb(85%,43%,57%); stroke-linecap: butt; stroke-width: 1; fill: rgb(85%,43%,57%); fill-rule: evenodd;"/>
			<polygon points="30 158.6, 145.4618 158.6, 145.4618 163.46, 30 163.46" style="stroke: rgb(85%,43%,57%); stroke-linecap: butt; stroke-width: 1; fill: rgb(85%,43%,57%); fill-rule: evenodd;"/>
			<polygon points="555.8618 338.6, 564.1091 338.6, 564.1091 343.46, 555.8618 343.46" style="stroke: rgb(100%,0%,0%); stroke-linecap: butt; stroke-width: 1; fill: rgb(100%,0%,0%); fill-rule: evenodd;"/>
			<polygon points="137.2145 158.6, 145.4618 158.6, 145.4618 163.46, 137.2145 163.46" style="stroke: rgb(100%,0%,0%); stroke-linecap: butt; stroke-width: 1; fill: rgb(100%,0%,0%); fill-rule: evenodd;"/>
			<polygon points="565.68 333.74, 570 333.74, 570 338.6, 565.68 338.6" style="stroke: rgb(85%,43%,57%); stroke-linecap: butt; stroke-width: 1; fill: rgb(85%,43%,57%); fill-rule: evenodd;"/>
			<polygon points="30 153.74, 172.56 153.74, 172.56 158.6, 30 158.6" style="stroke: rgb(85%,43%,57%); stroke-linecap: butt; stroke-width: 1; fill: rgb(85%,43%,57%); fill-rule: evenodd;"/>
			<polygon points="565.68 333.74, 570 333.74, 570 338.6, 565.68 338.6" style="stroke: rgb(100%,0%,0%); stroke-linecap: butt; stroke-width: 1; fill: rgb(100%,0%,0%); fill-rule: evenodd;"/>
			<polygon points="30 153.74, 33.92727 153.74, 33.92727 158.6, 30 158.6" style="stroke: rgb(100%,0%,0%); stroke-linecap: butt; stroke-width: 1; fill: rgb(100%,0%,0%); fill-rule: evenodd;"/>
			<polygon points="164.3127 153.74, 172.56 153.74, 172.56 158.6, 164.3127 158.6" style="stroke: rgb(100%,0%,0%); stroke-linecap: butt; stroke-width: 1; fill: rgb(100%,0%,0%); fill-rule: evenodd;"/>
			<polygon points="164.3127 158.6, 280.56 158.6, 280.56 163.46, 164.3127 163.46" style="stroke: rgb(85%,43%,57%); stroke-linecap: butt; stroke-width: 1; fill: rgb(85%,43%,57%); fill-rule: evenodd;"/>
			<polygon points="164.3127 158.6, 172.56 158.6, 172.56 163.46, 164.3127 163.46" style="stroke: rgb(100%,0%,0%); stroke-linecap: butt; stroke-width: 1; fill: rgb(100%,0%,0%); fill-rule: evenodd;"/>
			<polygon points="271.92 158.6, 280.56 158.6, 280.56 163.46, 271.92 163.46" style="stroke: rgb(100%,0%,0%); stroke-linecap: butt; stroke-width: 1; fill: rgb(100%,0%,0%); fill-rule: evenodd;"/>
			<polygon points="190.2327 153.74, 354.7855 153.74, 354.7855 158.6, 190.2327 158.6" style="stroke: rgb(85%,43%,57%); stroke-linecap: butt; stroke-width: 1; fill: rgb(85%,43%,57%); fill-rule: evenodd;"/>
			<polygon points="190.2327 153.74, 199.2655 153.74, 199.2655 158.6, 190.2327 158.6" style="stroke: rgb(100%,0%,0%); stroke-linecap: butt; stroke-width: 1; fill: rgb(100%,0%,0%); fill-rule: evenodd;"/>
			<polygon points="346.5382 153.74, 354.7855 153.74, 354.7855 158.6, 346.5382 158.6" style="stroke: rgb(100%,0%,0%); stroke-linecap: butt; stroke-width: 1; fill: rgb(100%,0%,0%); fill-rule: evenodd;"/>
			<polygon points="318.6545 158.6, 467.8909 158.6, 467.8909 163.46, 318.6545 163.46" style="stroke: rgb(85%,43%,57%); stroke-linecap: butt; stroke-width: 1; fill: rgb(85%,43%,57%); fill-rule: evenodd;"/>
			<polygon points="318.6545 158.6, 327.6873 158.6, 327.6873 163.46, 318.6545 163.46" style="stroke: rgb(100%,0%,0%); stroke-linecap: butt; stroke-width: 1; fill: rgb(100%,0%,0%); fill-rule: evenodd;"/>
			<polygon points="459.2509 158.6, 467.8909 158.6, 467.8909 163.46, 459.2509 163.46" style="stroke: rgb(100%,0%,0%); stroke-linecap: butt; stroke-width: 1; fill: rgb(100%,0%,0%); fill-rule: evenodd;"/>
			<polygon points="356.3564 153.74, 493.8109 153.74, 493.8109 158.6, 356.3564 158.6" style="stroke: rgb(85%,43%,57%); stroke-linecap: butt; stroke-width: 1; fill: rgb(85%,43%,57%); fill-rule: evenodd;"/>
			<polygon points="356.3564 153.74, 364.6036 153.74, 364.6036 158.6, 356.3564 158.6" style="stroke: rgb(100%,0%,0%); stroke-linecap: butt; stroke-width: 1; fill: rgb(100%,0%,0%); fill-rule: evenodd;"/>
			<polygon points="485.5636 153.74, 493.8109 153.74, 493.8109 158.6, 485.5636 158.6" style="stroke: rgb(100%,0%,0%); stroke-linecap: butt; stroke-width: 1; fill: rgb(100%,0%,0%); fill-rule: evenodd;"/>
			<path d="M 30,257.6 L 570,257.6 Z" style="stroke: rgb(0%,0%,0%); stroke-linecap: butt; stroke-width: 1;"/>
			<path d="M 30,236.54 L 30,278.66 Z" style="stroke: rgb(0%,0%,0%); stroke-linecap: butt; stroke-width: 1;"/>
			<path d="M 569.214545,56.54 L 569.214545,98.66 Z" style="stroke: rgb(0%,0%,0%); stroke-linecap: butt; stroke-width: 1;"/>
			<path d="M 30,77.6 L 569.214545,77.6 Z" style="stroke: rgb(0%,0%,0%); stroke-linecap: butt; stroke-width: 1;"/>
			<path d="M 30,56.54 L 30,98.66 Z" style="stroke: rgb(0%,0%,0%); stroke-linecap: butt; stroke-width: 1;"/>
			<path d="M 422.727273,257.6 L 422.727273,268.13 Z" style="stroke: rgb(0%,0%,0%); stroke-linecap: butt; stroke-width: 1;"/>
			<path d="M 275.454545,77.6 L 275.454545,88.13 Z" style="stroke: rgb(0%,0%,0%); stroke-linecap: butt; stroke-width: 1;"/>
			<path d="M 30,338.6 L 570,338.6 Z" style="stroke: rgb(0%,0%,0%); stroke-linecap: butt; stroke-width: 1;"/>
			<path d="M 30,333.74 L 30,343.46 Z" style="stroke: rgb(0%,0%,0%); stroke-linecap: butt; stroke-width: 1;"/>
			<path d="M 569.214545,153.74 L 569.214545,163.46 Z" style="stroke: rgb(0%,0%,0%); stroke-linecap: butt; stroke-width: 1;"/>
			<path d="M 30,158.6 L 569.214545,158.6 Z" style="stroke: rgb(0%,0%,0%); stroke-linecap: butt; stroke-width: 1;"/>
			<path d="M 30,153.74 L 30,163.46 Z" style="stroke: rgb(0%,0%,0%); stroke-linecap: butt; stroke-width: 1;"/>
			<g transform=" matrix(0.707107,0.707107,-0.707107,0.707107,422.727273,268.13)">
				<text style="font-family: Helvetica; font-size: 6px;fill: rgb(0%,0%,0%); stroke:none;" transform="translate(0,0) scale(1,-1)" x="0" y="0">1000</text>
			</g>
			<g transform=" matrix(0.707107,0.707107,-0.707107,0.707107,275.454545,88.13)">
				<text style="font-family: Helvetica; font-size: 6px;fill: rgb(0%,0%,0%); stroke:none;" transform="translate(0,0) scale(1,-1)" x="0" y="0">2000</text>
			</g>
			<g transform=" matrix(0.707107,0.707107,-0.707107,0.707107,30,236.54)">
				<text style="font-family: Helvetica; font-size: 6px;fill: rgb(0%,0%,0%); stroke:none;" transform="translate(0,0) scale(1,-1)" x="0" y="0">0.180</text>
			</g>
			<g transform=" matrix(0.707107,0.707107,-0.707107,0.707107,30,278.66)">
				<text style="font-family: Helvetica; font-size: 6px;fill: rgb(0%,0%,0%); stroke:none;" transform="translate(0,0) scale(1,-1)" x="0" y="0">0.600</text>
			</g>
			<g transform=" matrix(0.707107,0.707107,-0.707107,0.707107,30,257.6)">
				<text style="font-family: Helvetica; font-size: 6px;fill: rgb(0%,0%,0%); stroke:none;" transform="translate(0,0) scale(1,-1)" x="0" y="0"></text>
			</g>
			<g transform=" matrix(0.707107,0.707107,-0.707107,0.707107,30,56.54)">
				<text style="font-family: Helvetica; font-size: 6px;fill: rgb(0%,0%,0%); stroke:none;" transform="translate(0,0) scale(1,-1)" x="0" y="0">0.180</text>
			</g>
			<g transform=" matrix(0.707107,0.707107,-0.707107,0.707107,30,98.66)">
				<text style="font-family: Helvetica; font-size: 6px;fill: rgb(0%,0%,0%); stroke:none;" transform="translate(0,0) scale(1,-1)" x="0" y="0">0.600</text>
			</g>
			<g transform=" matrix(0.707107,0.707107,-0.707107,0.707107,30,77.6)">
				<text style="font-family: Helvetica; font-size: 6px;fill: rgb(0%,0%,0%); stroke:none;" transform="translate(0,0) scale(1,-1)" x="0" y="0"></text>
			</g>
			<g transform=" matrix(1,0,-0,1,138.392727,343.46)">
				<text style="font-family: Helvetica; font-size: 6px;fill: rgb(0%,0%,0%); stroke:none;" transform="translate(0,0) scale(1,-1)" x="0" y="0">1</text>
			</g>
			<g transform=" matrix(1,0,-0,1,205.745455,333.74)">
				<text style="font-family: Helvetica; font-size: 6px;fill: rgb(0%,0%,0%); stroke:none;" transform="translate(0,0) scale(1,-1)" x="0" y="0">2</text>
			</g>
			<g transform=" matrix(1,0,-0,1,304.516364,343.46)">
				<text style="font-family: Helvetica; font-size: 6px;fill: rgb(0%,0%,0%); stroke:none;" transform="translate(0,0) scale(1,-1)" x="0" y="0">3</text>
			</g>
			<g transform=" matrix(1,0,-0,1,338.094545,333.74)">
				<text style="font-family: Helvetica; font-size: 6px;fill: rgb(0%,0%,0%); stroke:none;" transform="translate(0,0) scale(1,-1)" x="0" y="0">4</text>
			</g>
			<g transform=" matrix(1,0,-0,1,478.887273,343.46)">
				<text style="font-family: Helvetica; font-size: 6px;fill: rgb(0%,0%,0%); stroke:none;" transform="translate(0,0) scale(1,-1)" x="0" y="0">5</text>
			</g>
			<g transform=" matrix(1,0,-0,1,506.574545,333.74)">
				<text style="font-family: Helvetica; font-size: 6px;fill: rgb(0%,0%,0%); stroke:none;" transform="translate(0,0) scale(1,-1)" x="0" y="0">6</text>
			</g>
			<g transform=" matrix(1,0,-0,1,562.930909,343.46)">
				<text style="font-family: Helvetica; font-size: 6px;fill: rgb(0%,0%,0%); stroke:none;" transform="translate(0,0) scale(1,-1)" x="0" y="0">7</text>
			</g>
			<g transform=" matrix(1,0,-0,1,87.730909,163.46)">
				<text style="font-family: Helvetica; font-size: 6px;fill: rgb(0%,0%,0%); stroke:none;" transform="translate(0,0) scale(1,-1)" x="0" y="0">7</text>
			</g>
			<g transform=" matrix(1,0,-0,1,567.84,333.74)">
				<text style="font-family: Helvetica; font-size: 6px;fill: rgb(0%,0%,0%); stroke:none;" transform="translate(0,0) scale(1,-1)" x="0" y="0">8</text>
			</g>
			<g transform=" matrix(1,0,-0,1,101.28,153.74)">
				<text style="font-family: Helvetica; font-size: 6px;fill: rgb(0%,0%,0%); stroke:none;" transform="translate(0,0) scale(1,-1)" x="0" y="0">8</text>
			</g>
			<g transform=" matrix(1,0,-0,1,222.436364,163.46)">
				<text style="font-family: Helvetica; font-size: 6px;fill: rgb(0%,0%,0%); stroke:none;" transform="translate(0,0) scale(1,-1)" x="0" y="0">9</text>
			</g>
			<g transform=" matrix(1,0,-0,1,272.509091,153.74)">
				<text style="font-family: Helvetica; font-size: 6px;fill: rgb(0%,0%,0%); stroke:none;" transform="translate(0,0) scale(1,-1)" x="0" y="0">10</text>
			</g>
			<g transform=" matrix(1,0,-0,1,393.272727,163.46)">
				<text style="font-family: Helvetica; font-size: 6px;fill: rgb(0%,0%,0%); stroke:none;" transform="translate(0,0) scale(1,-1)" x="0" y="0">11</text>
			</g>
			<g transform=" matrix(1,0,-0,1,425.083636,153.74)">
				<text style="font-family: Helvetica; font-size: 6px;fill: rgb(0%,0%,0%); stroke:none;" transform="translate(0,0) scale(1,-1)" x="0" y="0">12</text>
			</g>
		</g>
	</g>
</svg>
