<?xml version="1.0" encoding="utf-8"?>
<!DOCTYPE svg
  PUBLIC '-//W3C//DTD SVG 1.0//EN'
  'http://www.w3.org/TR/2001/REC-SVG-20010904/DTD/svg10.dtd'>
<svg width="600" height="400" preserveAspectRatio="xMinYMin meet" viewBox="0 0 600 400" xmlns="http://www.w3.org/2000/svg" version="1.0" fill-rule="evenodd" xmlns:xlink="http://www.w3.org/1999/xlink">
	<title>...</title>
	<desc>...</desc>
	<clipPath id="clip">
		<rect x="0" y="0" width="600" height="400"/>
	</clipPath>
	<g id="group" transform="scale(1,-1) translate(0,-400)" style="clip-path: url(#clip)">
		<g transform="">
			<path d="M 37.305195,260.608571 L 37.305195,260.608571 Z" style="stroke: rgb(93%,50%,93%); stroke-linecap: butt; stroke-width: 1;"/>
			<path d="M 37.305195,260.608571 L 44.610390,259.104286 Z" style="stroke: rgb(93%,50%,93%); stroke-linecap: butt; stroke-width: 1;"/>
			<path d="M 44.610390,259.104286 L 51.915584,265.121429 Z" style="stroke: rgb(93%,50%,93%); stroke-linecap: butt; stroke-width: 1;"/>
			<path d="M 51.915584,265.121429 L 59.220779,256.095714 Z" style="stroke: rgb(93%,50%,93%); stroke-linecap: butt; stroke-width: 1;"/>
			<path d="M 59.220779,256.095714 L 66.525974,254.591429 Z" style="stroke: rgb(93%,50%,93%); stroke-linecap: butt; stroke-width: 1;"/>
			<path d="M 66.525974,254.591429 L 73.831169,259.104286 Z" style="stroke: rgb(93%,50%,93%); stroke-linecap: butt; stroke-width: 1;"/>
			<path d="M 73.831169,259.104286 L 81.136364,263.617143 Z" style="stroke: rgb(93%,50%,93%); stroke-linecap: butt; stroke-width: 1;"/>
			<path d="M 81.136364,263.617143 L 88.441558,271.138571 Z" style="stroke: rgb(93%,50%,93%); stroke-linecap: butt; stroke-width: 1;"/>
			<path d="M 88.441558,271.138571 L 95.746753,271.138571 Z" style="stroke: rgb(93%,50%,93%); stroke-linecap: butt; stroke-width: 1;"/>
			<path d="M 95.746753,271.138571 L 103.051948,275.651429 Z" style="stroke: rgb(93%,50%,93%); stroke-linecap: butt; stroke-width: 1;"/>
			<path d="M 103.051948,275.651429 L 110.357143,278.660000 Z" style="stroke: rgb(93%,50%,93%); stroke-linecap: butt; stroke-width: 1;"/>
			<path d="M 110.357143,278.660000 L 117.662338,271.138571 Z" style="stroke: rgb(93%,50%,93%); stroke-linecap: butt; stroke-width: 1;"/>
			<path d="M 117.662338,271.138571 L 124.967532,266.625714 Z" style="stroke: rgb(93%,50%,93%); stroke-linecap: butt; stroke-width: 1;"/>
			<path d="M 124.967532,266.625714 L 132.272727,271.138571 Z" style="stroke: rgb(93%,50%,93%); stroke-linecap: butt; stroke-width: 1;"/>
			<path d="M 132.272727,271.138571 L 139.577922,268.130000 Z" style="stroke: rgb(93%,50%,93%); stroke-linecap: butt; stroke-width: 1;"/>
			<path d="M 139.577922,268.130000 L 146.883117,266.625714 Z" style="stroke: rgb(93%,50%,93%); stroke-linecap: butt; stroke-width: 1;"/>
			<path d="M 146.883117,266.625714 L 154.188312,269.634286 Z" style="stroke: rgb(93%,50%,93%); stroke-linecap: butt; stroke-width: 1;"/>
			<path d="M 154.188312,269.634286 L 161.493506,262.112857 Z" style="stroke: rgb(93%,50%,93%); stroke-linecap: butt; stroke-width: 1;"/>
			<path d="M 161.493506,262.112857 L 168.798701,263.617143 Z" style="stroke: rgb(93%,50%,93%); stroke-linecap: butt; stroke-width: 1;"/>
			<path d="M 168.798701,263.617143 L 176.103896,268.130000 Z" style="stroke: rgb(93%,50%,93%); stroke-linecap: butt; stroke-width: 1;"/>
			<path d="M 176.103896,268.130000 L 183.409091,256.095714 Z" style="stroke: rgb(93%,50%,93%); stroke-linecap: butt; stroke-width: 1;"/>
			<path d="M 183.409091,256.095714 L 190.714286,247.070000 Z" style="stroke: rgb(93%,50%,93%); stroke-linecap: butt; stroke-width: 1;"/>
			<path d="M 190.714286,247.070000 L 198.019481,241.052857 Z" style="stroke: rgb(93%,50%,93%); stroke-linecap: butt; stroke-width: 1;"/>
			<path d="M 198.019481,241.052857 L 205.324675,244.061429 Z" style="stroke: rgb(93%,50%,93%); stroke-linecap: butt; stroke-width: 1;"/>
			<path d="M 205.324675,244.061429 L 212.629870,250.078571 Z" style="stroke: rgb(93%,50%,93%); stroke-linecap: butt; stroke-width: 1;"/>
			<path d="M 212.629870,250.078571 L 219.935065,254.591429 Z" style="stroke: rgb(93%,50%,93%); stroke-linecap: butt; stroke-width: 1;"/>
			<path d="M 219.935065,254.591429 L 227.240260,260.608571 Z" style="stroke: rgb(93%,50%,93%); stroke-linecap: butt; stroke-width: 1;"/>
			<path d="M 227.240260,260.608571 L 234.545455,260.608571 Z" style="stroke: rgb(93%,50%,93%); stroke-linecap: butt; stroke-width: 1;"/>
			<path d="M 234.545455,260.608571 L 241.850649,260.608571 Z" style="stroke: rgb(93%,50%,93%); stroke-linecap: butt; stroke-width: 1;"/>
			<path d="M 241.850649,260.608571 L 249.155844,253.087143 Z" style="stroke: rgb(93%,50%,93%); stroke-linecap: butt; stroke-width: 1;"/>
			<path d="M 249.155844,253.087143 L 256.461039,247.070000 Z" style="stroke: rgb(93%,50%,93%); stroke-linecap: butt; stroke-width: 1;"/>
			<path d="M 256.461039,247.070000 L 263.766234,253.087143 Z" style="stroke: rgb(93%,50%,93%); stroke-linecap: butt; stroke-width: 1;"/>
			<path d="M 263.766234,253.087143 L 271.071429,250.078571 Z" style="stroke: rgb(93%,50%,93%); stroke-linecap: butt; stroke-width: 1;"/>
			<path d="M 271.071429,250.078571 L 278.376623,239.548571 Z" style="stroke: rgb(93%,50%,93%); stroke-linecap: butt; stroke-width: 1;"/>
			<path d="M 278.376623,239.548571 L 285.681818,244.061429 Z" style="stroke: rgb(93%,50%,93%); stroke-linecap: butt; stroke-width: 1;"/>
			<path d="M 285.681818,244.061429 L 292.987013,254.591429 Z" style="stroke: rgb(93%,50%,93%); stroke-linecap: butt; stroke-width: 1;"/>
			<path d="M 292.987013,254.591429 L 300.292208,253.087143 Z" style="stroke: rgb(93%,50%,93%); stroke-linecap: butt; stroke-width: 1;"/>
			<path d="M 300.292208,253.087143 L 307.597403,247.070000 Z" style="stroke: rgb(93%,50%,93%); stroke-linecap: butt; stroke-width: 1;"/>
			<path d="M 307.597403,247.070000 L 314.902597,245.565714 Z" style="stroke: rgb(93%,50%,93%); stroke-linecap: butt; stroke-width: 1;"/>
			<path d="M 314.902597,245.565714 L 322.207792,248.574286 Z" style="stroke: rgb(93%,50%,93%); stroke-linecap: butt; stroke-width: 1;"/>
			<path d="M 322.207792,248.574286 L 329.512987,245.565714 Z" style="stroke: rgb(93%,50%,93%); stroke-linecap: butt; stroke-width: 1;"/>
			<path d="M 329.512987,245.565714 L 336.818182,239.548571 Z" style="stroke: rgb(93%,50%,93%); stroke-linecap: butt; stroke-width: 1;"/>
			<path d="M 336.818182,239.548571 L 344.123377,236.540000 Z" style="stroke: rgb(93%,50%,93%); stroke-linecap: butt; stroke-width: 1;"/>
			<path d="M 344.123377,236.540000 L 351.428571,239.548571 Z" style="stroke: rgb(93%,50%,93%); stroke-linecap: butt; stroke-width: 1;"/>
			<path d="M 351.428571,239.548571 L 358.733766,244.061429 Z" style="stroke: rgb(93%,50%,93%); stroke-linecap: butt; stroke-width: 1;"/>
			<path d="M 358.733766,244.061429 L 366.038961,241.052857 Z" style="stroke: rgb(93%,50%,93%); stroke-linecap: butt; stroke-width: 1;"/>
			<path d="M 366.038961,241.052857 L 373.344156,241.052857 Z" style="stroke: rgb(93%,50%,93%); stroke-linecap: butt; stroke-width: 1;"/>
			<path d="M 373.344156,241.052857 L 380.649351,239.548571 Z" style="stroke: rgb(93%,50%,93%); stroke-linecap: butt; stroke-width: 1;"/>
			<path d="M 380.649351,239.548571 L 387.954545,236.540000 Z" style="stroke: rgb(93%,50%,93%); stroke-linecap: butt; stroke-width: 1;"/>
			<path d="M 387.954545,236.540000 L 395.259740,244.061429 Z" style="stroke: rgb(93%,50%,93%); stroke-linecap: butt; stroke-width: 1;"/>
			<path d="M 395.259740,244.061429 L 402.564935,250.078571 Z" style="stroke: rgb(93%,50%,93%); stroke-linecap: butt; stroke-width: 1;"/>
			<path d="M 402.564935,250.078571 L 409.870130,247.070000 Z" style="stroke: rgb(93%,50%,93%); stroke-linecap: butt; stroke-width: 1;"/>
			<path d="M 409.870130,247.070000 L 417.175325,250.078571 Z" style="stroke: rgb(93%,50%,93%); stroke-linecap: butt; stroke-width: 1;"/>
			<path d="M 417.175325,250.078571 L 424.480519,254.591429 Z" style="stroke: rgb(93%,50%,93%); stroke-linecap: butt; stroke-width: 1;"/>
			<path d="M 424.480519,254.591429 L 431.785714,254.591429 Z" style="stroke: rgb(93%,50%,93%); stroke-linecap: butt; stroke-width: 1;"/>
			<path d="M 431.785714,254.591429 L 439.090909,250.078571 Z" style="stroke: rgb(93%,50%,93%); stroke-linecap: butt; stroke-width: 1;"/>
			<path d="M 439.090909,250.078571 L 446.396104,254.591429 Z" style="stroke: rgb(93%,50%,93%); stroke-linecap: butt; stroke-width: 1;"/>
			<path d="M 446.396104,254.591429 L 453.701299,253.087143 Z" style="stroke: rgb(93%,50%,93%); stroke-linecap: butt; stroke-width: 1;"/>
			<path d="M 453.701299,253.087143 L 461.006494,254.591429 Z" style="stroke: rgb(93%,50%,93%); stroke-linecap: butt; stroke-width: 1;"/>
			<path d="M 461.006494,254.591429 L 468.311688,266.625714 Z" style="stroke: rgb(93%,50%,93%); stroke-linecap: butt; stroke-width: 1;"/>
			<path d="M 468.311688,266.625714 L 475.616883,260.608571 Z" style="stroke: rgb(93%,50%,93%); stroke-linecap: butt; stroke-width: 1;"/>
			<path d="M 475.616883,260.608571 L 482.922078,263.617143 Z" style="stroke: rgb(93%,50%,93%); stroke-linecap: butt; stroke-width: 1;"/>
			<path d="M 482.922078,263.617143 L 490.227273,268.130000 Z" style="stroke: rgb(93%,50%,93%); stroke-linecap: butt; stroke-width: 1;"/>
			<path d="M 490.227273,268.130000 L 497.532468,262.112857 Z" style="stroke: rgb(93%,50%,93%); stroke-linecap: butt; stroke-width: 1;"/>
			<path d="M 497.532468,262.112857 L 504.837662,265.121429 Z" style="stroke: rgb(93%,50%,93%); stroke-linecap: butt; stroke-width: 1;"/>
			<path d="M 504.837662,265.121429 L 512.142857,265.121429 Z" style="stroke: rgb(93%,50%,93%); stroke-linecap: butt; stroke-width: 1;"/>
			<path d="M 512.142857,265.121429 L 519.448052,269.634286 Z" style="stroke: rgb(93%,50%,93%); stroke-linecap: butt; stroke-width: 1;"/>
			<path d="M 519.448052,269.634286 L 526.753247,266.625714 Z" style="stroke: rgb(93%,50%,93%); stroke-linecap: butt; stroke-width: 1;"/>
			<path d="M 526.753247,266.625714 L 534.058442,262.112857 Z" style="stroke: rgb(93%,50%,93%); stroke-linecap: butt; stroke-width: 1;"/>
			<path d="M 534.058442,262.112857 L 541.363636,263.617143 Z" style="stroke: rgb(93%,50%,93%); stroke-linecap: butt; stroke-width: 1;"/>
			<path d="M 541.363636,263.617143 L 548.668831,260.608571 Z" style="stroke: rgb(93%,50%,93%); stroke-linecap: butt; stroke-width: 1;"/>
			<path d="M 548.668831,260.608571 L 555.974026,259.104286 Z" style="stroke: rgb(93%,50%,93%); stroke-linecap: butt; stroke-width: 1;"/>
			<path d="M 555.974026,259.104286 L 563.279221,263.617143 Z" style="stroke: rgb(93%,50%,93%); stroke-linecap: butt; stroke-width: 1;"/>
			<path d="M 563.279221,263.617143 L 570.000000,269.634286 Z" style="stroke: rgb(93%,50%,93%); stroke-linecap: butt; stroke-width: 1;"/>
			<path d="M 30.000000,89.634286 L 30.584416,89.634286 Z" style="stroke: rgb(93%,50%,93%); stroke-linecap: butt; stroke-width: 1;"/>
			<path d="M 30.584416,89.634286 L 37.889610,91.138571 Z" style="stroke: rgb(93%,50%,93%); stroke-linecap: butt; stroke-width: 1;"/>
			<path d="M 37.889610,91.138571 L 45.194805,88.130000 Z" style="stroke: rgb(93%,50%,93%); stroke-linecap: butt; stroke-width: 1;"/>
			<path d="M 45.194805,88.130000 L 52.500000,80.608571 Z" style="stroke: rgb(93%,50%,93%); stroke-linecap: butt; stroke-width: 1;"/>
			<path d="M 52.500000,80.608571 L 59.805195,74.591429 Z" style="stroke: rgb(93%,50%,93%); stroke-linecap: butt; stroke-width: 1;"/>
			<path d="M 59.805195,74.591429 L 67.110390,82.112857 Z" style="stroke: rgb(93%,50%,93%); stroke-linecap: butt; stroke-width: 1;"/>
			<path d="M 67.110390,82.112857 L 74.415584,89.634286 Z" style="stroke: rgb(93%,50%,93%); stroke-linecap: butt; stroke-width: 1;"/>
			<path d="M 74.415584,89.634286 L 81.720779,85.121429 Z" style="stroke: rgb(93%,50%,93%); stroke-linecap: butt; stroke-width: 1;"/>
			<path d="M 81.720779,85.121429 L 89.025974,86.625714 Z" style="stroke: rgb(93%,50%,93%); stroke-linecap: butt; stroke-width: 1;"/>
			<path d="M 89.025974,86.625714 L 96.331169,85.121429 Z" style="stroke: rgb(93%,50%,93%); stroke-linecap: butt; stroke-width: 1;"/>
			<path d="M 96.331169,85.121429 L 103.636364,70.078571 Z" style="stroke: rgb(93%,50%,93%); stroke-linecap: butt; stroke-width: 1;"/>
			<path d="M 103.636364,70.078571 L 110.941558,73.087143 Z" style="stroke: rgb(93%,50%,93%); stroke-linecap: butt; stroke-width: 1;"/>
			<path d="M 110.941558,73.087143 L 118.246753,83.617143 Z" style="stroke: rgb(93%,50%,93%); stroke-linecap: butt; stroke-width: 1;"/>
			<path d="M 118.246753,83.617143 L 125.551948,77.600000 Z" style="stroke: rgb(93%,50%,93%); stroke-linecap: butt; stroke-width: 1;"/>
			<path d="M 125.551948,77.600000 L 132.857143,82.112857 Z" style="stroke: rgb(93%,50%,93%); stroke-linecap: butt; stroke-width: 1;"/>
			<path d="M 132.857143,82.112857 L 140.162338,79.104286 Z" style="stroke: rgb(93%,50%,93%); stroke-linecap: butt; stroke-width: 1;"/>
			<path d="M 140.162338,79.104286 L 147.467532,73.087143 Z" style="stroke: rgb(93%,50%,93%); stroke-linecap: butt; stroke-width: 1;"/>
			<path d="M 147.467532,73.087143 L 154.772727,79.104286 Z" style="stroke: rgb(93%,50%,93%); stroke-linecap: butt; stroke-width: 1;"/>
			<path d="M 154.772727,79.104286 L 162.077922,86.625714 Z" style="stroke: rgb(93%,50%,93%); stroke-linecap: butt; stroke-width: 1;"/>
			<path d="M 162.077922,86.625714 L 169.383117,85.121429 Z" style="stroke: rgb(93%,50%,93%); stroke-linecap: butt; stroke-width: 1;"/>
			<path d="M 169.383117,85.121429 L 176.688312,77.600000 Z" style="stroke: rgb(93%,50%,93%); stroke-linecap: butt; stroke-width: 1;"/>
			<path d="M 176.688312,77.600000 L 183.993506,68.574286 Z" style="stroke: rgb(93%,50%,93%); stroke-linecap: butt; stroke-width: 1;"/>
			<path d="M 183.993506,68.574286 L 191.298701,67.070000 Z" style="stroke: rgb(93%,50%,93%); stroke-linecap: butt; stroke-width: 1;"/>
			<path d="M 191.298701,67.070000 L 198.603896,67.070000 Z" style="stroke: rgb(93%,50%,93%); stroke-linecap: butt; stroke-width: 1;"/>
			<path d="M 198.603896,67.070000 L 205.909091,67.070000 Z" style="stroke: rgb(93%,50%,93%); stroke-linecap: butt; stroke-width: 1;"/>
			<path d="M 205.909091,67.070000 L 213.214286,82.112857 Z" style="stroke: rgb(93%,50%,93%); stroke-linecap: butt; stroke-width: 1;"/>
			<path d="M 213.214286,82.112857 L 220.519481,85.121429 Z" style="stroke: rgb(93%,50%,93%); stroke-linecap: butt; stroke-width: 1;"/>
			<path d="M 220.519481,85.121429 L 227.824675,73.087143 Z" style="stroke: rgb(93%,50%,93%); stroke-linecap: butt; stroke-width: 1;"/>
			<path d="M 227.824675,73.087143 L 235.129870,77.600000 Z" style="stroke: rgb(93%,50%,93%); stroke-linecap: butt; stroke-width: 1;"/>
			<path d="M 235.129870,77.600000 L 242.435065,91.138571 Z" style="stroke: rgb(93%,50%,93%); stroke-linecap: butt; stroke-width: 1;"/>
			<path d="M 242.435065,91.138571 L 249.740260,92.642857 Z" style="stroke: rgb(93%,50%,93%); stroke-linecap: butt; stroke-width: 1;"/>
			<path d="M 249.740260,92.642857 L 257.045455,80.608571 Z" style="stroke: rgb(93%,50%,93%); stroke-linecap: butt; stroke-width: 1;"/>
			<path d="M 257.045455,80.608571 L 264.350649,73.087143 Z" style="stroke: rgb(93%,50%,93%); stroke-linecap: butt; stroke-width: 1;"/>
			<path d="M 264.350649,73.087143 L 271.655844,76.095714 Z" style="stroke: rgb(93%,50%,93%); stroke-linecap: butt; stroke-width: 1;"/>
			<path d="M 271.655844,76.095714 L 278.961039,77.600000 Z" style="stroke: rgb(93%,50%,93%); stroke-linecap: butt; stroke-width: 1;"/>
			<path d="M 278.961039,77.600000 L 286.266234,73.087143 Z" style="stroke: rgb(93%,50%,93%); stroke-linecap: butt; stroke-width: 1;"/>
			<path d="M 286.266234,73.087143 L 293.571429,73.087143 Z" style="stroke: rgb(93%,50%,93%); stroke-linecap: butt; stroke-width: 1;"/>
			<path d="M 293.571429,73.087143 L 300.876623,80.608571 Z" style="stroke: rgb(93%,50%,93%); stroke-linecap: butt; stroke-width: 1;"/>
			<path d="M 300.876623,80.608571 L 308.181818,86.625714 Z" style="stroke: rgb(93%,50%,93%); stroke-linecap: butt; stroke-width: 1;"/>
			<path d="M 308.181818,86.625714 L 315.487013,91.138571 Z" style="stroke: rgb(93%,50%,93%); stroke-linecap: butt; stroke-width: 1;"/>
			<path d="M 315.487013,91.138571 L 322.792208,91.138571 Z" style="stroke: rgb(93%,50%,93%); stroke-linecap: butt; stroke-width: 1;"/>
			<path d="M 322.792208,91.138571 L 330.097403,85.121429 Z" style="stroke: rgb(93%,50%,93%); stroke-linecap: butt; stroke-width: 1;"/>
			<path d="M 330.097403,85.121429 L 337.402597,77.600000 Z" style="stroke: rgb(93%,50%,93%); stroke-linecap: butt; stroke-width: 1;"/>
			<path d="M 337.402597,77.600000 L 344.707792,76.095714 Z" style="stroke: rgb(93%,50%,93%); stroke-linecap: butt; stroke-width: 1;"/>
			<path d="M 344.707792,76.095714 L 352.012987,74.591429 Z" style="stroke: rgb(93%,50%,93%); stroke-linecap: butt; stroke-width: 1;"/>
			<path d="M 352.012987,74.591429 L 359.318182,74.591429 Z" style="stroke: rgb(93%,50%,93%); stroke-linecap: butt; stroke-width: 1;"/>
			<path d="M 359.318182,74.591429 L 366.623377,77.600000 Z" style="stroke: rgb(93%,50%,93%); stroke-linecap: butt; stroke-width: 1;"/>
			<path d="M 366.623377,77.600000 L 373.928571,79.104286 Z" style="stroke: rgb(93%,50%,93%); stroke-linecap: butt; stroke-width: 1;"/>
			<path d="M 373.928571,79.104286 L 381.233766,80.608571 Z" style="stroke: rgb(93%,50%,93%); stroke-linecap: butt; stroke-width: 1;"/>
			<path d="M 381.233766,80.608571 L 388.538961,80.608571 Z" style="stroke: rgb(93%,50%,93%); stroke-linecap: butt; stroke-width: 1;"/>
			<path d="M 388.538961,80.608571 L 395.844156,76.095714 Z" style="stroke: rgb(93%,50%,93%); stroke-linecap: butt; stroke-width: 1;"/>
			<path d="M 395.844156,76.095714 L 403.149351,77.600000 Z" style="stroke: rgb(93%,50%,93%); stroke-linecap: butt; stroke-width: 1;"/>
			<path d="M 403.149351,77.600000 L 410.454545,80.608571 Z" style="stroke: rgb(93%,50%,93%); stroke-linecap: butt; stroke-width: 1;"/>
			<path d="M 410.454545,80.608571 L 417.759740,82.112857 Z" style="stroke: rgb(93%,50%,93%); stroke-linecap: butt; stroke-width: 1;"/>
			<path d="M 417.759740,82.112857 L 425.064935,77.600000 Z" style="stroke: rgb(93%,50%,93%); stroke-linecap: butt; stroke-width: 1;"/>
			<path d="M 425.064935,77.600000 L 432.370130,71.582857 Z" style="stroke: rgb(93%,50%,93%); stroke-linecap: butt; stroke-width: 1;"/>
			<path d="M 432.370130,71.582857 L 439.675325,70.078571 Z" style="stroke: rgb(93%,50%,93%); stroke-linecap: butt; stroke-width: 1;"/>
			<path d="M 439.675325,70.078571 L 446.980519,70.078571 Z" style="stroke: rgb(93%,50%,93%); stroke-linecap: butt; stroke-width: 1;"/>
			<path d="M 446.980519,70.078571 L 454.285714,82.112857 Z" style="stroke: rgb(93%,50%,93%); stroke-linecap: butt; stroke-width: 1;"/>
			<path d="M 454.285714,82.112857 L 461.590909,91.138571 Z" style="stroke: rgb(93%,50%,93%); stroke-linecap: butt; stroke-width: 1;"/>
			<path d="M 461.590909,91.138571 L 468.896104,88.130000 Z" style="stroke: rgb(93%,50%,93%); stroke-linecap: butt; stroke-width: 1;"/>
			<path d="M 468.896104,88.130000 L 476.201299,82.112857 Z" style="stroke: rgb(93%,50%,93%); stroke-linecap: butt; stroke-width: 1;"/>
			<path d="M 476.201299,82.112857 L 483.506494,82.112857 Z" style="stroke: rgb(93%,50%,93%); stroke-linecap: butt; stroke-width: 1;"/>
			<path d="M 483.506494,82.112857 L 490.811688,82.112857 Z" style="stroke: rgb(93%,50%,93%); stroke-linecap: butt; stroke-width: 1;"/>
			<path d="M 490.811688,82.112857 L 498.116883,85.121429 Z" style="stroke: rgb(93%,50%,93%); stroke-linecap: butt; stroke-width: 1;"/>
			<path d="M 498.116883,85.121429 L 505.422078,86.625714 Z" style="stroke: rgb(93%,50%,93%); stroke-linecap: butt; stroke-width: 1;"/>
			<path d="M 505.422078,86.625714 L 512.727273,79.104286 Z" style="stroke: rgb(93%,50%,93%); stroke-linecap: butt; stroke-width: 1;"/>
			<path d="M 512.727273,79.104286 L 520.032468,68.574286 Z" style="stroke: rgb(93%,50%,93%); stroke-linecap: butt; stroke-width: 1;"/>
			<path d="M 520.032468,68.574286 L 527.337662,68.574286 Z" style="stroke: rgb(93%,50%,93%); stroke-linecap: butt; stroke-width: 1;"/>
			<path d="M 527.337662,68.574286 L 534.642857,98.660000 Z" style="stroke: rgb(93%,50%,93%); stroke-linecap: butt; stroke-width: 1;"/>
			<path d="M 534.642857,98.660000 L 541.948052,98.660000 Z" style="stroke: rgb(93%,50%,93%); stroke-linecap: butt; stroke-width: 1;"/>
			<path d="M 541.948052,98.660000 L 549.253247,74.591429 Z" style="stroke: rgb(93%,50%,93%); stroke-linecap: butt; stroke-width: 1;"/>
			<path d="M 549.253247,74.591429 L 556.558442,70.078571 Z" style="stroke: rgb(93%,50%,93%); stroke-linecap: butt; stroke-width: 1;"/>
			<path d="M 556.558442,70.078571 L 562.402597,68.574286 Z" style="stroke: rgb(93%,50%,93%); stroke-linecap: butt; stroke-width: 1;"/>
			<polygon points="30.58442 338.6, 86.98052 338.6, 86.98052 343.46, 30.58442 343.46" style="stroke: rgb(85%,43%,57%); stroke-linecap: butt; stroke-width: 1; fill: rgb(85%,43%,57%);"/>
			<polygon points="30.58442 338.6, 36.42857 338.6, 36.42857 343.46, 30.58442 343.46" style="stroke: rgb(100%,0%,0%); stroke-linecap: butt; stroke-width: 1; fill: rgb(100%,0%,0%);"/>
			<polygon points="80.84416 338.6, 86.98052 338.6, 86.98052 343.46, 80.84416 343.46" style="stroke: rgb(100%,0%,0%); stroke-linecap: butt; stroke-width: 1; fill: rgb(100%,0%,0%);"/>
			<polygon points="40.81169 333.74, 95.45455 333.74, 95.45455 338.6, 40.81169 338.6" style="stroke: rgb(85%,43%,57%); stroke-linecap: butt; stroke-width: 1; fill: rgb(85%,43%,57%);"/>
			<polygon points="40.81169 333.74, 46.94805 333.74, 46.94805 338.6, 40.81169 338.6" style="stroke: rgb(100%,0%,0%); stroke-linecap: butt; stroke-width: 1; fill: rgb(100%,0%,0%);"/>
			<polygon points="89.9026 333.74, 95.45455 333.74, 95.45455 338.6, 89.9026 338.6" style="stroke: rgb(100%,0%,0%); stroke-linecap: butt; stroke-width: 1; fill: rgb(100%,0%,0%);"/>
			<polygon points="87.27273 338.6, 143.6688 338.6, 143.6688 343.46, 87.27273 343.46" style="stroke: rgb(85%,43%,57%); stroke-linecap: butt; stroke-width: 1; fill: rgb(85%,43%,57%);"/>
			<polygon points="87.27273 338.6, 92.82468 338.6, 92.82468 343.46, 87.27273 343.46" style="stroke: rgb(100%,0%,0%); stroke-linecap: butt; stroke-width: 1; fill: rgb(100%,0%,0%);"/>
			<polygon points="137.5325 338.6, 143.6688 338.6, 143.6688 343.46, 137.5325 343.46" style="stroke: rgb(100%,0%,0%); stroke-linecap: butt; stroke-width: 1; fill: rgb(100%,0%,0%);"/>
			<polygon points="99.25325 333.74, 157.4026 333.74, 157.4026 338.6, 99.25325 338.6" style="stroke: rgb(85%,43%,57%); stroke-linecap: butt; stroke-width: 1; fill: rgb(85%,43%,57%);"/>
			<polygon points="99.25325 333.74, 105.6818 333.74, 105.6818 338.6, 99.25325 338.6" style="stroke: rgb(100%,0%,0%); stroke-linecap: butt; stroke-width: 1; fill: rgb(100%,0%,0%);"/>
			<polygon points="151.8506 333.74, 157.4026 333.74, 157.4026 338.6, 151.8506 338.6" style="stroke: rgb(100%,0%,0%); stroke-linecap: butt; stroke-width: 1; fill: rgb(100%,0%,0%);"/>
			<polygon points="155.6494 338.6, 211.7532 338.6, 211.7532 343.46, 155.6494 343.46" style="stroke: rgb(85%,43%,57%); stroke-linecap: butt; stroke-width: 1; fill: rgb(85%,43%,57%);"/>
			<polygon points="155.6494 338.6, 161.7857 338.6, 161.7857 343.46, 155.6494 343.46" style="stroke: rgb(100%,0%,0%); stroke-linecap: butt; stroke-width: 1; fill: rgb(100%,0%,0%);"/>
			<polygon points="204.1558 338.6, 211.7532 338.6, 211.7532 343.46, 204.1558 343.46" style="stroke: rgb(100%,0%,0%); stroke-linecap: butt; stroke-width: 1; fill: rgb(100%,0%,0%);"/>
			<polygon points="171.1364 333.74, 226.9481 333.74, 226.9481 338.6, 171.1364 338.6" style="stroke: rgb(85%,43%,57%); stroke-linecap: butt; stroke-width: 1; fill: rgb(85%,43%,57%);"/>
			<polygon points="171.1364 333.74, 177.2727 333.74, 177.2727 338.6, 171.1364 338.6" style="stroke: rgb(100%,0%,0%); stroke-linecap: butt; stroke-width: 1; fill: rgb(100%,0%,0%);"/>
			<polygon points="220.2273 333.74, 226.9481 333.74, 226.9481 338.6, 220.2273 338.6" style="stroke: rgb(100%,0%,0%); stroke-linecap: butt; stroke-width: 1; fill: rgb(100%,0%,0%);"/>
			<polygon points="238.0519 338.6, 295.3247 338.6, 295.3247 343.46, 238.0519 343.46" style="stroke: rgb(85%,43%,57%); stroke-linecap: butt; stroke-width: 1; fill: rgb(85%,43%,57%);"/>
			<polygon points="238.0519 338.6, 245.6494 338.6, 245.6494 343.46, 238.0519 343.46" style="stroke: rgb(100%,0%,0%); stroke-linecap: butt; stroke-width: 1; fill: rgb(100%,0%,0%);"/>
			<polygon points="288.8961 338.6, 295.3247 338.6, 295.3247 343.46, 288.8961 343.46" style="stroke: rgb(100%,0%,0%); stroke-linecap: butt; stroke-width: 1; fill: rgb(100%,0%,0%);"/>
			<polygon points="412.7922 333.74, 468.3117 333.74, 468.3117 338.6, 412.7922 338.6" style="stroke: rgb(85%,43%,57%); stroke-linecap: butt; stroke-width: 1; fill: rgb(85%,43%,57%);"/>
			<polygon points="412.7922 333.74, 419.2208 333.74, 419.2208 338.6, 412.7922 338.6" style="stroke: rgb(100%,0%,0%); stroke-linecap: butt; stroke-width: 1; fill: rgb(100%,0%,0%);"/>
			<polygon points="462.1753 333.74, 468.3117 333.74, 468.3117 338.6, 462.1753 338.6" style="stroke: rgb(100%,0%,0%); stroke-linecap: butt; stroke-width: 1; fill: rgb(100%,0%,0%);"/>
			<polygon points="461.2987 338.6, 517.4026 338.6, 517.4026 343.46, 461.2987 343.46" style="stroke: rgb(85%,43%,57%); stroke-linecap: butt; stroke-width: 1; fill: rgb(85%,43%,57%);"/>
			<polygon points="461.2987 338.6, 467.4351 338.6, 467.4351 343.46, 461.2987 343.46" style="stroke: rgb(100%,0%,0%); stroke-linecap: butt; stroke-width: 1; fill: rgb(100%,0%,0%);"/>
			<polygon points="510.974 338.6, 517.4026 338.6, 517.4026 343.46, 510.974 343.46" style="stroke: rgb(100%,0%,0%); stroke-linecap: butt; stroke-width: 1; fill: rgb(100%,0%,0%);"/>
			<polygon points="480.8766 333.74, 537.2727 333.74, 537.2727 338.6, 480.8766 338.6" style="stroke: rgb(85%,43%,57%); stroke-linecap: butt; stroke-width: 1; fill: rgb(85%,43%,57%);"/>
			<polygon points="480.8766 333.74, 487.013 333.74, 487.013 338.6, 480.8766 338.6" style="stroke: rgb(100%,0%,0%); stroke-linecap: butt; stroke-width: 1; fill: rgb(100%,0%,0%);"/>
			<polygon points="530.8442 333.74, 537.2727 333.74, 537.2727 338.6, 530.8442 338.6" style="stroke: rgb(100%,0%,0%); stroke-linecap: butt; stroke-width: 1; fill: rgb(100%,0%,0%);"/>
			<polygon points="523.2468 338.6, 570 338.6, 570 343.46, 523.2468 343.46" style="stroke: rgb(85%,43%,57%); stroke-linecap: butt; stroke-width: 1; fill: rgb(85%,43%,57%);"/>
			<polygon points="30 158.6, 37.88961 158.6, 37.88961 163.46, 30 163.46" style="stroke: rgb(85%,43%,57%); stroke-linecap: butt; stroke-width: 1; fill: rgb(85%,43%,57%);"/>
			<polygon points="523.2468 338.6, 529.0909 338.6, 529.0909 343.46, 523.2468 343.46" style="stroke: rgb(100%,0%,0%); stroke-linecap: butt; stroke-width: 1; fill: rgb(100%,0%,0%);"/>
			<polygon points="31.75325 158.6, 37.88961 158.6, 37.88961 163.46, 31.75325 163.46" style="stroke: rgb(100%,0%,0%); stroke-linecap: butt; stroke-width: 1; fill: rgb(100%,0%,0%);"/>
			<polygon points="546.039 333.74, 570 333.74, 570 338.6, 546.039 338.6" style="stroke: rgb(85%,43%,57%); stroke-linecap: butt; stroke-width: 1; fill: rgb(85%,43%,57%);"/>
			<polygon points="30 153.74, 60.97403 153.74, 60.97403 158.6, 30 158.6" style="stroke: rgb(85%,43%,57%); stroke-linecap: butt; stroke-width: 1; fill: rgb(85%,43%,57%);"/>
			<polygon points="546.039 333.74, 552.1753 333.74, 552.1753 338.6, 546.039 338.6" style="stroke: rgb(100%,0%,0%); stroke-linecap: butt; stroke-width: 1; fill: rgb(100%,0%,0%);"/>
			<polygon points="54.83766 153.74, 60.97403 153.74, 60.97403 158.6, 54.83766 158.6" style="stroke: rgb(100%,0%,0%); stroke-linecap: butt; stroke-width: 1; fill: rgb(100%,0%,0%);"/>
			<polygon points="57.46753 158.6, 114.4481 158.6, 114.4481 163.46, 57.46753 163.46" style="stroke: rgb(85%,43%,57%); stroke-linecap: butt; stroke-width: 1; fill: rgb(85%,43%,57%);"/>
			<polygon points="57.46753 158.6, 63.8961 158.6, 63.8961 163.46, 57.46753 163.46" style="stroke: rgb(100%,0%,0%); stroke-linecap: butt; stroke-width: 1; fill: rgb(100%,0%,0%);"/>
			<polygon points="108.3117 158.6, 114.4481 158.6, 114.4481 163.46, 108.3117 163.46" style="stroke: rgb(100%,0%,0%); stroke-linecap: butt; stroke-width: 1; fill: rgb(100%,0%,0%);"/>
			<polygon points="73.24675 153.74, 130.8117 153.74, 130.8117 158.6, 73.24675 158.6" style="stroke: rgb(85%,43%,57%); stroke-linecap: butt; stroke-width: 1; fill: rgb(85%,43%,57%);"/>
			<polygon points="73.24675 153.74, 78.7987 153.74, 78.7987 158.6, 73.24675 158.6" style="stroke: rgb(100%,0%,0%); stroke-linecap: butt; stroke-width: 1; fill: rgb(100%,0%,0%);"/>
			<polygon points="123.2143 153.74, 130.8117 153.74, 130.8117 158.6, 123.2143 158.6" style="stroke: rgb(100%,0%,0%); stroke-linecap: butt; stroke-width: 1; fill: rgb(100%,0%,0%);"/>
			<polygon points="115.0325 158.6, 171.7208 158.6, 171.7208 163.46, 115.0325 163.46" style="stroke: rgb(85%,43%,57%); stroke-linecap: butt; stroke-width: 1; fill: rgb(85%,43%,57%);"/>
			<polygon points="115.0325 158.6, 121.7532 158.6, 121.7532 163.46, 115.0325 163.46" style="stroke: rgb(100%,0%,0%); stroke-linecap: butt; stroke-width: 1; fill: rgb(100%,0%,0%);"/>
			<polygon points="165.5844 158.6, 171.7208 158.6, 171.7208 163.46, 165.5844 163.46" style="stroke: rgb(100%,0%,0%); stroke-linecap: butt; stroke-width: 1; fill: rgb(100%,0%,0%);"/>
			<polygon points="165.2922 153.74, 221.1039 153.74, 221.1039 158.6, 165.2922 158.6" style="stroke: rgb(85%,43%,57%); stroke-linecap: butt; stroke-width: 1; fill: rgb(85%,43%,57%);"/>
			<polygon points="165.2922 153.74, 171.4286 153.74, 171.4286 158.6, 165.2922 158.6" style="stroke: rgb(100%,0%,0%); stroke-linecap: butt; stroke-width: 1; fill: rgb(100%,0%,0%);"/>
			<polygon points="214.9675 153.74, 221.1039 153.74, 221.1039 158.6, 214.9675 158.6" style="stroke: rgb(100%,0%,0%); stroke-linecap: butt; stroke-width: 1; fill: rgb(100%,0%,0%);"/>
			<polygon points="174.6429 158.6, 231.6234 158.6, 231.6234 163.46, 174.6429 163.46" style="stroke: rgb(85%,43%,57%); stroke-linecap: butt; stroke-width: 1; fill: rgb(85%,43%,57%);"/>
			<polygon points="174.6429 158.6, 181.6558 158.6, 181.6558 163.46, 174.6429 163.46" style="stroke: rgb(100%,0%,0%); stroke-linecap: butt; stroke-width: 1; fill: rgb(100%,0%,0%);"/>
			<polygon points="224.3182 158.6, 231.6234 158.6, 231.6234 163.46, 224.3182 163.46" style="stroke: rgb(100%,0%,0%); stroke-linecap: butt; stroke-width: 1; fill: rgb(100%,0%,0%);"/>
			<polygon points="224.6104 153.74, 281.2987 153.74, 281.2987 158.6, 224.6104 158.6" style="stroke: rgb(85%,43%,57%); stroke-linecap: butt; stroke-width: 1; fill: rgb(85%,43%,57%);"/>
			<polygon points="224.6104 153.74, 232.2078 153.74, 232.2078 158.6, 224.6104 158.6" style="stroke: rgb(100%,0%,0%); stroke-linecap: butt; stroke-width: 1; fill: rgb(100%,0%,0%);"/>
			<polygon points="275.1623 153.74, 281.2987 153.74, 281.2987 158.6, 275.1623 158.6" style="stroke: rgb(100%,0%,0%); stroke-linecap: butt; stroke-width: 1; fill: rgb(100%,0%,0%);"/>
			<polygon points="277.5 158.6, 333.3117 158.6, 333.3117 163.46, 277.5 163.46" style="stroke: rgb(85%,43%,57%); stroke-linecap: butt; stroke-width: 1; fill: rgb(85%,43%,57%);"/>
			<polygon points="277.5 158.6, 283.6364 158.6, 283.6364 163.46, 277.5 163.46" style="stroke: rgb(100%,0%,0%); stroke-linecap: butt; stroke-width: 1; fill: rgb(100%,0%,0%);"/>
			<polygon points="327.1753 158.6, 333.3117 158.6, 333.3117 163.46, 327.1753 163.46" style="stroke: rgb(100%,0%,0%); stroke-linecap: butt; stroke-width: 1; fill: rgb(100%,0%,0%);"/>
			<polygon points="292.987 153.74, 349.9675 153.74, 349.9675 158.6, 292.987 158.6" style="stroke: rgb(85%,43%,57%); stroke-linecap: butt; stroke-width: 1; fill: rgb(85%,43%,57%);"/>
			<polygon points="292.987 153.74, 299.1234 153.74, 299.1234 158.6, 292.987 158.6" style="stroke: rgb(100%,0%,0%); stroke-linecap: butt; stroke-width: 1; fill: rgb(100%,0%,0%);"/>
			<polygon points="343.8312 153.74, 349.9675 153.74, 349.9675 158.6, 343.8312 158.6" style="stroke: rgb(100%,0%,0%); stroke-linecap: butt; stroke-width: 1; fill: rgb(100%,0%,0%);"/>
			<polygon points="341.2013 158.6, 398.1818 158.6, 398.1818 163.46, 341.2013 163.46" style="stroke: rgb(85%,43%,57%); stroke-linecap: butt; stroke-width: 1; fill: rgb(85%,43%,57%);"/>
			<polygon points="341.2013 158.6, 348.2143 158.6, 348.2143 163.46, 341.2013 163.46" style="stroke: rgb(100%,0%,0%); stroke-linecap: butt; stroke-width: 1; fill: rgb(100%,0%,0%);"/>
			<polygon points="391.461 158.6, 398.1818 158.6, 398.1818 163.46, 391.461 163.46" style="stroke: rgb(100%,0%,0%); stroke-linecap: butt; stroke-width: 1; fill: rgb(100%,0%,0%);"/>
			<polygon points="357.8571 153.74, 414.5455 153.74, 414.5455 158.6, 357.8571 158.6" style="stroke: rgb(85%,43%,57%); stroke-linecap: butt; stroke-width: 1; fill: rgb(85%,43%,57%);"/>
			<polygon points="357.8571 153.74, 363.9935 153.74, 363.9935 158.6, 357.8571 158.6" style="stroke: rgb(100%,0%,0%); stroke-linecap: butt; stroke-width: 1; fill: rgb(100%,0%,0%);"/>
			<polygon points="407.5325 153.74, 414.5455 153.74, 414.5455 158.6, 407.5325 158.6" style="stroke: rgb(100%,0%,0%); stroke-linecap: butt; stroke-width: 1; fill: rgb(100%,0%,0%);"/>
			<polygon points="410.1623 158.6, 464.2208 158.6, 464.2208 163.46, 410.1623 163.46" style="stroke: rgb(85%,43%,57%); stroke-linecap: butt; stroke-width: 1; fill: rgb(85%,43%,57%);"/>
			<polygon points="410.1623 158.6, 416.2987 158.6, 416.2987 163.46, 410.1623 163.46" style="stroke: rgb(100%,0%,0%); stroke-linecap: butt; stroke-width: 1; fill: rgb(100%,0%,0%);"/>
			<polygon points="458.3766 158.6, 464.2208 158.6, 464.2208 163.46, 458.3766 163.46" style="stroke: rgb(100%,0%,0%); stroke-linecap: butt; stroke-width: 1; fill: rgb(100%,0%,0%);"/>
			<polygon points="417.7597 153.74, 473.5714 153.74, 473.5714 158.6, 417.7597 158.6" style="stroke: rgb(85%,43%,57%); stroke-linecap: butt; stroke-width: 1; fill: rgb(85%,43%,57%);"/>
			<polygon points="417.7597 153.74, 423.8961 153.74, 423.8961 158.6, 417.7597 158.6" style="stroke: rgb(100%,0%,0%); stroke-linecap: butt; stroke-width: 1; fill: rgb(100%,0%,0%);"/>
			<polygon points="467.4351 153.74, 473.5714 153.74, 473.5714 158.6, 467.4351 158.6" style="stroke: rgb(100%,0%,0%); stroke-linecap: butt; stroke-width: 1; fill: rgb(100%,0%,0%);"/>
			<polygon points="466.5584 158.6, 521.4935 158.6, 521.4935 163.46, 466.5584 163.46" style="stroke: rgb(85%,43%,57%); stroke-linecap: butt; stroke-width: 1; fill: rgb(85%,43%,57%);"/>
			<polygon points="466.5584 158.6, 472.6948 158.6, 472.6948 163.46, 466.5584 163.46" style="stroke: rgb(100%,0%,0%); stroke-linecap: butt; stroke-width: 1; fill: rgb(100%,0%,0%);"/>
			<polygon points="515.3571 158.6, 521.4935 158.6, 521.4935 163.46, 515.3571 163.46" style="stroke: rgb(100%,0%,0%); stroke-linecap: butt; stroke-width: 1; fill: rgb(100%,0%,0%);"/>
			<polygon points="498.4091 153.74, 554.2208 153.74, 554.2208 158.6, 498.4091 158.6" style="stroke: rgb(85%,43%,57%); stroke-linecap: butt; stroke-width: 1; fill: rgb(85%,43%,57%);"/>
			<polygon points="498.4091 153.74, 504.2532 153.74, 504.2532 158.6, 498.4091 158.6" style="stroke: rgb(100%,0%,0%); stroke-linecap: butt; stroke-width: 1; fill: rgb(100%,0%,0%);"/>
			<polygon points="547.2078 153.74, 554.2208 153.74, 554.2208 158.6, 547.2078 158.6" style="stroke: rgb(100%,0%,0%); stroke-linecap: butt; stroke-width: 1; fill: rgb(100%,0%,0%);"/>
			<path d="M 30.000000,257.600000 L 570.000000,257.600000 Z" style="stroke: rgb(0%,0%,0%); stroke-linecap: butt; stroke-width: 1;"/>
			<path d="M 30.000000,236.540000 L 30.000000,278.660000 Z" style="stroke: rgb(0%,0%,0%); stroke-linecap: butt; stroke-width: 1;"/>
			<path d="M 569.707792,56.540000 L 569.707792,98.660000 Z" style="stroke: rgb(0%,0%,0%); stroke-linecap: butt; stroke-width: 1;"/>
			<path d="M 30.000000,77.600000 L 569.707792,77.600000 Z" style="stroke: rgb(0%,0%,0%); stroke-linecap: butt; stroke-width: 1;"/>
			<path d="M 30.000000,56.540000 L 30.000000,98.660000 Z" style="stroke: rgb(0%,0%,0%); stroke-linecap: butt; stroke-width: 1;"/>
			<path d="M 322.207792,257.600000 L 322.207792,268.130000 Z" style="stroke: rgb(0%,0%,0%); stroke-linecap: butt; stroke-width: 1;"/>
			<path d="M 74.415584,77.600000 L 74.415584,88.130000 Z" style="stroke: rgb(0%,0%,0%); stroke-linecap: butt; stroke-width: 1;"/>
			<path d="M 366.623377,77.600000 L 366.623377,88.130000 Z" style="stroke: rgb(0%,0%,0%); stroke-linecap: butt; stroke-width: 1;"/>
			<path d="M 30.000000,338.600000 L 570.000000,338.600000 Z" style="stroke: rgb(0%,0%,0%); stroke-linecap: butt; stroke-width: 1;"/>
			<path d="M 30.000000,333.740000 L 30.000000,343.460000 Z" style="stroke: rgb(0%,0%,0%); stroke-linecap: butt; stroke-width: 1;"/>
			<path d="M 569.707792,153.740000 L 569.707792,163.460000 Z" style="stroke: rgb(0%,0%,0%); stroke-linecap: butt; stroke-width: 1;"/>
			<path d="M 30.000000,158.600000 L 569.707792,158.600000 Z" style="stroke: rgb(0%,0%,0%); stroke-linecap: butt; stroke-width: 1;"/>
			<path d="M 30.000000,153.740000 L 30.000000,163.460000 Z" style="stroke: rgb(0%,0%,0%); stroke-linecap: butt; stroke-width: 1;"/>
			<g transform=" matrix(0.707107,0.707107,-0.707107,0.707107,322.207792,268.130000)">
				<text x="0" y="0" style="font-family: Helvetica; font-size: 6px; fill: rgb(0%,0%,0%);" transform="translate(0,0) scale(1,-1)">1000</text>
			</g>
			<g transform=" matrix(0.707107,0.707107,-0.707107,0.707107,74.415584,88.130000)">
				<text x="0" y="0" style="font-family: Helvetica; font-size: 6px; fill: rgb(0%,0%,0%);" transform="translate(0,0) scale(1,-1)">2000</text>
			</g>
			<g transform=" matrix(0.707107,0.707107,-0.707107,0.707107,366.623377,88.130000)">
				<text x="0" y="0" style="font-family: Helvetica; font-size: 6px; fill: rgb(0%,0%,0%);" transform="translate(0,0) scale(1,-1)">3000</text>
			</g>
			<g transform=" matrix(0.707107,0.707107,-0.707107,0.707107,30.000000,236.540000)">
				<text x="0" y="0" style="font-family: Helvetica; font-size: 6px; fill: rgb(0%,0%,0%);" transform="translate(0,0) scale(1,-1)">0.100</text>
			</g>
			<g transform=" matrix(0.707107,0.707107,-0.707107,0.707107,30.000000,278.660000)">
				<text x="0" y="0" style="font-family: Helvetica; font-size: 6px; fill: rgb(0%,0%,0%);" transform="translate(0,0) scale(1,-1)">0.660</text>
			</g>
			<g transform=" matrix(0.707107,0.707107,-0.707107,0.707107,30.000000,257.600000)">
				<text x="0" y="0" style="font-family: Helvetica; font-size: 6px; fill: rgb(0%,0%,0%);" transform="translate(0,0) scale(1,-1)"></text>
			</g>
			<g transform=" matrix(0.707107,0.707107,-0.707107,0.707107,30.000000,56.540000)">
				<text x="0" y="0" style="font-family: Helvetica; font-size: 6px; fill: rgb(0%,0%,0%);" transform="translate(0,0) scale(1,-1)">0.100</text>
			</g>
			<g transform=" matrix(0.707107,0.707107,-0.707107,0.707107,30.000000,98.660000)">
				<text x="0" y="0" style="font-family: Helvetica; font-size: 6px; fill: rgb(0%,0%,0%);" transform="translate(0,0) scale(1,-1)">0.660</text>
			</g>
			<g transform=" matrix(0.707107,0.707107,-0.707107,0.707107,30.000000,77.600000)">
				<text x="0" y="0" style="font-family: Helvetica; font-size: 6px; fill: rgb(0%,0%,0%);" transform="translate(0,0) scale(1,-1)"></text>
			</g>
			<g transform=" matrix(1.000000,0.000000,-0.000000,1.000000,58.782468,343.460000)">
				<text x="0" y="0" style="font-family: Helvetica; font-size: 6px; fill: rgb(0%,0%,0%);" transform="translate(0,0) scale(1,-1)">1</text>
			</g>
			<g transform=" matrix(1.000000,0.000000,-0.000000,1.000000,68.133117,333.740000)">
				<text x="0" y="0" style="font-family: Helvetica; font-size: 6px; fill: rgb(0%,0%,0%);" transform="translate(0,0) scale(1,-1)">2</text>
			</g>
			<g transform=" matrix(1.000000,0.000000,-0.000000,1.000000,115.470779,343.460000)">
				<text x="0" y="0" style="font-family: Helvetica; font-size: 6px; fill: rgb(0%,0%,0%);" transform="translate(0,0) scale(1,-1)">3</text>
			</g>
			<g transform=" matrix(1.000000,0.000000,-0.000000,1.000000,128.327922,333.740000)">
				<text x="0" y="0" style="font-family: Helvetica; font-size: 6px; fill: rgb(0%,0%,0%);" transform="translate(0,0) scale(1,-1)">4</text>
			</g>
			<g transform=" matrix(1.000000,0.000000,-0.000000,1.000000,183.701299,343.460000)">
				<text x="0" y="0" style="font-family: Helvetica; font-size: 6px; fill: rgb(0%,0%,0%);" transform="translate(0,0) scale(1,-1)">5</text>
			</g>
			<g transform=" matrix(1.000000,0.000000,-0.000000,1.000000,199.042208,333.740000)">
				<text x="0" y="0" style="font-family: Helvetica; font-size: 6px; fill: rgb(0%,0%,0%);" transform="translate(0,0) scale(1,-1)">6</text>
			</g>
			<g transform=" matrix(1.000000,0.000000,-0.000000,1.000000,266.688312,343.460000)">
				<text x="0" y="0" style="font-family: Helvetica; font-size: 6px; fill: rgb(0%,0%,0%);" transform="translate(0,0) scale(1,-1)">7</text>
			</g>
			<g transform=" matrix(1.000000,0.000000,-0.000000,1.000000,440.551948,333.740000)">
				<text x="0" y="0" style="font-family: Helvetica; font-size: 6px; fill: rgb(0%,0%,0%);" transform="translate(0,0) scale(1,-1)">8</text>
			</g>
			<g transform=" matrix(1.000000,0.000000,-0.000000,1.000000,489.350649,343.460000)">
				<text x="0" y="0" style="font-family: Helvetica; font-size: 6px; fill: rgb(0%,0%,0%);" transform="translate(0,0) scale(1,-1)">9</text>
			</g>
			<g transform=" matrix(1.000000,0.000000,-0.000000,1.000000,509.074675,333.740000)">
				<text x="0" y="0" style="font-family: Helvetica; font-size: 6px; fill: rgb(0%,0%,0%);" transform="translate(0,0) scale(1,-1)">10</text>
			</g>
			<g transform=" matrix(1.000000,0.000000,-0.000000,1.000000,546.623377,343.460000)">
				<text x="0" y="0" style="font-family: Helvetica; font-size: 6px; fill: rgb(0%,0%,0%);" transform="translate(0,0) scale(1,-1)">11</text>
			</g>
			<g transform=" matrix(1.000000,0.000000,-0.000000,1.000000,33.944805,163.460000)">
				<text x="0" y="0" style="font-family: Helvetica; font-size: 6px; fill: rgb(0%,0%,0%);" transform="translate(0,0) scale(1,-1)">11</text>
			</g>
			<g transform=" matrix(1.000000,0.000000,-0.000000,1.000000,558.019481,333.740000)">
				<text x="0" y="0" style="font-family: Helvetica; font-size: 6px; fill: rgb(0%,0%,0%);" transform="translate(0,0) scale(1,-1)">12</text>
			</g>
			<g transform=" matrix(1.000000,0.000000,-0.000000,1.000000,45.487013,153.740000)">
				<text x="0" y="0" style="font-family: Helvetica; font-size: 6px; fill: rgb(0%,0%,0%);" transform="translate(0,0) scale(1,-1)">12</text>
			</g>
			<g transform=" matrix(1.000000,0.000000,-0.000000,1.000000,85.957792,163.460000)">
				<text x="0" y="0" style="font-family: Helvetica; font-size: 6px; fill: rgb(0%,0%,0%);" transform="translate(0,0) scale(1,-1)">13</text>
			</g>
			<g transform=" matrix(1.000000,0.000000,-0.000000,1.000000,102.029221,153.740000)">
				<text x="0" y="0" style="font-family: Helvetica; font-size: 6px; fill: rgb(0%,0%,0%);" transform="translate(0,0) scale(1,-1)">14</text>
			</g>
			<g transform=" matrix(1.000000,0.000000,-0.000000,1.000000,143.376623,163.460000)">
				<text x="0" y="0" style="font-family: Helvetica; font-size: 6px; fill: rgb(0%,0%,0%);" transform="translate(0,0) scale(1,-1)">15</text>
			</g>
			<g transform=" matrix(1.000000,0.000000,-0.000000,1.000000,193.198052,153.740000)">
				<text x="0" y="0" style="font-family: Helvetica; font-size: 6px; fill: rgb(0%,0%,0%);" transform="translate(0,0) scale(1,-1)">16</text>
			</g>
			<g transform=" matrix(1.000000,0.000000,-0.000000,1.000000,203.133117,163.460000)">
				<text x="0" y="0" style="font-family: Helvetica; font-size: 6px; fill: rgb(0%,0%,0%);" transform="translate(0,0) scale(1,-1)">17</text>
			</g>
			<g transform=" matrix(1.000000,0.000000,-0.000000,1.000000,252.954545,153.740000)">
				<text x="0" y="0" style="font-family: Helvetica; font-size: 6px; fill: rgb(0%,0%,0%);" transform="translate(0,0) scale(1,-1)">18</text>
			</g>
			<g transform=" matrix(1.000000,0.000000,-0.000000,1.000000,305.405844,163.460000)">
				<text x="0" y="0" style="font-family: Helvetica; font-size: 6px; fill: rgb(0%,0%,0%);" transform="translate(0,0) scale(1,-1)">19</text>
			</g>
			<g transform=" matrix(1.000000,0.000000,-0.000000,1.000000,321.477273,153.740000)">
				<text x="0" y="0" style="font-family: Helvetica; font-size: 6px; fill: rgb(0%,0%,0%);" transform="translate(0,0) scale(1,-1)">20</text>
			</g>
			<g transform=" matrix(1.000000,0.000000,-0.000000,1.000000,369.691558,163.460000)">
				<text x="0" y="0" style="font-family: Helvetica; font-size: 6px; fill: rgb(0%,0%,0%);" transform="translate(0,0) scale(1,-1)">21</text>
			</g>
			<g transform=" matrix(1.000000,0.000000,-0.000000,1.000000,386.201299,153.740000)">
				<text x="0" y="0" style="font-family: Helvetica; font-size: 6px; fill: rgb(0%,0%,0%);" transform="translate(0,0) scale(1,-1)">22</text>
			</g>
			<g transform=" matrix(1.000000,0.000000,-0.000000,1.000000,437.191558,163.460000)">
				<text x="0" y="0" style="font-family: Helvetica; font-size: 6px; fill: rgb(0%,0%,0%);" transform="translate(0,0) scale(1,-1)">23</text>
			</g>
			<g transform=" matrix(1.000000,0.000000,-0.000000,1.000000,445.665584,153.740000)">
				<text x="0" y="0" style="font-family: Helvetica; font-size: 6px; fill: rgb(0%,0%,0%);" transform="translate(0,0) scale(1,-1)">24</text>
			</g>
			<g transform=" matrix(1.000000,0.000000,-0.000000,1.000000,494.025974,163.460000)">
				<text x="0" y="0" style="font-family: Helvetica; font-size: 6px; fill: rgb(0%,0%,0%);" transform="translate(0,0) scale(1,-1)">25</text>
			</g>
			<g transform=" matrix(1.000000,0.000000,-0.000000,1.000000,526.314935,153.740000)">
				<text x="0" y="0" style="font-family: Helvetica; font-size: 6px; fill: rgb(0%,0%,0%);" transform="translate(0,0) scale(1,-1)">26</text>
			</g>
		</g>
	</g>
</svg>
