<?xml version="1.0" encoding="utf-8"?>
<!DOCTYPE svg
  PUBLIC '-//W3C//DTD SVG 1.0//EN'
  'http://www.w3.org/TR/2001/REC-SVG-20010904/DTD/svg10.dtd'>
<svg width="600" height="400" preserveAspectRatio="xMinYMin meet" viewBox="0 0 600 400" xmlns="http://www.w3.org/2000/svg" version="1.0" fill-rule="evenodd" xmlns:xlink="http://www.w3.org/1999/xlink">
	<title>...</title>
	<desc>...</desc>
	<clipPath id="clip">
		<rect x="0" y="0" width="600" height="400"/>
	</clipPath>
	<g id="group" transform="scale(1,-1) translate(0,-400)" style="clip-path: url(#clip)">
		<g transform="">
			<path d="M 38.905013,252.057895 L 38.905013,252.057895 Z" style="stroke: rgb(93%,50%,93%); stroke-linecap: butt; stroke-width: 1;"/>
			<path d="M 38.905013,252.057895 L 47.810026,260.925263 Z" style="stroke: rgb(93%,50%,93%); stroke-linecap: butt; stroke-width: 1;"/>
			<path d="M 47.810026,260.925263 L 56.715040,260.925263 Z" style="stroke: rgb(93%,50%,93%); stroke-linecap: butt; stroke-width: 1;"/>
			<path d="M 56.715040,260.925263 L 65.620053,252.057895 Z" style="stroke: rgb(93%,50%,93%); stroke-linecap: butt; stroke-width: 1;"/>
			<path d="M 65.620053,252.057895 L 74.525066,256.491579 Z" style="stroke: rgb(93%,50%,93%); stroke-linecap: butt; stroke-width: 1;"/>
			<path d="M 74.525066,256.491579 L 83.430079,258.708421 Z" style="stroke: rgb(93%,50%,93%); stroke-linecap: butt; stroke-width: 1;"/>
			<path d="M 83.430079,258.708421 L 92.335092,256.491579 Z" style="stroke: rgb(93%,50%,93%); stroke-linecap: butt; stroke-width: 1;"/>
			<path d="M 92.335092,256.491579 L 101.240106,258.708421 Z" style="stroke: rgb(93%,50%,93%); stroke-linecap: butt; stroke-width: 1;"/>
			<path d="M 101.240106,258.708421 L 110.145119,256.491579 Z" style="stroke: rgb(93%,50%,93%); stroke-linecap: butt; stroke-width: 1;"/>
			<path d="M 110.145119,256.491579 L 119.050132,267.575789 Z" style="stroke: rgb(93%,50%,93%); stroke-linecap: butt; stroke-width: 1;"/>
			<path d="M 119.050132,267.575789 L 127.955145,276.443158 Z" style="stroke: rgb(93%,50%,93%); stroke-linecap: butt; stroke-width: 1;"/>
			<path d="M 127.955145,276.443158 L 136.860158,263.142105 Z" style="stroke: rgb(93%,50%,93%); stroke-linecap: butt; stroke-width: 1;"/>
			<path d="M 136.860158,263.142105 L 145.765172,247.624211 Z" style="stroke: rgb(93%,50%,93%); stroke-linecap: butt; stroke-width: 1;"/>
			<path d="M 145.765172,247.624211 L 154.670185,236.540000 Z" style="stroke: rgb(93%,50%,93%); stroke-linecap: butt; stroke-width: 1;"/>
			<path d="M 154.670185,236.540000 L 163.575198,249.841053 Z" style="stroke: rgb(93%,50%,93%); stroke-linecap: butt; stroke-width: 1;"/>
			<path d="M 163.575198,249.841053 L 172.480211,260.925263 Z" style="stroke: rgb(93%,50%,93%); stroke-linecap: butt; stroke-width: 1;"/>
			<path d="M 172.480211,260.925263 L 181.385224,260.925263 Z" style="stroke: rgb(93%,50%,93%); stroke-linecap: butt; stroke-width: 1;"/>
			<path d="M 181.385224,260.925263 L 190.290237,272.009474 Z" style="stroke: rgb(93%,50%,93%); stroke-linecap: butt; stroke-width: 1;"/>
			<path d="M 190.290237,272.009474 L 199.195251,263.142105 Z" style="stroke: rgb(93%,50%,93%); stroke-linecap: butt; stroke-width: 1;"/>
			<path d="M 199.195251,263.142105 L 208.100264,249.841053 Z" style="stroke: rgb(93%,50%,93%); stroke-linecap: butt; stroke-width: 1;"/>
			<path d="M 208.100264,249.841053 L 217.005277,240.973684 Z" style="stroke: rgb(93%,50%,93%); stroke-linecap: butt; stroke-width: 1;"/>
			<path d="M 217.005277,240.973684 L 225.910290,243.190526 Z" style="stroke: rgb(93%,50%,93%); stroke-linecap: butt; stroke-width: 1;"/>
			<path d="M 225.910290,243.190526 L 234.815303,260.925263 Z" style="stroke: rgb(93%,50%,93%); stroke-linecap: butt; stroke-width: 1;"/>
			<path d="M 234.815303,260.925263 L 243.720317,265.358947 Z" style="stroke: rgb(93%,50%,93%); stroke-linecap: butt; stroke-width: 1;"/>
			<path d="M 243.720317,265.358947 L 252.625330,265.358947 Z" style="stroke: rgb(93%,50%,93%); stroke-linecap: butt; stroke-width: 1;"/>
			<path d="M 252.625330,265.358947 L 261.530343,263.142105 Z" style="stroke: rgb(93%,50%,93%); stroke-linecap: butt; stroke-width: 1;"/>
			<path d="M 261.530343,263.142105 L 270.435356,267.575789 Z" style="stroke: rgb(93%,50%,93%); stroke-linecap: butt; stroke-width: 1;"/>
			<path d="M 270.435356,267.575789 L 279.340369,263.142105 Z" style="stroke: rgb(93%,50%,93%); stroke-linecap: butt; stroke-width: 1;"/>
			<path d="M 279.340369,263.142105 L 288.245383,245.407368 Z" style="stroke: rgb(93%,50%,93%); stroke-linecap: butt; stroke-width: 1;"/>
			<path d="M 288.245383,245.407368 L 297.150396,249.841053 Z" style="stroke: rgb(93%,50%,93%); stroke-linecap: butt; stroke-width: 1;"/>
			<path d="M 297.150396,249.841053 L 306.055409,269.792632 Z" style="stroke: rgb(93%,50%,93%); stroke-linecap: butt; stroke-width: 1;"/>
			<path d="M 306.055409,269.792632 L 314.960422,274.226316 Z" style="stroke: rgb(93%,50%,93%); stroke-linecap: butt; stroke-width: 1;"/>
			<path d="M 314.960422,274.226316 L 323.865435,265.358947 Z" style="stroke: rgb(93%,50%,93%); stroke-linecap: butt; stroke-width: 1;"/>
			<path d="M 323.865435,265.358947 L 332.770449,265.358947 Z" style="stroke: rgb(93%,50%,93%); stroke-linecap: butt; stroke-width: 1;"/>
			<path d="M 332.770449,265.358947 L 341.675462,258.708421 Z" style="stroke: rgb(93%,50%,93%); stroke-linecap: butt; stroke-width: 1;"/>
			<path d="M 341.675462,258.708421 L 350.580475,247.624211 Z" style="stroke: rgb(93%,50%,93%); stroke-linecap: butt; stroke-width: 1;"/>
			<path d="M 350.580475,247.624211 L 359.485488,249.841053 Z" style="stroke: rgb(93%,50%,93%); stroke-linecap: butt; stroke-width: 1;"/>
			<path d="M 359.485488,249.841053 L 368.390501,254.274737 Z" style="stroke: rgb(93%,50%,93%); stroke-linecap: butt; stroke-width: 1;"/>
			<path d="M 368.390501,254.274737 L 377.295515,265.358947 Z" style="stroke: rgb(93%,50%,93%); stroke-linecap: butt; stroke-width: 1;"/>
			<path d="M 377.295515,265.358947 L 386.200528,263.142105 Z" style="stroke: rgb(93%,50%,93%); stroke-linecap: butt; stroke-width: 1;"/>
			<path d="M 386.200528,263.142105 L 395.105541,245.407368 Z" style="stroke: rgb(93%,50%,93%); stroke-linecap: butt; stroke-width: 1;"/>
			<path d="M 395.105541,245.407368 L 404.010554,238.756842 Z" style="stroke: rgb(93%,50%,93%); stroke-linecap: butt; stroke-width: 1;"/>
			<path d="M 404.010554,238.756842 L 412.915567,249.841053 Z" style="stroke: rgb(93%,50%,93%); stroke-linecap: butt; stroke-width: 1;"/>
			<path d="M 412.915567,249.841053 L 421.820580,258.708421 Z" style="stroke: rgb(93%,50%,93%); stroke-linecap: butt; stroke-width: 1;"/>
			<path d="M 421.820580,258.708421 L 430.725594,258.708421 Z" style="stroke: rgb(93%,50%,93%); stroke-linecap: butt; stroke-width: 1;"/>
			<path d="M 430.725594,258.708421 L 439.630607,265.358947 Z" style="stroke: rgb(93%,50%,93%); stroke-linecap: butt; stroke-width: 1;"/>
			<path d="M 439.630607,265.358947 L 448.535620,267.575789 Z" style="stroke: rgb(93%,50%,93%); stroke-linecap: butt; stroke-width: 1;"/>
			<path d="M 448.535620,267.575789 L 457.440633,267.575789 Z" style="stroke: rgb(93%,50%,93%); stroke-linecap: butt; stroke-width: 1;"/>
			<path d="M 457.440633,267.575789 L 466.345646,258.708421 Z" style="stroke: rgb(93%,50%,93%); stroke-linecap: butt; stroke-width: 1;"/>
			<path d="M 466.345646,258.708421 L 475.250660,256.491579 Z" style="stroke: rgb(93%,50%,93%); stroke-linecap: butt; stroke-width: 1;"/>
			<path d="M 475.250660,256.491579 L 484.155673,267.575789 Z" style="stroke: rgb(93%,50%,93%); stroke-linecap: butt; stroke-width: 1;"/>
			<path d="M 484.155673,267.575789 L 493.060686,265.358947 Z" style="stroke: rgb(93%,50%,93%); stroke-linecap: butt; stroke-width: 1;"/>
			<path d="M 493.060686,265.358947 L 501.965699,260.925263 Z" style="stroke: rgb(93%,50%,93%); stroke-linecap: butt; stroke-width: 1;"/>
			<path d="M 501.965699,260.925263 L 510.870712,258.708421 Z" style="stroke: rgb(93%,50%,93%); stroke-linecap: butt; stroke-width: 1;"/>
			<path d="M 510.870712,258.708421 L 519.775726,263.142105 Z" style="stroke: rgb(93%,50%,93%); stroke-linecap: butt; stroke-width: 1;"/>
			<path d="M 519.775726,263.142105 L 528.680739,258.708421 Z" style="stroke: rgb(93%,50%,93%); stroke-linecap: butt; stroke-width: 1;"/>
			<path d="M 528.680739,258.708421 L 537.585752,249.841053 Z" style="stroke: rgb(93%,50%,93%); stroke-linecap: butt; stroke-width: 1;"/>
			<path d="M 537.585752,249.841053 L 546.490765,256.491579 Z" style="stroke: rgb(93%,50%,93%); stroke-linecap: butt; stroke-width: 1;"/>
			<path d="M 546.490765,256.491579 L 555.395778,269.792632 Z" style="stroke: rgb(93%,50%,93%); stroke-linecap: butt; stroke-width: 1;"/>
			<path d="M 555.395778,269.792632 L 564.300792,278.660000 Z" style="stroke: rgb(93%,50%,93%); stroke-linecap: butt; stroke-width: 1;"/>
			<path d="M 564.300792,278.660000 L 570.000000,272.009474 Z" style="stroke: rgb(93%,50%,93%); stroke-linecap: butt; stroke-width: 1;"/>
			<path d="M 30.000000,92.009474 L 33.205805,92.009474 Z" style="stroke: rgb(93%,50%,93%); stroke-linecap: butt; stroke-width: 1;"/>
			<path d="M 33.205805,92.009474 L 42.110818,85.358947 Z" style="stroke: rgb(93%,50%,93%); stroke-linecap: butt; stroke-width: 1;"/>
			<path d="M 42.110818,85.358947 L 51.015831,87.575789 Z" style="stroke: rgb(93%,50%,93%); stroke-linecap: butt; stroke-width: 1;"/>
			<path d="M 51.015831,87.575789 L 59.920844,83.142105 Z" style="stroke: rgb(93%,50%,93%); stroke-linecap: butt; stroke-width: 1;"/>
			<path d="M 59.920844,83.142105 L 68.825858,80.925263 Z" style="stroke: rgb(93%,50%,93%); stroke-linecap: butt; stroke-width: 1;"/>
			<path d="M 68.825858,80.925263 L 77.730871,80.925263 Z" style="stroke: rgb(93%,50%,93%); stroke-linecap: butt; stroke-width: 1;"/>
			<path d="M 77.730871,80.925263 L 86.635884,76.491579 Z" style="stroke: rgb(93%,50%,93%); stroke-linecap: butt; stroke-width: 1;"/>
			<path d="M 86.635884,76.491579 L 95.540897,85.358947 Z" style="stroke: rgb(93%,50%,93%); stroke-linecap: butt; stroke-width: 1;"/>
			<path d="M 95.540897,85.358947 L 104.445910,85.358947 Z" style="stroke: rgb(93%,50%,93%); stroke-linecap: butt; stroke-width: 1;"/>
			<path d="M 104.445910,85.358947 L 113.350923,85.358947 Z" style="stroke: rgb(93%,50%,93%); stroke-linecap: butt; stroke-width: 1;"/>
			<path d="M 113.350923,85.358947 L 122.255937,98.660000 Z" style="stroke: rgb(93%,50%,93%); stroke-linecap: butt; stroke-width: 1;"/>
			<path d="M 122.255937,98.660000 L 131.160950,89.792632 Z" style="stroke: rgb(93%,50%,93%); stroke-linecap: butt; stroke-width: 1;"/>
			<path d="M 131.160950,89.792632 L 140.065963,72.057895 Z" style="stroke: rgb(93%,50%,93%); stroke-linecap: butt; stroke-width: 1;"/>
			<path d="M 140.065963,72.057895 L 148.970976,65.407368 Z" style="stroke: rgb(93%,50%,93%); stroke-linecap: butt; stroke-width: 1;"/>
			<path d="M 148.970976,65.407368 L 157.875989,72.057895 Z" style="stroke: rgb(93%,50%,93%); stroke-linecap: butt; stroke-width: 1;"/>
			<path d="M 157.875989,72.057895 L 166.781003,85.358947 Z" style="stroke: rgb(93%,50%,93%); stroke-linecap: butt; stroke-width: 1;"/>
			<path d="M 166.781003,85.358947 L 175.686016,87.575789 Z" style="stroke: rgb(93%,50%,93%); stroke-linecap: butt; stroke-width: 1;"/>
			<path d="M 175.686016,87.575789 L 184.591029,78.708421 Z" style="stroke: rgb(93%,50%,93%); stroke-linecap: butt; stroke-width: 1;"/>
			<path d="M 184.591029,78.708421 L 193.496042,72.057895 Z" style="stroke: rgb(93%,50%,93%); stroke-linecap: butt; stroke-width: 1;"/>
			<path d="M 193.496042,72.057895 L 202.401055,65.407368 Z" style="stroke: rgb(93%,50%,93%); stroke-linecap: butt; stroke-width: 1;"/>
			<path d="M 202.401055,65.407368 L 211.306069,67.624211 Z" style="stroke: rgb(93%,50%,93%); stroke-linecap: butt; stroke-width: 1;"/>
			<path d="M 211.306069,67.624211 L 220.211082,78.708421 Z" style="stroke: rgb(93%,50%,93%); stroke-linecap: butt; stroke-width: 1;"/>
			<path d="M 220.211082,78.708421 L 229.116095,87.575789 Z" style="stroke: rgb(93%,50%,93%); stroke-linecap: butt; stroke-width: 1;"/>
			<path d="M 229.116095,87.575789 L 238.021108,74.274737 Z" style="stroke: rgb(93%,50%,93%); stroke-linecap: butt; stroke-width: 1;"/>
			<path d="M 238.021108,74.274737 L 246.926121,67.624211 Z" style="stroke: rgb(93%,50%,93%); stroke-linecap: butt; stroke-width: 1;"/>
			<path d="M 246.926121,67.624211 L 255.831135,85.358947 Z" style="stroke: rgb(93%,50%,93%); stroke-linecap: butt; stroke-width: 1;"/>
			<path d="M 255.831135,85.358947 L 264.736148,89.792632 Z" style="stroke: rgb(93%,50%,93%); stroke-linecap: butt; stroke-width: 1;"/>
			<path d="M 264.736148,89.792632 L 273.641161,85.358947 Z" style="stroke: rgb(93%,50%,93%); stroke-linecap: butt; stroke-width: 1;"/>
			<path d="M 273.641161,85.358947 L 282.546174,80.925263 Z" style="stroke: rgb(93%,50%,93%); stroke-linecap: butt; stroke-width: 1;"/>
			<path d="M 282.546174,80.925263 L 291.451187,78.708421 Z" style="stroke: rgb(93%,50%,93%); stroke-linecap: butt; stroke-width: 1;"/>
			<path d="M 291.451187,78.708421 L 300.356201,80.925263 Z" style="stroke: rgb(93%,50%,93%); stroke-linecap: butt; stroke-width: 1;"/>
			<path d="M 300.356201,80.925263 L 309.261214,83.142105 Z" style="stroke: rgb(93%,50%,93%); stroke-linecap: butt; stroke-width: 1;"/>
			<path d="M 309.261214,83.142105 L 318.166227,87.575789 Z" style="stroke: rgb(93%,50%,93%); stroke-linecap: butt; stroke-width: 1;"/>
			<path d="M 318.166227,87.575789 L 327.071240,83.142105 Z" style="stroke: rgb(93%,50%,93%); stroke-linecap: butt; stroke-width: 1;"/>
			<path d="M 327.071240,83.142105 L 335.976253,67.624211 Z" style="stroke: rgb(93%,50%,93%); stroke-linecap: butt; stroke-width: 1;"/>
			<path d="M 335.976253,67.624211 L 344.881266,67.624211 Z" style="stroke: rgb(93%,50%,93%); stroke-linecap: butt; stroke-width: 1;"/>
			<path d="M 344.881266,67.624211 L 353.786280,87.575789 Z" style="stroke: rgb(93%,50%,93%); stroke-linecap: butt; stroke-width: 1;"/>
			<path d="M 353.786280,87.575789 L 362.691293,92.009474 Z" style="stroke: rgb(93%,50%,93%); stroke-linecap: butt; stroke-width: 1;"/>
			<path d="M 362.691293,92.009474 L 371.596306,87.575789 Z" style="stroke: rgb(93%,50%,93%); stroke-linecap: butt; stroke-width: 1;"/>
			<path d="M 371.596306,87.575789 L 380.501319,83.142105 Z" style="stroke: rgb(93%,50%,93%); stroke-linecap: butt; stroke-width: 1;"/>
			<path d="M 380.501319,83.142105 L 389.406332,78.708421 Z" style="stroke: rgb(93%,50%,93%); stroke-linecap: butt; stroke-width: 1;"/>
			<path d="M 389.406332,78.708421 L 398.311346,74.274737 Z" style="stroke: rgb(93%,50%,93%); stroke-linecap: butt; stroke-width: 1;"/>
			<path d="M 398.311346,74.274737 L 407.216359,72.057895 Z" style="stroke: rgb(93%,50%,93%); stroke-linecap: butt; stroke-width: 1;"/>
			<path d="M 407.216359,72.057895 L 416.121372,83.142105 Z" style="stroke: rgb(93%,50%,93%); stroke-linecap: butt; stroke-width: 1;"/>
			<path d="M 416.121372,83.142105 L 425.026385,83.142105 Z" style="stroke: rgb(93%,50%,93%); stroke-linecap: butt; stroke-width: 1;"/>
			<path d="M 425.026385,83.142105 L 433.931398,83.142105 Z" style="stroke: rgb(93%,50%,93%); stroke-linecap: butt; stroke-width: 1;"/>
			<path d="M 433.931398,83.142105 L 442.836412,80.925263 Z" style="stroke: rgb(93%,50%,93%); stroke-linecap: butt; stroke-width: 1;"/>
			<path d="M 442.836412,80.925263 L 451.741425,72.057895 Z" style="stroke: rgb(93%,50%,93%); stroke-linecap: butt; stroke-width: 1;"/>
			<path d="M 451.741425,72.057895 L 460.646438,83.142105 Z" style="stroke: rgb(93%,50%,93%); stroke-linecap: butt; stroke-width: 1;"/>
			<path d="M 460.646438,83.142105 L 469.551451,96.443158 Z" style="stroke: rgb(93%,50%,93%); stroke-linecap: butt; stroke-width: 1;"/>
			<path d="M 469.551451,96.443158 L 478.456464,85.358947 Z" style="stroke: rgb(93%,50%,93%); stroke-linecap: butt; stroke-width: 1;"/>
			<path d="M 478.456464,85.358947 L 487.361478,83.142105 Z" style="stroke: rgb(93%,50%,93%); stroke-linecap: butt; stroke-width: 1;"/>
			<path d="M 487.361478,83.142105 L 496.266491,85.358947 Z" style="stroke: rgb(93%,50%,93%); stroke-linecap: butt; stroke-width: 1;"/>
			<path d="M 496.266491,85.358947 L 505.171504,87.575789 Z" style="stroke: rgb(93%,50%,93%); stroke-linecap: butt; stroke-width: 1;"/>
			<path d="M 505.171504,87.575789 L 514.076517,85.358947 Z" style="stroke: rgb(93%,50%,93%); stroke-linecap: butt; stroke-width: 1;"/>
			<path d="M 514.076517,85.358947 L 522.981530,85.358947 Z" style="stroke: rgb(93%,50%,93%); stroke-linecap: butt; stroke-width: 1;"/>
			<path d="M 522.981530,85.358947 L 531.886544,94.226316 Z" style="stroke: rgb(93%,50%,93%); stroke-linecap: butt; stroke-width: 1;"/>
			<path d="M 531.886544,94.226316 L 540.791557,87.575789 Z" style="stroke: rgb(93%,50%,93%); stroke-linecap: butt; stroke-width: 1;"/>
			<path d="M 540.791557,87.575789 L 549.696570,85.358947 Z" style="stroke: rgb(93%,50%,93%); stroke-linecap: butt; stroke-width: 1;"/>
			<path d="M 549.696570,85.358947 L 558.601583,89.792632 Z" style="stroke: rgb(93%,50%,93%); stroke-linecap: butt; stroke-width: 1;"/>
			<path d="M 558.601583,89.792632 L 560.738786,85.358947 Z" style="stroke: rgb(93%,50%,93%); stroke-linecap: butt; stroke-width: 1;"/>
			<polygon points="51.01583 338.6, 120.4749 338.6, 120.4749 343.46, 51.01583 343.46" style="stroke: rgb(85%,43%,57%); stroke-linecap: butt; stroke-width: 1; fill: rgb(85%,43%,57%);"/>
			<polygon points="51.01583 338.6, 58.49604 338.6, 58.49604 343.46, 51.01583 343.46" style="stroke: rgb(100%,0%,0%); stroke-linecap: butt; stroke-width: 1; fill: rgb(100%,0%,0%);"/>
			<polygon points="112.2823 338.6, 120.4749 338.6, 120.4749 343.46, 112.2823 343.46" style="stroke: rgb(100%,0%,0%); stroke-linecap: butt; stroke-width: 1; fill: rgb(100%,0%,0%);"/>
			<polygon points="71.67546 333.74, 141.847 333.74, 141.847 338.6, 71.67546 338.6" style="stroke: rgb(85%,43%,57%); stroke-linecap: butt; stroke-width: 1; fill: rgb(85%,43%,57%);"/>
			<polygon points="71.67546 333.74, 80.22427 333.74, 80.22427 338.6, 71.67546 338.6" style="stroke: rgb(100%,0%,0%); stroke-linecap: butt; stroke-width: 1; fill: rgb(100%,0%,0%);"/>
			<polygon points="132.2296 333.74, 141.847 333.74, 141.847 338.6, 132.2296 338.6" style="stroke: rgb(100%,0%,0%); stroke-linecap: butt; stroke-width: 1; fill: rgb(100%,0%,0%);"/>
			<polygon points="125.1055 338.6, 195.6332 338.6, 195.6332 343.46, 125.1055 343.46" style="stroke: rgb(85%,43%,57%); stroke-linecap: butt; stroke-width: 1; fill: rgb(85%,43%,57%);"/>
			<polygon points="125.1055 338.6, 132.5858 338.6, 132.5858 343.46, 125.1055 343.46" style="stroke: rgb(100%,0%,0%); stroke-linecap: butt; stroke-width: 1; fill: rgb(100%,0%,0%);"/>
			<polygon points="188.8654 338.6, 195.6332 338.6, 195.6332 343.46, 188.8654 343.46" style="stroke: rgb(100%,0%,0%); stroke-linecap: butt; stroke-width: 1; fill: rgb(100%,0%,0%);"/>
			<polygon points="176.0422 333.74, 246.2137 333.74, 246.2137 338.6, 176.0422 338.6" style="stroke: rgb(85%,43%,57%); stroke-linecap: butt; stroke-width: 1; fill: rgb(85%,43%,57%);"/>
			<polygon points="176.0422 333.74, 184.591 333.74, 184.591 338.6, 176.0422 338.6" style="stroke: rgb(100%,0%,0%); stroke-linecap: butt; stroke-width: 1; fill: rgb(100%,0%,0%);"/>
			<polygon points="238.7335 333.74, 246.2137 333.74, 246.2137 338.6, 238.7335 338.6" style="stroke: rgb(100%,0%,0%); stroke-linecap: butt; stroke-width: 1; fill: rgb(100%,0%,0%);"/>
			<polygon points="239.4459 338.6, 307.124 338.6, 307.124 343.46, 239.4459 343.46" style="stroke: rgb(85%,43%,57%); stroke-linecap: butt; stroke-width: 1; fill: rgb(85%,43%,57%);"/>
			<polygon points="239.4459 338.6, 246.9261 338.6, 246.9261 343.46, 239.4459 343.46" style="stroke: rgb(100%,0%,0%); stroke-linecap: butt; stroke-width: 1; fill: rgb(100%,0%,0%);"/>
			<polygon points="298.9314 338.6, 307.124 338.6, 307.124 343.46, 298.9314 343.46" style="stroke: rgb(100%,0%,0%); stroke-linecap: butt; stroke-width: 1; fill: rgb(100%,0%,0%);"/>
			<polygon points="320.6596 333.74, 390.8311 333.74, 390.8311 338.6, 320.6596 338.6" style="stroke: rgb(85%,43%,57%); stroke-linecap: butt; stroke-width: 1; fill: rgb(85%,43%,57%);"/>
			<polygon points="320.6596 333.74, 329.2084 333.74, 329.2084 338.6, 320.6596 338.6" style="stroke: rgb(100%,0%,0%); stroke-linecap: butt; stroke-width: 1; fill: rgb(100%,0%,0%);"/>
			<polygon points="383.3509 333.74, 390.8311 333.74, 390.8311 338.6, 383.3509 338.6" style="stroke: rgb(100%,0%,0%); stroke-linecap: butt; stroke-width: 1; fill: rgb(100%,0%,0%);"/>
			<polygon points="378.3641 338.6, 447.8232 338.6, 447.8232 343.46, 378.3641 343.46" style="stroke: rgb(85%,43%,57%); stroke-linecap: butt; stroke-width: 1; fill: rgb(85%,43%,57%);"/>
			<polygon points="378.3641 338.6, 385.8443 338.6, 385.8443 343.46, 378.3641 343.46" style="stroke: rgb(100%,0%,0%); stroke-linecap: butt; stroke-width: 1; fill: rgb(100%,0%,0%);"/>
			<polygon points="440.343 338.6, 447.8232 338.6, 447.8232 343.46, 440.343 343.46" style="stroke: rgb(100%,0%,0%); stroke-linecap: butt; stroke-width: 1; fill: rgb(100%,0%,0%);"/>
			<polygon points="412.5594 333.74, 481.3061 333.74, 481.3061 338.6, 412.5594 338.6" style="stroke: rgb(85%,43%,57%); stroke-linecap: butt; stroke-width: 1; fill: rgb(85%,43%,57%);"/>
			<polygon points="412.5594 333.74, 421.1082 333.74, 421.1082 338.6, 412.5594 338.6" style="stroke: rgb(100%,0%,0%); stroke-linecap: butt; stroke-width: 1; fill: rgb(100%,0%,0%);"/>
			<polygon points="472.4011 333.74, 481.3061 333.74, 481.3061 338.6, 472.4011 338.6" style="stroke: rgb(100%,0%,0%); stroke-linecap: butt; stroke-width: 1; fill: rgb(100%,0%,0%);"/>
			<polygon points="453.8786 338.6, 522.9815 338.6, 522.9815 343.46, 453.8786 343.46" style="stroke: rgb(85%,43%,57%); stroke-linecap: butt; stroke-width: 1; fill: rgb(85%,43%,57%);"/>
			<polygon points="453.8786 338.6, 461.3588 338.6, 461.3588 343.46, 453.8786 343.46" style="stroke: rgb(100%,0%,0%); stroke-linecap: butt; stroke-width: 1; fill: rgb(100%,0%,0%);"/>
			<polygon points="514.0765 338.6, 522.9815 338.6, 522.9815 343.46, 514.0765 343.46" style="stroke: rgb(100%,0%,0%); stroke-linecap: butt; stroke-width: 1; fill: rgb(100%,0%,0%);"/>
			<polygon points="485.9367 333.74, 556.4644 333.74, 556.4644 338.6, 485.9367 338.6" style="stroke: rgb(85%,43%,57%); stroke-linecap: butt; stroke-width: 1; fill: rgb(85%,43%,57%);"/>
			<polygon points="485.9367 333.74, 494.1293 333.74, 494.1293 338.6, 485.9367 338.6" style="stroke: rgb(100%,0%,0%); stroke-linecap: butt; stroke-width: 1; fill: rgb(100%,0%,0%);"/>
			<polygon points="547.5594 333.74, 556.4644 333.74, 556.4644 338.6, 547.5594 338.6" style="stroke: rgb(100%,0%,0%); stroke-linecap: butt; stroke-width: 1; fill: rgb(100%,0%,0%);"/>
			<polygon points="531.5303 338.6, 570 338.6, 570 343.46, 531.5303 343.46" style="stroke: rgb(85%,43%,57%); stroke-linecap: butt; stroke-width: 1; fill: rgb(85%,43%,57%);"/>
			<polygon points="30 158.6, 59.56464 158.6, 59.56464 163.46, 30 163.46" style="stroke: rgb(85%,43%,57%); stroke-linecap: butt; stroke-width: 1; fill: rgb(85%,43%,57%);"/>
			<polygon points="531.5303 338.6, 540.4354 338.6, 540.4354 343.46, 531.5303 343.46" style="stroke: rgb(100%,0%,0%); stroke-linecap: butt; stroke-width: 1; fill: rgb(100%,0%,0%);"/>
			<polygon points="52.08443 158.6, 59.56464 158.6, 59.56464 163.46, 52.08443 163.46" style="stroke: rgb(100%,0%,0%); stroke-linecap: butt; stroke-width: 1; fill: rgb(100%,0%,0%);"/>
			<polygon points="556.8206 333.74, 570 333.74, 570 338.6, 556.8206 338.6" style="stroke: rgb(85%,43%,57%); stroke-linecap: butt; stroke-width: 1; fill: rgb(85%,43%,57%);"/>
			<polygon points="30 153.74, 87.34828 153.74, 87.34828 158.6, 30 158.6" style="stroke: rgb(85%,43%,57%); stroke-linecap: butt; stroke-width: 1; fill: rgb(85%,43%,57%);"/>
			<polygon points="556.8206 333.74, 564.3008 333.74, 564.3008 338.6, 556.8206 338.6" style="stroke: rgb(100%,0%,0%); stroke-linecap: butt; stroke-width: 1; fill: rgb(100%,0%,0%);"/>
			<polygon points="78.79947 153.74, 87.34828 153.74, 87.34828 158.6, 78.79947 158.6" style="stroke: rgb(100%,0%,0%); stroke-linecap: butt; stroke-width: 1; fill: rgb(100%,0%,0%);"/>
			<polygon points="61.34565 158.6, 130.4485 158.6, 130.4485 163.46, 61.34565 163.46" style="stroke: rgb(85%,43%,57%); stroke-linecap: butt; stroke-width: 1; fill: rgb(85%,43%,57%);"/>
			<polygon points="61.34565 158.6, 69.89446 158.6, 69.89446 163.46, 61.34565 163.46" style="stroke: rgb(100%,0%,0%); stroke-linecap: butt; stroke-width: 1; fill: rgb(100%,0%,0%);"/>
			<polygon points="122.9683 158.6, 130.4485 158.6, 130.4485 163.46, 122.9683 163.46" style="stroke: rgb(100%,0%,0%); stroke-linecap: butt; stroke-width: 1; fill: rgb(100%,0%,0%);"/>
			<polygon points="108.7203 153.74, 177.467 153.74, 177.467 158.6, 108.7203 158.6" style="stroke: rgb(85%,43%,57%); stroke-linecap: butt; stroke-width: 1; fill: rgb(85%,43%,57%);"/>
			<polygon points="108.7203 153.74, 116.2005 153.74, 116.2005 158.6, 108.7203 158.6" style="stroke: rgb(100%,0%,0%); stroke-linecap: butt; stroke-width: 1; fill: rgb(100%,0%,0%);"/>
			<polygon points="169.6306 153.74, 177.467 153.74, 177.467 158.6, 169.6306 158.6" style="stroke: rgb(100%,0%,0%); stroke-linecap: butt; stroke-width: 1; fill: rgb(100%,0%,0%);"/>
			<polygon points="221.2797 158.6, 291.8074 158.6, 291.8074 163.46, 221.2797 163.46" style="stroke: rgb(85%,43%,57%); stroke-linecap: butt; stroke-width: 1; fill: rgb(85%,43%,57%);"/>
			<polygon points="221.2797 158.6, 229.4723 158.6, 229.4723 163.46, 221.2797 163.46" style="stroke: rgb(100%,0%,0%); stroke-linecap: butt; stroke-width: 1; fill: rgb(100%,0%,0%);"/>
			<polygon points="282.9024 158.6, 291.8074 158.6, 291.8074 163.46, 282.9024 163.46" style="stroke: rgb(100%,0%,0%); stroke-linecap: butt; stroke-width: 1; fill: rgb(100%,0%,0%);"/>
			<polygon points="247.6385 153.74, 316.029 153.74, 316.029 158.6, 247.6385 158.6" style="stroke: rgb(85%,43%,57%); stroke-linecap: butt; stroke-width: 1; fill: rgb(85%,43%,57%);"/>
			<polygon points="247.6385 153.74, 255.8311 153.74, 255.8311 158.6, 247.6385 158.6" style="stroke: rgb(100%,0%,0%); stroke-linecap: butt; stroke-width: 1; fill: rgb(100%,0%,0%);"/>
			<polygon points="307.124 153.74, 316.029 153.74, 316.029 158.6, 307.124 158.6" style="stroke: rgb(100%,0%,0%); stroke-linecap: butt; stroke-width: 1; fill: rgb(100%,0%,0%);"/>
			<polygon points="296.7942 158.6, 364.8285 158.6, 364.8285 163.46, 296.7942 163.46" style="stroke: rgb(85%,43%,57%); stroke-linecap: butt; stroke-width: 1; fill: rgb(85%,43%,57%);"/>
			<polygon points="296.7942 158.6, 304.6306 158.6, 304.6306 163.46, 296.7942 163.46" style="stroke: rgb(100%,0%,0%); stroke-linecap: butt; stroke-width: 1; fill: rgb(100%,0%,0%);"/>
			<polygon points="357.3483 158.6, 364.8285 158.6, 364.8285 163.46, 357.3483 163.46" style="stroke: rgb(100%,0%,0%); stroke-linecap: butt; stroke-width: 1; fill: rgb(100%,0%,0%);"/>
			<polygon points="317.81 153.74, 385.1319 153.74, 385.1319 158.6, 317.81 158.6" style="stroke: rgb(85%,43%,57%); stroke-linecap: butt; stroke-width: 1; fill: rgb(85%,43%,57%);"/>
			<polygon points="317.81 153.74, 326.3588 153.74, 326.3588 158.6, 317.81 158.6" style="stroke: rgb(100%,0%,0%); stroke-linecap: butt; stroke-width: 1; fill: rgb(100%,0%,0%);"/>
			<polygon points="377.2955 153.74, 385.1319 153.74, 385.1319 158.6, 377.2955 158.6" style="stroke: rgb(100%,0%,0%); stroke-linecap: butt; stroke-width: 1; fill: rgb(100%,0%,0%);"/>
			<polygon points="367.6781 158.6, 435 158.6, 435 163.46, 367.6781 163.46" style="stroke: rgb(85%,43%,57%); stroke-linecap: butt; stroke-width: 1; fill: rgb(85%,43%,57%);"/>
			<polygon points="367.6781 158.6, 375.1583 158.6, 375.1583 163.46, 367.6781 163.46" style="stroke: rgb(100%,0%,0%); stroke-linecap: butt; stroke-width: 1; fill: rgb(100%,0%,0%);"/>
			<polygon points="426.8074 158.6, 435 158.6, 435 163.46, 426.8074 163.46" style="stroke: rgb(100%,0%,0%); stroke-linecap: butt; stroke-width: 1; fill: rgb(100%,0%,0%);"/>
			<polygon points="411.1346 153.74, 479.1689 153.74, 479.1689 158.6, 411.1346 158.6" style="stroke: rgb(85%,43%,57%); stroke-linecap: butt; stroke-width: 1; fill: rgb(85%,43%,57%);"/>
			<polygon points="411.1346 153.74, 418.6148 153.74, 418.6148 158.6, 411.1346 158.6" style="stroke: rgb(100%,0%,0%); stroke-linecap: butt; stroke-width: 1; fill: rgb(100%,0%,0%);"/>
			<polygon points="471.6887 153.74, 479.1689 153.74, 479.1689 158.6, 471.6887 158.6" style="stroke: rgb(100%,0%,0%); stroke-linecap: butt; stroke-width: 1; fill: rgb(100%,0%,0%);"/>
			<polygon points="435.3562 158.6, 506.2401 158.6, 506.2401 163.46, 435.3562 163.46" style="stroke: rgb(85%,43%,57%); stroke-linecap: butt; stroke-width: 1; fill: rgb(85%,43%,57%);"/>
			<polygon points="435.3562 158.6, 444.2612 158.6, 444.2612 163.46, 435.3562 163.46" style="stroke: rgb(100%,0%,0%); stroke-linecap: butt; stroke-width: 1; fill: rgb(100%,0%,0%);"/>
			<polygon points="498.7599 158.6, 506.2401 158.6, 506.2401 163.46, 498.7599 163.46" style="stroke: rgb(100%,0%,0%); stroke-linecap: butt; stroke-width: 1; fill: rgb(100%,0%,0%);"/>
			<polygon points="484.1557 153.74, 554.3272 153.74, 554.3272 158.6, 484.1557 158.6" style="stroke: rgb(85%,43%,57%); stroke-linecap: butt; stroke-width: 1; fill: rgb(85%,43%,57%);"/>
			<polygon points="484.1557 153.74, 493.4169 153.74, 493.4169 158.6, 484.1557 158.6" style="stroke: rgb(100%,0%,0%); stroke-linecap: butt; stroke-width: 1; fill: rgb(100%,0%,0%);"/>
			<polygon points="546.847 153.74, 554.3272 153.74, 554.3272 158.6, 546.847 158.6" style="stroke: rgb(100%,0%,0%); stroke-linecap: butt; stroke-width: 1; fill: rgb(100%,0%,0%);"/>
			<path d="M 30.000000,257.600000 L 570.000000,257.600000 Z" style="stroke: rgb(0%,0%,0%); stroke-linecap: butt; stroke-width: 1;"/>
			<path d="M 30.000000,236.540000 L 30.000000,278.660000 Z" style="stroke: rgb(0%,0%,0%); stroke-linecap: butt; stroke-width: 1;"/>
			<path d="M 569.643799,56.540000 L 569.643799,98.660000 Z" style="stroke: rgb(0%,0%,0%); stroke-linecap: butt; stroke-width: 1;"/>
			<path d="M 30.000000,77.600000 L 569.643799,77.600000 Z" style="stroke: rgb(0%,0%,0%); stroke-linecap: butt; stroke-width: 1;"/>
			<path d="M 30.000000,56.540000 L 30.000000,98.660000 Z" style="stroke: rgb(0%,0%,0%); stroke-linecap: butt; stroke-width: 1;"/>
			<path d="M 386.200528,257.600000 L 386.200528,268.130000 Z" style="stroke: rgb(0%,0%,0%); stroke-linecap: butt; stroke-width: 1;"/>
			<path d="M 202.401055,77.600000 L 202.401055,88.130000 Z" style="stroke: rgb(0%,0%,0%); stroke-linecap: butt; stroke-width: 1;"/>
			<path d="M 558.601583,77.600000 L 558.601583,88.130000 Z" style="stroke: rgb(0%,0%,0%); stroke-linecap: butt; stroke-width: 1;"/>
			<path d="M 30.000000,338.600000 L 570.000000,338.600000 Z" style="stroke: rgb(0%,0%,0%); stroke-linecap: butt; stroke-width: 1;"/>
			<path d="M 30.000000,333.740000 L 30.000000,343.460000 Z" style="stroke: rgb(0%,0%,0%); stroke-linecap: butt; stroke-width: 1;"/>
			<path d="M 569.643799,153.740000 L 569.643799,163.460000 Z" style="stroke: rgb(0%,0%,0%); stroke-linecap: butt; stroke-width: 1;"/>
			<path d="M 30.000000,158.600000 L 569.643799,158.600000 Z" style="stroke: rgb(0%,0%,0%); stroke-linecap: butt; stroke-width: 1;"/>
			<path d="M 30.000000,153.740000 L 30.000000,163.460000 Z" style="stroke: rgb(0%,0%,0%); stroke-linecap: butt; stroke-width: 1;"/>
			<g transform=" matrix(0.707107,0.707107,-0.707107,0.707107,386.200528,268.130000)">
				<text x="0" y="0" style="font-family: Helvetica; font-size: 6px; fill: rgb(0%,0%,0%);" transform="translate(0,0) scale(1,-1)">1000</text>
			</g>
			<g transform=" matrix(0.707107,0.707107,-0.707107,0.707107,202.401055,88.130000)">
				<text x="0" y="0" style="font-family: Helvetica; font-size: 6px; fill: rgb(0%,0%,0%);" transform="translate(0,0) scale(1,-1)">2000</text>
			</g>
			<g transform=" matrix(0.707107,0.707107,-0.707107,0.707107,558.601583,88.130000)">
				<text x="0" y="0" style="font-family: Helvetica; font-size: 6px; fill: rgb(0%,0%,0%);" transform="translate(0,0) scale(1,-1)">3000</text>
			</g>
			<g transform=" matrix(0.707107,0.707107,-0.707107,0.707107,30.000000,236.540000)">
				<text x="0" y="0" style="font-family: Helvetica; font-size: 6px; fill: rgb(0%,0%,0%);" transform="translate(0,0) scale(1,-1)">0.140</text>
			</g>
			<g transform=" matrix(0.707107,0.707107,-0.707107,0.707107,30.000000,278.660000)">
				<text x="0" y="0" style="font-family: Helvetica; font-size: 6px; fill: rgb(0%,0%,0%);" transform="translate(0,0) scale(1,-1)">0.520</text>
			</g>
			<g transform=" matrix(0.707107,0.707107,-0.707107,0.707107,30.000000,257.600000)">
				<text x="0" y="0" style="font-family: Helvetica; font-size: 6px; fill: rgb(0%,0%,0%);" transform="translate(0,0) scale(1,-1)"></text>
			</g>
			<g transform=" matrix(0.707107,0.707107,-0.707107,0.707107,30.000000,56.540000)">
				<text x="0" y="0" style="font-family: Helvetica; font-size: 6px; fill: rgb(0%,0%,0%);" transform="translate(0,0) scale(1,-1)">0.140</text>
			</g>
			<g transform=" matrix(0.707107,0.707107,-0.707107,0.707107,30.000000,98.660000)">
				<text x="0" y="0" style="font-family: Helvetica; font-size: 6px; fill: rgb(0%,0%,0%);" transform="translate(0,0) scale(1,-1)">0.520</text>
			</g>
			<g transform=" matrix(0.707107,0.707107,-0.707107,0.707107,30.000000,77.600000)">
				<text x="0" y="0" style="font-family: Helvetica; font-size: 6px; fill: rgb(0%,0%,0%);" transform="translate(0,0) scale(1,-1)"></text>
			</g>
			<g transform=" matrix(1.000000,0.000000,-0.000000,1.000000,85.745383,343.460000)">
				<text x="0" y="0" style="font-family: Helvetica; font-size: 6px; fill: rgb(0%,0%,0%);" transform="translate(0,0) scale(1,-1)">1</text>
			</g>
			<g transform=" matrix(1.000000,0.000000,-0.000000,1.000000,106.761214,333.740000)">
				<text x="0" y="0" style="font-family: Helvetica; font-size: 6px; fill: rgb(0%,0%,0%);" transform="translate(0,0) scale(1,-1)">2</text>
			</g>
			<g transform=" matrix(1.000000,0.000000,-0.000000,1.000000,160.369393,343.460000)">
				<text x="0" y="0" style="font-family: Helvetica; font-size: 6px; fill: rgb(0%,0%,0%);" transform="translate(0,0) scale(1,-1)">3</text>
			</g>
			<g transform=" matrix(1.000000,0.000000,-0.000000,1.000000,211.127968,333.740000)">
				<text x="0" y="0" style="font-family: Helvetica; font-size: 6px; fill: rgb(0%,0%,0%);" transform="translate(0,0) scale(1,-1)">4</text>
			</g>
			<g transform=" matrix(1.000000,0.000000,-0.000000,1.000000,273.284960,343.460000)">
				<text x="0" y="0" style="font-family: Helvetica; font-size: 6px; fill: rgb(0%,0%,0%);" transform="translate(0,0) scale(1,-1)">5</text>
			</g>
			<g transform=" matrix(1.000000,0.000000,-0.000000,1.000000,355.745383,333.740000)">
				<text x="0" y="0" style="font-family: Helvetica; font-size: 6px; fill: rgb(0%,0%,0%);" transform="translate(0,0) scale(1,-1)">6</text>
			</g>
			<g transform=" matrix(1.000000,0.000000,-0.000000,1.000000,413.093668,343.460000)">
				<text x="0" y="0" style="font-family: Helvetica; font-size: 6px; fill: rgb(0%,0%,0%);" transform="translate(0,0) scale(1,-1)">7</text>
			</g>
			<g transform=" matrix(1.000000,0.000000,-0.000000,1.000000,446.932718,333.740000)">
				<text x="0" y="0" style="font-family: Helvetica; font-size: 6px; fill: rgb(0%,0%,0%);" transform="translate(0,0) scale(1,-1)">8</text>
			</g>
			<g transform=" matrix(1.000000,0.000000,-0.000000,1.000000,488.430079,343.460000)">
				<text x="0" y="0" style="font-family: Helvetica; font-size: 6px; fill: rgb(0%,0%,0%);" transform="translate(0,0) scale(1,-1)">9</text>
			</g>
			<g transform=" matrix(1.000000,0.000000,-0.000000,1.000000,521.200528,333.740000)">
				<text x="0" y="0" style="font-family: Helvetica; font-size: 6px; fill: rgb(0%,0%,0%);" transform="translate(0,0) scale(1,-1)">10</text>
			</g>
			<g transform=" matrix(1.000000,0.000000,-0.000000,1.000000,550.765172,343.460000)">
				<text x="0" y="0" style="font-family: Helvetica; font-size: 6px; fill: rgb(0%,0%,0%);" transform="translate(0,0) scale(1,-1)">11</text>
			</g>
			<g transform=" matrix(1.000000,0.000000,-0.000000,1.000000,44.782322,163.460000)">
				<text x="0" y="0" style="font-family: Helvetica; font-size: 6px; fill: rgb(0%,0%,0%);" transform="translate(0,0) scale(1,-1)">11</text>
			</g>
			<g transform=" matrix(1.000000,0.000000,-0.000000,1.000000,563.410290,333.740000)">
				<text x="0" y="0" style="font-family: Helvetica; font-size: 6px; fill: rgb(0%,0%,0%);" transform="translate(0,0) scale(1,-1)">12</text>
			</g>
			<g transform=" matrix(1.000000,0.000000,-0.000000,1.000000,58.674142,153.740000)">
				<text x="0" y="0" style="font-family: Helvetica; font-size: 6px; fill: rgb(0%,0%,0%);" transform="translate(0,0) scale(1,-1)">12</text>
			</g>
			<g transform=" matrix(1.000000,0.000000,-0.000000,1.000000,95.897098,163.460000)">
				<text x="0" y="0" style="font-family: Helvetica; font-size: 6px; fill: rgb(0%,0%,0%);" transform="translate(0,0) scale(1,-1)">13</text>
			</g>
			<g transform=" matrix(1.000000,0.000000,-0.000000,1.000000,143.093668,153.740000)">
				<text x="0" y="0" style="font-family: Helvetica; font-size: 6px; fill: rgb(0%,0%,0%);" transform="translate(0,0) scale(1,-1)">14</text>
			</g>
			<g transform=" matrix(1.000000,0.000000,-0.000000,1.000000,256.543536,163.460000)">
				<text x="0" y="0" style="font-family: Helvetica; font-size: 6px; fill: rgb(0%,0%,0%);" transform="translate(0,0) scale(1,-1)">15</text>
			</g>
			<g transform=" matrix(1.000000,0.000000,-0.000000,1.000000,281.833773,153.740000)">
				<text x="0" y="0" style="font-family: Helvetica; font-size: 6px; fill: rgb(0%,0%,0%);" transform="translate(0,0) scale(1,-1)">16</text>
			</g>
			<g transform=" matrix(1.000000,0.000000,-0.000000,1.000000,330.811346,163.460000)">
				<text x="0" y="0" style="font-family: Helvetica; font-size: 6px; fill: rgb(0%,0%,0%);" transform="translate(0,0) scale(1,-1)">17</text>
			</g>
			<g transform=" matrix(1.000000,0.000000,-0.000000,1.000000,351.470976,153.740000)">
				<text x="0" y="0" style="font-family: Helvetica; font-size: 6px; fill: rgb(0%,0%,0%);" transform="translate(0,0) scale(1,-1)">18</text>
			</g>
			<g transform=" matrix(1.000000,0.000000,-0.000000,1.000000,401.339050,163.460000)">
				<text x="0" y="0" style="font-family: Helvetica; font-size: 6px; fill: rgb(0%,0%,0%);" transform="translate(0,0) scale(1,-1)">19</text>
			</g>
			<g transform=" matrix(1.000000,0.000000,-0.000000,1.000000,445.151715,153.740000)">
				<text x="0" y="0" style="font-family: Helvetica; font-size: 6px; fill: rgb(0%,0%,0%);" transform="translate(0,0) scale(1,-1)">20</text>
			</g>
			<g transform=" matrix(1.000000,0.000000,-0.000000,1.000000,470.798153,163.460000)">
				<text x="0" y="0" style="font-family: Helvetica; font-size: 6px; fill: rgb(0%,0%,0%);" transform="translate(0,0) scale(1,-1)">21</text>
			</g>
			<g transform=" matrix(1.000000,0.000000,-0.000000,1.000000,519.241425,153.740000)">
				<text x="0" y="0" style="font-family: Helvetica; font-size: 6px; fill: rgb(0%,0%,0%);" transform="translate(0,0) scale(1,-1)">22</text>
			</g>
		</g>
	</g>
</svg>
