<?xml version="1.0" encoding="utf-8"?>
<!DOCTYPE svg
  PUBLIC '-//W3C//DTD SVG 1.0//EN'
  'http://www.w3.org/TR/2001/REC-SVG-20010904/DTD/svg10.dtd'>
<svg width="600" height="400" preserveAspectRatio="xMinYMin meet" viewBox="0 0 600 400" xmlns="http://www.w3.org/2000/svg" version="1.0" fill-rule="evenodd" xmlns:xlink="http://www.w3.org/1999/xlink">
	<title>...</title>
	<desc>...</desc>
	<clipPath id="clip">
		<rect x="0" y="0" width="600" height="400"/>
	</clipPath>
	<g id="group" transform="scale(1,-1) translate(0,-400)" style="clip-path: url(#clip)">
		<g transform="">
			<path d="M 39.825328,238.454545 L 39.825328,238.454545 Z" style="stroke: rgb(93%,50%,93%); stroke-linecap: butt; stroke-width: 1;"/>
			<path d="M 39.825328,238.454545 L 49.650655,244.198182 Z" style="stroke: rgb(93%,50%,93%); stroke-linecap: butt; stroke-width: 1;"/>
			<path d="M 49.650655,244.198182 L 59.475983,251.856364 Z" style="stroke: rgb(93%,50%,93%); stroke-linecap: butt; stroke-width: 1;"/>
			<path d="M 59.475983,251.856364 L 69.301310,249.941818 Z" style="stroke: rgb(93%,50%,93%); stroke-linecap: butt; stroke-width: 1;"/>
			<path d="M 69.301310,249.941818 L 79.126638,248.027273 Z" style="stroke: rgb(93%,50%,93%); stroke-linecap: butt; stroke-width: 1;"/>
			<path d="M 79.126638,248.027273 L 88.951965,249.941818 Z" style="stroke: rgb(93%,50%,93%); stroke-linecap: butt; stroke-width: 1;"/>
			<path d="M 88.951965,249.941818 L 98.777293,261.429091 Z" style="stroke: rgb(93%,50%,93%); stroke-linecap: butt; stroke-width: 1;"/>
			<path d="M 98.777293,261.429091 L 108.602620,269.087273 Z" style="stroke: rgb(93%,50%,93%); stroke-linecap: butt; stroke-width: 1;"/>
			<path d="M 108.602620,269.087273 L 118.427948,263.343636 Z" style="stroke: rgb(93%,50%,93%); stroke-linecap: butt; stroke-width: 1;"/>
			<path d="M 118.427948,263.343636 L 128.253275,255.685455 Z" style="stroke: rgb(93%,50%,93%); stroke-linecap: butt; stroke-width: 1;"/>
			<path d="M 128.253275,255.685455 L 138.078603,261.429091 Z" style="stroke: rgb(93%,50%,93%); stroke-linecap: butt; stroke-width: 1;"/>
			<path d="M 138.078603,261.429091 L 147.903930,269.087273 Z" style="stroke: rgb(93%,50%,93%); stroke-linecap: butt; stroke-width: 1;"/>
			<path d="M 147.903930,269.087273 L 157.729258,269.087273 Z" style="stroke: rgb(93%,50%,93%); stroke-linecap: butt; stroke-width: 1;"/>
			<path d="M 157.729258,269.087273 L 167.554585,271.001818 Z" style="stroke: rgb(93%,50%,93%); stroke-linecap: butt; stroke-width: 1;"/>
			<path d="M 167.554585,271.001818 L 177.379913,261.429091 Z" style="stroke: rgb(93%,50%,93%); stroke-linecap: butt; stroke-width: 1;"/>
			<path d="M 177.379913,261.429091 L 187.205240,246.112727 Z" style="stroke: rgb(93%,50%,93%); stroke-linecap: butt; stroke-width: 1;"/>
			<path d="M 187.205240,246.112727 L 197.030568,240.369091 Z" style="stroke: rgb(93%,50%,93%); stroke-linecap: butt; stroke-width: 1;"/>
			<path d="M 197.030568,240.369091 L 206.855895,249.941818 Z" style="stroke: rgb(93%,50%,93%); stroke-linecap: butt; stroke-width: 1;"/>
			<path d="M 206.855895,249.941818 L 216.681223,261.429091 Z" style="stroke: rgb(93%,50%,93%); stroke-linecap: butt; stroke-width: 1;"/>
			<path d="M 216.681223,261.429091 L 226.506550,253.770909 Z" style="stroke: rgb(93%,50%,93%); stroke-linecap: butt; stroke-width: 1;"/>
			<path d="M 226.506550,253.770909 L 236.331878,257.600000 Z" style="stroke: rgb(93%,50%,93%); stroke-linecap: butt; stroke-width: 1;"/>
			<path d="M 236.331878,257.600000 L 246.157205,265.258182 Z" style="stroke: rgb(93%,50%,93%); stroke-linecap: butt; stroke-width: 1;"/>
			<path d="M 246.157205,265.258182 L 255.982533,261.429091 Z" style="stroke: rgb(93%,50%,93%); stroke-linecap: butt; stroke-width: 1;"/>
			<path d="M 255.982533,261.429091 L 265.807860,257.600000 Z" style="stroke: rgb(93%,50%,93%); stroke-linecap: butt; stroke-width: 1;"/>
			<path d="M 265.807860,257.600000 L 275.633188,269.087273 Z" style="stroke: rgb(93%,50%,93%); stroke-linecap: butt; stroke-width: 1;"/>
			<path d="M 275.633188,269.087273 L 285.458515,274.830909 Z" style="stroke: rgb(93%,50%,93%); stroke-linecap: butt; stroke-width: 1;"/>
			<path d="M 285.458515,274.830909 L 295.283843,269.087273 Z" style="stroke: rgb(93%,50%,93%); stroke-linecap: butt; stroke-width: 1;"/>
			<path d="M 295.283843,269.087273 L 305.109170,267.172727 Z" style="stroke: rgb(93%,50%,93%); stroke-linecap: butt; stroke-width: 1;"/>
			<path d="M 305.109170,267.172727 L 314.934498,259.514545 Z" style="stroke: rgb(93%,50%,93%); stroke-linecap: butt; stroke-width: 1;"/>
			<path d="M 314.934498,259.514545 L 324.759825,255.685455 Z" style="stroke: rgb(93%,50%,93%); stroke-linecap: butt; stroke-width: 1;"/>
			<path d="M 324.759825,255.685455 L 334.585153,255.685455 Z" style="stroke: rgb(93%,50%,93%); stroke-linecap: butt; stroke-width: 1;"/>
			<path d="M 334.585153,255.685455 L 344.410480,244.198182 Z" style="stroke: rgb(93%,50%,93%); stroke-linecap: butt; stroke-width: 1;"/>
			<path d="M 344.410480,244.198182 L 354.235808,236.540000 Z" style="stroke: rgb(93%,50%,93%); stroke-linecap: butt; stroke-width: 1;"/>
			<path d="M 354.235808,236.540000 L 364.061135,248.027273 Z" style="stroke: rgb(93%,50%,93%); stroke-linecap: butt; stroke-width: 1;"/>
			<path d="M 364.061135,248.027273 L 373.886463,259.514545 Z" style="stroke: rgb(93%,50%,93%); stroke-linecap: butt; stroke-width: 1;"/>
			<path d="M 373.886463,259.514545 L 383.711790,263.343636 Z" style="stroke: rgb(93%,50%,93%); stroke-linecap: butt; stroke-width: 1;"/>
			<path d="M 383.711790,263.343636 L 393.537118,257.600000 Z" style="stroke: rgb(93%,50%,93%); stroke-linecap: butt; stroke-width: 1;"/>
			<path d="M 393.537118,257.600000 L 403.362445,257.600000 Z" style="stroke: rgb(93%,50%,93%); stroke-linecap: butt; stroke-width: 1;"/>
			<path d="M 403.362445,257.600000 L 413.187773,246.112727 Z" style="stroke: rgb(93%,50%,93%); stroke-linecap: butt; stroke-width: 1;"/>
			<path d="M 413.187773,246.112727 L 423.013100,240.369091 Z" style="stroke: rgb(93%,50%,93%); stroke-linecap: butt; stroke-width: 1;"/>
			<path d="M 423.013100,240.369091 L 432.838428,246.112727 Z" style="stroke: rgb(93%,50%,93%); stroke-linecap: butt; stroke-width: 1;"/>
			<path d="M 432.838428,246.112727 L 442.663755,253.770909 Z" style="stroke: rgb(93%,50%,93%); stroke-linecap: butt; stroke-width: 1;"/>
			<path d="M 442.663755,253.770909 L 452.489083,267.172727 Z" style="stroke: rgb(93%,50%,93%); stroke-linecap: butt; stroke-width: 1;"/>
			<path d="M 452.489083,267.172727 L 462.314410,267.172727 Z" style="stroke: rgb(93%,50%,93%); stroke-linecap: butt; stroke-width: 1;"/>
			<path d="M 462.314410,267.172727 L 472.139738,259.514545 Z" style="stroke: rgb(93%,50%,93%); stroke-linecap: butt; stroke-width: 1;"/>
			<path d="M 472.139738,259.514545 L 481.965066,246.112727 Z" style="stroke: rgb(93%,50%,93%); stroke-linecap: butt; stroke-width: 1;"/>
			<path d="M 481.965066,246.112727 L 491.790393,248.027273 Z" style="stroke: rgb(93%,50%,93%); stroke-linecap: butt; stroke-width: 1;"/>
			<path d="M 491.790393,248.027273 L 501.615721,255.685455 Z" style="stroke: rgb(93%,50%,93%); stroke-linecap: butt; stroke-width: 1;"/>
			<path d="M 501.615721,255.685455 L 511.441048,255.685455 Z" style="stroke: rgb(93%,50%,93%); stroke-linecap: butt; stroke-width: 1;"/>
			<path d="M 511.441048,255.685455 L 521.266376,248.027273 Z" style="stroke: rgb(93%,50%,93%); stroke-linecap: butt; stroke-width: 1;"/>
			<path d="M 521.266376,248.027273 L 531.091703,242.283636 Z" style="stroke: rgb(93%,50%,93%); stroke-linecap: butt; stroke-width: 1;"/>
			<path d="M 531.091703,242.283636 L 540.917031,251.856364 Z" style="stroke: rgb(93%,50%,93%); stroke-linecap: butt; stroke-width: 1;"/>
			<path d="M 540.917031,251.856364 L 550.742358,259.514545 Z" style="stroke: rgb(93%,50%,93%); stroke-linecap: butt; stroke-width: 1;"/>
			<path d="M 550.742358,259.514545 L 560.567686,261.429091 Z" style="stroke: rgb(93%,50%,93%); stroke-linecap: butt; stroke-width: 1;"/>
			<path d="M 560.567686,261.429091 L 570.000000,261.429091 Z" style="stroke: rgb(93%,50%,93%); stroke-linecap: butt; stroke-width: 1;"/>
			<path d="M 30.000000,81.429091 L 30.393013,81.429091 Z" style="stroke: rgb(93%,50%,93%); stroke-linecap: butt; stroke-width: 1;"/>
			<path d="M 30.393013,81.429091 L 40.218341,68.027273 Z" style="stroke: rgb(93%,50%,93%); stroke-linecap: butt; stroke-width: 1;"/>
			<path d="M 40.218341,68.027273 L 50.043668,56.540000 Z" style="stroke: rgb(93%,50%,93%); stroke-linecap: butt; stroke-width: 1;"/>
			<path d="M 50.043668,56.540000 L 59.868996,60.369091 Z" style="stroke: rgb(93%,50%,93%); stroke-linecap: butt; stroke-width: 1;"/>
			<path d="M 59.868996,60.369091 L 69.694323,69.941818 Z" style="stroke: rgb(93%,50%,93%); stroke-linecap: butt; stroke-width: 1;"/>
			<path d="M 69.694323,69.941818 L 79.519651,83.343636 Z" style="stroke: rgb(93%,50%,93%); stroke-linecap: butt; stroke-width: 1;"/>
			<path d="M 79.519651,83.343636 L 89.344978,91.001818 Z" style="stroke: rgb(93%,50%,93%); stroke-linecap: butt; stroke-width: 1;"/>
			<path d="M 89.344978,91.001818 L 99.170306,81.429091 Z" style="stroke: rgb(93%,50%,93%); stroke-linecap: butt; stroke-width: 1;"/>
			<path d="M 99.170306,81.429091 L 108.995633,77.600000 Z" style="stroke: rgb(93%,50%,93%); stroke-linecap: butt; stroke-width: 1;"/>
			<path d="M 108.995633,77.600000 L 118.820961,87.172727 Z" style="stroke: rgb(93%,50%,93%); stroke-linecap: butt; stroke-width: 1;"/>
			<path d="M 118.820961,87.172727 L 128.646288,89.087273 Z" style="stroke: rgb(93%,50%,93%); stroke-linecap: butt; stroke-width: 1;"/>
			<path d="M 128.646288,89.087273 L 138.471616,81.429091 Z" style="stroke: rgb(93%,50%,93%); stroke-linecap: butt; stroke-width: 1;"/>
			<path d="M 138.471616,81.429091 L 148.296943,83.343636 Z" style="stroke: rgb(93%,50%,93%); stroke-linecap: butt; stroke-width: 1;"/>
			<path d="M 148.296943,83.343636 L 158.122271,89.087273 Z" style="stroke: rgb(93%,50%,93%); stroke-linecap: butt; stroke-width: 1;"/>
			<path d="M 158.122271,89.087273 L 167.947598,81.429091 Z" style="stroke: rgb(93%,50%,93%); stroke-linecap: butt; stroke-width: 1;"/>
			<path d="M 167.947598,81.429091 L 177.772926,77.600000 Z" style="stroke: rgb(93%,50%,93%); stroke-linecap: butt; stroke-width: 1;"/>
			<path d="M 177.772926,77.600000 L 187.598253,83.343636 Z" style="stroke: rgb(93%,50%,93%); stroke-linecap: butt; stroke-width: 1;"/>
			<path d="M 187.598253,83.343636 L 197.423581,81.429091 Z" style="stroke: rgb(93%,50%,93%); stroke-linecap: butt; stroke-width: 1;"/>
			<path d="M 197.423581,81.429091 L 207.248908,69.941818 Z" style="stroke: rgb(93%,50%,93%); stroke-linecap: butt; stroke-width: 1;"/>
			<path d="M 207.248908,69.941818 L 217.074236,69.941818 Z" style="stroke: rgb(93%,50%,93%); stroke-linecap: butt; stroke-width: 1;"/>
			<path d="M 217.074236,69.941818 L 226.899563,75.685455 Z" style="stroke: rgb(93%,50%,93%); stroke-linecap: butt; stroke-width: 1;"/>
			<path d="M 226.899563,75.685455 L 236.724891,77.600000 Z" style="stroke: rgb(93%,50%,93%); stroke-linecap: butt; stroke-width: 1;"/>
			<path d="M 236.724891,77.600000 L 246.550218,77.600000 Z" style="stroke: rgb(93%,50%,93%); stroke-linecap: butt; stroke-width: 1;"/>
			<path d="M 246.550218,77.600000 L 256.375546,85.258182 Z" style="stroke: rgb(93%,50%,93%); stroke-linecap: butt; stroke-width: 1;"/>
			<path d="M 256.375546,85.258182 L 266.200873,89.087273 Z" style="stroke: rgb(93%,50%,93%); stroke-linecap: butt; stroke-width: 1;"/>
			<path d="M 266.200873,89.087273 L 276.026201,87.172727 Z" style="stroke: rgb(93%,50%,93%); stroke-linecap: butt; stroke-width: 1;"/>
			<path d="M 276.026201,87.172727 L 285.851528,85.258182 Z" style="stroke: rgb(93%,50%,93%); stroke-linecap: butt; stroke-width: 1;"/>
			<path d="M 285.851528,85.258182 L 295.676856,77.600000 Z" style="stroke: rgb(93%,50%,93%); stroke-linecap: butt; stroke-width: 1;"/>
			<path d="M 295.676856,77.600000 L 305.502183,75.685455 Z" style="stroke: rgb(93%,50%,93%); stroke-linecap: butt; stroke-width: 1;"/>
			<path d="M 305.502183,75.685455 L 315.327511,71.856364 Z" style="stroke: rgb(93%,50%,93%); stroke-linecap: butt; stroke-width: 1;"/>
			<path d="M 315.327511,71.856364 L 325.152838,73.770909 Z" style="stroke: rgb(93%,50%,93%); stroke-linecap: butt; stroke-width: 1;"/>
			<path d="M 325.152838,73.770909 L 334.978166,79.514545 Z" style="stroke: rgb(93%,50%,93%); stroke-linecap: butt; stroke-width: 1;"/>
			<path d="M 334.978166,79.514545 L 344.803493,77.600000 Z" style="stroke: rgb(93%,50%,93%); stroke-linecap: butt; stroke-width: 1;"/>
			<path d="M 344.803493,77.600000 L 354.628821,75.685455 Z" style="stroke: rgb(93%,50%,93%); stroke-linecap: butt; stroke-width: 1;"/>
			<path d="M 354.628821,75.685455 L 364.454148,69.941818 Z" style="stroke: rgb(93%,50%,93%); stroke-linecap: butt; stroke-width: 1;"/>
			<path d="M 364.454148,69.941818 L 374.279476,73.770909 Z" style="stroke: rgb(93%,50%,93%); stroke-linecap: butt; stroke-width: 1;"/>
			<path d="M 374.279476,73.770909 L 384.104803,79.514545 Z" style="stroke: rgb(93%,50%,93%); stroke-linecap: butt; stroke-width: 1;"/>
			<path d="M 384.104803,79.514545 L 393.930131,85.258182 Z" style="stroke: rgb(93%,50%,93%); stroke-linecap: butt; stroke-width: 1;"/>
			<path d="M 393.930131,85.258182 L 403.755459,91.001818 Z" style="stroke: rgb(93%,50%,93%); stroke-linecap: butt; stroke-width: 1;"/>
			<path d="M 403.755459,91.001818 L 413.580786,92.916364 Z" style="stroke: rgb(93%,50%,93%); stroke-linecap: butt; stroke-width: 1;"/>
			<path d="M 413.580786,92.916364 L 423.406114,91.001818 Z" style="stroke: rgb(93%,50%,93%); stroke-linecap: butt; stroke-width: 1;"/>
			<path d="M 423.406114,91.001818 L 433.231441,94.830909 Z" style="stroke: rgb(93%,50%,93%); stroke-linecap: butt; stroke-width: 1;"/>
			<path d="M 433.231441,94.830909 L 443.056769,96.745455 Z" style="stroke: rgb(93%,50%,93%); stroke-linecap: butt; stroke-width: 1;"/>
			<path d="M 443.056769,96.745455 L 452.882096,98.660000 Z" style="stroke: rgb(93%,50%,93%); stroke-linecap: butt; stroke-width: 1;"/>
			<path d="M 452.882096,98.660000 L 462.707424,96.745455 Z" style="stroke: rgb(93%,50%,93%); stroke-linecap: butt; stroke-width: 1;"/>
			<path d="M 462.707424,96.745455 L 472.532751,92.916364 Z" style="stroke: rgb(93%,50%,93%); stroke-linecap: butt; stroke-width: 1;"/>
			<path d="M 472.532751,92.916364 L 482.358079,94.830909 Z" style="stroke: rgb(93%,50%,93%); stroke-linecap: butt; stroke-width: 1;"/>
			<path d="M 482.358079,94.830909 L 492.183406,87.172727 Z" style="stroke: rgb(93%,50%,93%); stroke-linecap: butt; stroke-width: 1;"/>
			<path d="M 492.183406,87.172727 L 502.008734,83.343636 Z" style="stroke: rgb(93%,50%,93%); stroke-linecap: butt; stroke-width: 1;"/>
			<path d="M 502.008734,83.343636 L 511.834061,85.258182 Z" style="stroke: rgb(93%,50%,93%); stroke-linecap: butt; stroke-width: 1;"/>
			<path d="M 511.834061,85.258182 L 521.659389,79.514545 Z" style="stroke: rgb(93%,50%,93%); stroke-linecap: butt; stroke-width: 1;"/>
			<path d="M 521.659389,79.514545 L 531.484716,62.283636 Z" style="stroke: rgb(93%,50%,93%); stroke-linecap: butt; stroke-width: 1;"/>
			<path d="M 531.484716,62.283636 L 541.310044,66.112727 Z" style="stroke: rgb(93%,50%,93%); stroke-linecap: butt; stroke-width: 1;"/>
			<path d="M 541.310044,66.112727 L 551.135371,79.514545 Z" style="stroke: rgb(93%,50%,93%); stroke-linecap: butt; stroke-width: 1;"/>
			<path d="M 551.135371,79.514545 L 559.388646,85.258182 Z" style="stroke: rgb(93%,50%,93%); stroke-linecap: butt; stroke-width: 1;"/>
			<polygon points="52.00873 338.6, 129.8253 338.6, 129.8253 343.46, 52.00873 343.46" style="stroke: rgb(85%,43%,57%); stroke-linecap: butt; stroke-width: 1; fill: rgb(85%,43%,57%);"/>
			<polygon points="52.00873 338.6, 62.62009 338.6, 62.62009 343.46, 52.00873 343.46" style="stroke: rgb(100%,0%,0%); stroke-linecap: butt; stroke-width: 1; fill: rgb(100%,0%,0%);"/>
			<polygon points="120 338.6, 129.8253 338.6, 129.8253 343.46, 120 343.46" style="stroke: rgb(100%,0%,0%); stroke-linecap: butt; stroke-width: 1; fill: rgb(100%,0%,0%);"/>
			<polygon points="87.77293 333.74, 165.5895 333.74, 165.5895 338.6, 87.77293 338.6" style="stroke: rgb(85%,43%,57%); stroke-linecap: butt; stroke-width: 1; fill: rgb(85%,43%,57%);"/>
			<polygon points="87.77293 333.74, 98.77729 333.74, 98.77729 338.6, 87.77293 338.6" style="stroke: rgb(100%,0%,0%); stroke-linecap: butt; stroke-width: 1; fill: rgb(100%,0%,0%);"/>
			<polygon points="157.3362 333.74, 165.5895 333.74, 165.5895 338.6, 157.3362 338.6" style="stroke: rgb(100%,0%,0%); stroke-linecap: butt; stroke-width: 1; fill: rgb(100%,0%,0%);"/>
			<polygon points="141.2227 338.6, 214.7162 338.6, 214.7162 343.46, 141.2227 343.46" style="stroke: rgb(85%,43%,57%); stroke-linecap: butt; stroke-width: 1; fill: rgb(85%,43%,57%);"/>
			<polygon points="141.2227 338.6, 149.869 338.6, 149.869 343.46, 141.2227 343.46" style="stroke: rgb(100%,0%,0%); stroke-linecap: butt; stroke-width: 1; fill: rgb(100%,0%,0%);"/>
			<polygon points="206.0699 338.6, 214.7162 338.6, 214.7162 343.46, 206.0699 343.46" style="stroke: rgb(100%,0%,0%); stroke-linecap: butt; stroke-width: 1; fill: rgb(100%,0%,0%);"/>
			<polygon points="206.0699 333.74, 282.3144 333.74, 282.3144 338.6, 206.0699 338.6" style="stroke: rgb(85%,43%,57%); stroke-linecap: butt; stroke-width: 1; fill: rgb(85%,43%,57%);"/>
			<polygon points="206.0699 333.74, 214.7162 333.74, 214.7162 338.6, 206.0699 338.6" style="stroke: rgb(100%,0%,0%); stroke-linecap: butt; stroke-width: 1; fill: rgb(100%,0%,0%);"/>
			<polygon points="274.0611 333.74, 282.3144 333.74, 282.3144 338.6, 274.0611 338.6" style="stroke: rgb(100%,0%,0%); stroke-linecap: butt; stroke-width: 1; fill: rgb(100%,0%,0%);"/>
			<polygon points="215.8952 338.6, 293.7118 338.6, 293.7118 343.46, 215.8952 343.46" style="stroke: rgb(85%,43%,57%); stroke-linecap: butt; stroke-width: 1; fill: rgb(85%,43%,57%);"/>
			<polygon points="215.8952 338.6, 224.9345 338.6, 224.9345 343.46, 215.8952 343.46" style="stroke: rgb(100%,0%,0%); stroke-linecap: butt; stroke-width: 1; fill: rgb(100%,0%,0%);"/>
			<polygon points="285.0655 338.6, 293.7118 338.6, 293.7118 343.46, 285.0655 343.46" style="stroke: rgb(100%,0%,0%); stroke-linecap: butt; stroke-width: 1; fill: rgb(100%,0%,0%);"/>
			<polygon points="300 333.74, 378.2096 333.74, 378.2096 338.6, 300 338.6" style="stroke: rgb(85%,43%,57%); stroke-linecap: butt; stroke-width: 1; fill: rgb(85%,43%,57%);"/>
			<polygon points="300 333.74, 308.2533 333.74, 308.2533 338.6, 300 338.6" style="stroke: rgb(100%,0%,0%); stroke-linecap: butt; stroke-width: 1; fill: rgb(100%,0%,0%);"/>
			<polygon points="369.9563 333.74, 378.2096 333.74, 378.2096 338.6, 369.9563 338.6" style="stroke: rgb(100%,0%,0%); stroke-linecap: butt; stroke-width: 1; fill: rgb(100%,0%,0%);"/>
			<polygon points="316.1135 338.6, 392.7511 338.6, 392.7511 343.46, 316.1135 343.46" style="stroke: rgb(85%,43%,57%); stroke-linecap: butt; stroke-width: 1; fill: rgb(85%,43%,57%);"/>
			<polygon points="316.1135 338.6, 325.5459 338.6, 325.5459 343.46, 316.1135 343.46" style="stroke: rgb(100%,0%,0%); stroke-linecap: butt; stroke-width: 1; fill: rgb(100%,0%,0%);"/>
			<polygon points="383.3188 338.6, 392.7511 338.6, 392.7511 343.46, 383.3188 343.46" style="stroke: rgb(100%,0%,0%); stroke-linecap: butt; stroke-width: 1; fill: rgb(100%,0%,0%);"/>
			<polygon points="378.6026 333.74, 456.4192 333.74, 456.4192 338.6, 378.6026 338.6" style="stroke: rgb(85%,43%,57%); stroke-linecap: butt; stroke-width: 1; fill: rgb(85%,43%,57%);"/>
			<polygon points="378.6026 333.74, 389.607 333.74, 389.607 338.6, 378.6026 338.6" style="stroke: rgb(100%,0%,0%); stroke-linecap: butt; stroke-width: 1; fill: rgb(100%,0%,0%);"/>
			<polygon points="446.9869 333.74, 456.4192 333.74, 456.4192 338.6, 446.9869 338.6" style="stroke: rgb(100%,0%,0%); stroke-linecap: butt; stroke-width: 1; fill: rgb(100%,0%,0%);"/>
			<polygon points="442.6638 338.6, 517.7293 338.6, 517.7293 343.46, 442.6638 343.46" style="stroke: rgb(85%,43%,57%); stroke-linecap: butt; stroke-width: 1; fill: rgb(85%,43%,57%);"/>
			<polygon points="442.6638 338.6, 451.7031 338.6, 451.7031 343.46, 442.6638 343.46" style="stroke: rgb(100%,0%,0%); stroke-linecap: butt; stroke-width: 1; fill: rgb(100%,0%,0%);"/>
			<polygon points="507.9039 338.6, 517.7293 338.6, 517.7293 343.46, 507.9039 343.46" style="stroke: rgb(100%,0%,0%); stroke-linecap: butt; stroke-width: 1; fill: rgb(100%,0%,0%);"/>
			<polygon points="488.6463 333.74, 565.6769 333.74, 565.6769 338.6, 488.6463 338.6" style="stroke: rgb(85%,43%,57%); stroke-linecap: butt; stroke-width: 1; fill: rgb(85%,43%,57%);"/>
			<polygon points="488.6463 333.74, 499.6507 333.74, 499.6507 338.6, 488.6463 338.6" style="stroke: rgb(100%,0%,0%); stroke-linecap: butt; stroke-width: 1; fill: rgb(100%,0%,0%);"/>
			<polygon points="557.0306 333.74, 565.6769 333.74, 565.6769 338.6, 557.0306 338.6" style="stroke: rgb(100%,0%,0%); stroke-linecap: butt; stroke-width: 1; fill: rgb(100%,0%,0%);"/>
			<polygon points="562.5328 338.6, 570 338.6, 570 343.46, 562.5328 343.46" style="stroke: rgb(85%,43%,57%); stroke-linecap: butt; stroke-width: 1; fill: rgb(85%,43%,57%);"/>
			<polygon points="30 158.6, 99.17031 158.6, 99.17031 163.46, 30 163.46" style="stroke: rgb(85%,43%,57%); stroke-linecap: butt; stroke-width: 1; fill: rgb(85%,43%,57%);"/>
			<polygon points="562.5328 338.6, 570 338.6, 570 343.46, 562.5328 343.46" style="stroke: rgb(100%,0%,0%); stroke-linecap: butt; stroke-width: 1; fill: rgb(100%,0%,0%);"/>
			<polygon points="30 158.6, 31.96507 158.6, 31.96507 163.46, 30 163.46" style="stroke: rgb(100%,0%,0%); stroke-linecap: butt; stroke-width: 1; fill: rgb(100%,0%,0%);"/>
			<polygon points="90.91703 158.6, 99.17031 158.6, 99.17031 163.46, 90.91703 163.46" style="stroke: rgb(100%,0%,0%); stroke-linecap: butt; stroke-width: 1; fill: rgb(100%,0%,0%);"/>
			<polygon points="68.9083 153.74, 145.5459 153.74, 145.5459 158.6, 68.9083 158.6" style="stroke: rgb(85%,43%,57%); stroke-linecap: butt; stroke-width: 1; fill: rgb(85%,43%,57%);"/>
			<polygon points="68.9083 153.74, 78.34061 153.74, 78.34061 158.6, 68.9083 158.6" style="stroke: rgb(100%,0%,0%); stroke-linecap: butt; stroke-width: 1; fill: rgb(100%,0%,0%);"/>
			<polygon points="135.7205 153.74, 145.5459 153.74, 145.5459 158.6, 135.7205 158.6" style="stroke: rgb(100%,0%,0%); stroke-linecap: butt; stroke-width: 1; fill: rgb(100%,0%,0%);"/>
			<polygon points="118.4279 158.6, 195.0655 158.6, 195.0655 163.46, 118.4279 163.46" style="stroke: rgb(85%,43%,57%); stroke-linecap: butt; stroke-width: 1; fill: rgb(85%,43%,57%);"/>
			<polygon points="118.4279 158.6, 127.4672 158.6, 127.4672 163.46, 118.4279 163.46" style="stroke: rgb(100%,0%,0%); stroke-linecap: butt; stroke-width: 1; fill: rgb(100%,0%,0%);"/>
			<polygon points="185.6332 158.6, 195.0655 158.6, 195.0655 163.46, 185.6332 163.46" style="stroke: rgb(100%,0%,0%); stroke-linecap: butt; stroke-width: 1; fill: rgb(100%,0%,0%);"/>
			<polygon points="150.262 153.74, 228.4716 153.74, 228.4716 158.6, 150.262 158.6" style="stroke: rgb(85%,43%,57%); stroke-linecap: butt; stroke-width: 1; fill: rgb(85%,43%,57%);"/>
			<polygon points="150.262 153.74, 157.3362 153.74, 157.3362 158.6, 150.262 158.6" style="stroke: rgb(100%,0%,0%); stroke-linecap: butt; stroke-width: 1; fill: rgb(100%,0%,0%);"/>
			<polygon points="217.4672 153.74, 228.4716 153.74, 228.4716 158.6, 217.4672 158.6" style="stroke: rgb(100%,0%,0%); stroke-linecap: butt; stroke-width: 1; fill: rgb(100%,0%,0%);"/>
			<polygon points="195.4585 158.6, 273.6681 158.6, 273.6681 163.46, 195.4585 163.46" style="stroke: rgb(85%,43%,57%); stroke-linecap: butt; stroke-width: 1; fill: rgb(85%,43%,57%);"/>
			<polygon points="195.4585 158.6, 206.4629 158.6, 206.4629 163.46, 195.4585 163.46" style="stroke: rgb(100%,0%,0%); stroke-linecap: butt; stroke-width: 1; fill: rgb(100%,0%,0%);"/>
			<polygon points="265.4148 158.6, 273.6681 158.6, 273.6681 163.46, 265.4148 163.46" style="stroke: rgb(100%,0%,0%); stroke-linecap: butt; stroke-width: 1; fill: rgb(100%,0%,0%);"/>
			<polygon points="239.083 153.74, 314.9345 153.74, 314.9345 158.6, 239.083 158.6" style="stroke: rgb(85%,43%,57%); stroke-linecap: butt; stroke-width: 1; fill: rgb(85%,43%,57%);"/>
			<polygon points="239.083 153.74, 248.5153 153.74, 248.5153 158.6, 239.083 158.6" style="stroke: rgb(100%,0%,0%); stroke-linecap: butt; stroke-width: 1; fill: rgb(100%,0%,0%);"/>
			<polygon points="305.1092 153.74, 314.9345 153.74, 314.9345 158.6, 305.1092 158.6" style="stroke: rgb(100%,0%,0%); stroke-linecap: butt; stroke-width: 1; fill: rgb(100%,0%,0%);"/>
			<polygon points="283.1004 158.6, 359.345 158.6, 359.345 163.46, 283.1004 163.46" style="stroke: rgb(85%,43%,57%); stroke-linecap: butt; stroke-width: 1; fill: rgb(85%,43%,57%);"/>
			<polygon points="283.1004 158.6, 292.9258 158.6, 292.9258 163.46, 283.1004 163.46" style="stroke: rgb(100%,0%,0%); stroke-linecap: butt; stroke-width: 1; fill: rgb(100%,0%,0%);"/>
			<polygon points="349.9127 158.6, 359.345 158.6, 359.345 163.46, 349.9127 163.46" style="stroke: rgb(100%,0%,0%); stroke-linecap: butt; stroke-width: 1; fill: rgb(100%,0%,0%);"/>
			<polygon points="324.7598 153.74, 400.6114 153.74, 400.6114 158.6, 324.7598 158.6" style="stroke: rgb(85%,43%,57%); stroke-linecap: butt; stroke-width: 1; fill: rgb(85%,43%,57%);"/>
			<polygon points="324.7598 153.74, 333.7991 153.74, 333.7991 158.6, 324.7598 158.6" style="stroke: rgb(100%,0%,0%); stroke-linecap: butt; stroke-width: 1; fill: rgb(100%,0%,0%);"/>
			<polygon points="392.3581 153.74, 400.6114 153.74, 400.6114 158.6, 392.3581 158.6" style="stroke: rgb(100%,0%,0%); stroke-linecap: butt; stroke-width: 1; fill: rgb(100%,0%,0%);"/>
			<polygon points="369.5633 158.6, 446.2009 158.6, 446.2009 163.46, 369.5633 163.46" style="stroke: rgb(85%,43%,57%); stroke-linecap: butt; stroke-width: 1; fill: rgb(85%,43%,57%);"/>
			<polygon points="369.5633 158.6, 379.3886 158.6, 379.3886 163.46, 369.5633 163.46" style="stroke: rgb(100%,0%,0%); stroke-linecap: butt; stroke-width: 1; fill: rgb(100%,0%,0%);"/>
			<polygon points="438.3406 158.6, 446.2009 158.6, 446.2009 163.46, 438.3406 163.46" style="stroke: rgb(100%,0%,0%); stroke-linecap: butt; stroke-width: 1; fill: rgb(100%,0%,0%);"/>
			<polygon points="401.7904 153.74, 476.4629 153.74, 476.4629 158.6, 401.7904 158.6" style="stroke: rgb(85%,43%,57%); stroke-linecap: butt; stroke-width: 1; fill: rgb(85%,43%,57%);"/>
			<polygon points="401.7904 153.74, 410.0437 153.74, 410.0437 158.6, 401.7904 158.6" style="stroke: rgb(100%,0%,0%); stroke-linecap: butt; stroke-width: 1; fill: rgb(100%,0%,0%);"/>
			<polygon points="468.2096 153.74, 476.4629 153.74, 476.4629 158.6, 468.2096 158.6" style="stroke: rgb(100%,0%,0%); stroke-linecap: butt; stroke-width: 1; fill: rgb(100%,0%,0%);"/>
			<polygon points="476.8559 158.6, 554.2795 158.6, 554.2795 163.46, 476.8559 163.46" style="stroke: rgb(85%,43%,57%); stroke-linecap: butt; stroke-width: 1; fill: rgb(85%,43%,57%);"/>
			<polygon points="476.8559 158.6, 485.5022 158.6, 485.5022 163.46, 476.8559 163.46" style="stroke: rgb(100%,0%,0%); stroke-linecap: butt; stroke-width: 1; fill: rgb(100%,0%,0%);"/>
			<polygon points="546.0262 158.6, 554.2795 158.6, 554.2795 163.46, 546.0262 163.46" style="stroke: rgb(100%,0%,0%); stroke-linecap: butt; stroke-width: 1; fill: rgb(100%,0%,0%);"/>
			<polygon points="486.2882 153.74, 563.7118 153.74, 563.7118 158.6, 486.2882 158.6" style="stroke: rgb(85%,43%,57%); stroke-linecap: butt; stroke-width: 1; fill: rgb(85%,43%,57%);"/>
			<polygon points="486.2882 153.74, 494.5415 153.74, 494.5415 158.6, 486.2882 158.6" style="stroke: rgb(100%,0%,0%); stroke-linecap: butt; stroke-width: 1; fill: rgb(100%,0%,0%);"/>
			<polygon points="553.8865 153.74, 563.7118 153.74, 563.7118 158.6, 553.8865 158.6" style="stroke: rgb(100%,0%,0%); stroke-linecap: butt; stroke-width: 1; fill: rgb(100%,0%,0%);"/>
			<path d="M 30.000000,257.600000 L 570.000000,257.600000 Z" style="stroke: rgb(0%,0%,0%); stroke-linecap: butt; stroke-width: 1;"/>
			<path d="M 30.000000,236.540000 L 30.000000,278.660000 Z" style="stroke: rgb(0%,0%,0%); stroke-linecap: butt; stroke-width: 1;"/>
			<path d="M 569.213974,56.540000 L 569.213974,98.660000 Z" style="stroke: rgb(0%,0%,0%); stroke-linecap: butt; stroke-width: 1;"/>
			<path d="M 30.000000,77.600000 L 569.213974,77.600000 Z" style="stroke: rgb(0%,0%,0%); stroke-linecap: butt; stroke-width: 1;"/>
			<path d="M 30.000000,56.540000 L 30.000000,98.660000 Z" style="stroke: rgb(0%,0%,0%); stroke-linecap: butt; stroke-width: 1;"/>
			<path d="M 423.013100,257.600000 L 423.013100,268.130000 Z" style="stroke: rgb(0%,0%,0%); stroke-linecap: butt; stroke-width: 1;"/>
			<path d="M 276.026201,77.600000 L 276.026201,88.130000 Z" style="stroke: rgb(0%,0%,0%); stroke-linecap: butt; stroke-width: 1;"/>
			<path d="M 30.000000,338.600000 L 570.000000,338.600000 Z" style="stroke: rgb(0%,0%,0%); stroke-linecap: butt; stroke-width: 1;"/>
			<path d="M 30.000000,333.740000 L 30.000000,343.460000 Z" style="stroke: rgb(0%,0%,0%); stroke-linecap: butt; stroke-width: 1;"/>
			<path d="M 569.213974,153.740000 L 569.213974,163.460000 Z" style="stroke: rgb(0%,0%,0%); stroke-linecap: butt; stroke-width: 1;"/>
			<path d="M 30.000000,158.600000 L 569.213974,158.600000 Z" style="stroke: rgb(0%,0%,0%); stroke-linecap: butt; stroke-width: 1;"/>
			<path d="M 30.000000,153.740000 L 30.000000,163.460000 Z" style="stroke: rgb(0%,0%,0%); stroke-linecap: butt; stroke-width: 1;"/>
			<g transform=" matrix(0.707107,0.707107,-0.707107,0.707107,423.013100,268.130000)">
				<text x="0" y="0" style="font-family: Helvetica; font-size: 6px; fill: rgb(0%,0%,0%);" transform="translate(0,0) scale(1,-1)">1000</text>
			</g>
			<g transform=" matrix(0.707107,0.707107,-0.707107,0.707107,276.026201,88.130000)">
				<text x="0" y="0" style="font-family: Helvetica; font-size: 6px; fill: rgb(0%,0%,0%);" transform="translate(0,0) scale(1,-1)">2000</text>
			</g>
			<g transform=" matrix(0.707107,0.707107,-0.707107,0.707107,30.000000,236.540000)">
				<text x="0" y="0" style="font-family: Helvetica; font-size: 6px; fill: rgb(0%,0%,0%);" transform="translate(0,0) scale(1,-1)">0.120</text>
			</g>
			<g transform=" matrix(0.707107,0.707107,-0.707107,0.707107,30.000000,278.660000)">
				<text x="0" y="0" style="font-family: Helvetica; font-size: 6px; fill: rgb(0%,0%,0%);" transform="translate(0,0) scale(1,-1)">0.560</text>
			</g>
			<g transform=" matrix(0.707107,0.707107,-0.707107,0.707107,30.000000,257.600000)">
				<text x="0" y="0" style="font-family: Helvetica; font-size: 6px; fill: rgb(0%,0%,0%);" transform="translate(0,0) scale(1,-1)"></text>
			</g>
			<g transform=" matrix(0.707107,0.707107,-0.707107,0.707107,30.000000,56.540000)">
				<text x="0" y="0" style="font-family: Helvetica; font-size: 6px; fill: rgb(0%,0%,0%);" transform="translate(0,0) scale(1,-1)">0.120</text>
			</g>
			<g transform=" matrix(0.707107,0.707107,-0.707107,0.707107,30.000000,98.660000)">
				<text x="0" y="0" style="font-family: Helvetica; font-size: 6px; fill: rgb(0%,0%,0%);" transform="translate(0,0) scale(1,-1)">0.560</text>
			</g>
			<g transform=" matrix(0.707107,0.707107,-0.707107,0.707107,30.000000,77.600000)">
				<text x="0" y="0" style="font-family: Helvetica; font-size: 6px; fill: rgb(0%,0%,0%);" transform="translate(0,0) scale(1,-1)"></text>
			</g>
			<g transform=" matrix(1.000000,0.000000,-0.000000,1.000000,90.917031,343.460000)">
				<text x="0" y="0" style="font-family: Helvetica; font-size: 6px; fill: rgb(0%,0%,0%);" transform="translate(0,0) scale(1,-1)">1</text>
			</g>
			<g transform=" matrix(1.000000,0.000000,-0.000000,1.000000,126.681223,333.740000)">
				<text x="0" y="0" style="font-family: Helvetica; font-size: 6px; fill: rgb(0%,0%,0%);" transform="translate(0,0) scale(1,-1)">2</text>
			</g>
			<g transform=" matrix(1.000000,0.000000,-0.000000,1.000000,177.969432,343.460000)">
				<text x="0" y="0" style="font-family: Helvetica; font-size: 6px; fill: rgb(0%,0%,0%);" transform="translate(0,0) scale(1,-1)">3</text>
			</g>
			<g transform=" matrix(1.000000,0.000000,-0.000000,1.000000,244.192140,333.740000)">
				<text x="0" y="0" style="font-family: Helvetica; font-size: 6px; fill: rgb(0%,0%,0%);" transform="translate(0,0) scale(1,-1)">4</text>
			</g>
			<g transform=" matrix(1.000000,0.000000,-0.000000,1.000000,254.803493,343.460000)">
				<text x="0" y="0" style="font-family: Helvetica; font-size: 6px; fill: rgb(0%,0%,0%);" transform="translate(0,0) scale(1,-1)">5</text>
			</g>
			<g transform=" matrix(1.000000,0.000000,-0.000000,1.000000,339.104803,333.740000)">
				<text x="0" y="0" style="font-family: Helvetica; font-size: 6px; fill: rgb(0%,0%,0%);" transform="translate(0,0) scale(1,-1)">6</text>
			</g>
			<g transform=" matrix(1.000000,0.000000,-0.000000,1.000000,354.432314,343.460000)">
				<text x="0" y="0" style="font-family: Helvetica; font-size: 6px; fill: rgb(0%,0%,0%);" transform="translate(0,0) scale(1,-1)">7</text>
			</g>
			<g transform=" matrix(1.000000,0.000000,-0.000000,1.000000,417.510917,333.740000)">
				<text x="0" y="0" style="font-family: Helvetica; font-size: 6px; fill: rgb(0%,0%,0%);" transform="translate(0,0) scale(1,-1)">8</text>
			</g>
			<g transform=" matrix(1.000000,0.000000,-0.000000,1.000000,480.196507,343.460000)">
				<text x="0" y="0" style="font-family: Helvetica; font-size: 6px; fill: rgb(0%,0%,0%);" transform="translate(0,0) scale(1,-1)">9</text>
			</g>
			<g transform=" matrix(1.000000,0.000000,-0.000000,1.000000,527.161572,333.740000)">
				<text x="0" y="0" style="font-family: Helvetica; font-size: 6px; fill: rgb(0%,0%,0%);" transform="translate(0,0) scale(1,-1)">10</text>
			</g>
			<g transform=" matrix(1.000000,0.000000,-0.000000,1.000000,566.266376,343.460000)">
				<text x="0" y="0" style="font-family: Helvetica; font-size: 6px; fill: rgb(0%,0%,0%);" transform="translate(0,0) scale(1,-1)">11</text>
			</g>
			<g transform=" matrix(1.000000,0.000000,-0.000000,1.000000,64.585153,163.460000)">
				<text x="0" y="0" style="font-family: Helvetica; font-size: 6px; fill: rgb(0%,0%,0%);" transform="translate(0,0) scale(1,-1)">11</text>
			</g>
			<g transform=" matrix(1.000000,0.000000,-0.000000,1.000000,107.227074,153.740000)">
				<text x="0" y="0" style="font-family: Helvetica; font-size: 6px; fill: rgb(0%,0%,0%);" transform="translate(0,0) scale(1,-1)">12</text>
			</g>
			<g transform=" matrix(1.000000,0.000000,-0.000000,1.000000,156.746725,163.460000)">
				<text x="0" y="0" style="font-family: Helvetica; font-size: 6px; fill: rgb(0%,0%,0%);" transform="translate(0,0) scale(1,-1)">13</text>
			</g>
			<g transform=" matrix(1.000000,0.000000,-0.000000,1.000000,189.366812,153.740000)">
				<text x="0" y="0" style="font-family: Helvetica; font-size: 6px; fill: rgb(0%,0%,0%);" transform="translate(0,0) scale(1,-1)">14</text>
			</g>
			<g transform=" matrix(1.000000,0.000000,-0.000000,1.000000,234.563319,163.460000)">
				<text x="0" y="0" style="font-family: Helvetica; font-size: 6px; fill: rgb(0%,0%,0%);" transform="translate(0,0) scale(1,-1)">15</text>
			</g>
			<g transform=" matrix(1.000000,0.000000,-0.000000,1.000000,277.008734,153.740000)">
				<text x="0" y="0" style="font-family: Helvetica; font-size: 6px; fill: rgb(0%,0%,0%);" transform="translate(0,0) scale(1,-1)">16</text>
			</g>
			<g transform=" matrix(1.000000,0.000000,-0.000000,1.000000,321.222707,163.460000)">
				<text x="0" y="0" style="font-family: Helvetica; font-size: 6px; fill: rgb(0%,0%,0%);" transform="translate(0,0) scale(1,-1)">17</text>
			</g>
			<g transform=" matrix(1.000000,0.000000,-0.000000,1.000000,362.685590,153.740000)">
				<text x="0" y="0" style="font-family: Helvetica; font-size: 6px; fill: rgb(0%,0%,0%);" transform="translate(0,0) scale(1,-1)">18</text>
			</g>
			<g transform=" matrix(1.000000,0.000000,-0.000000,1.000000,407.882096,163.460000)">
				<text x="0" y="0" style="font-family: Helvetica; font-size: 6px; fill: rgb(0%,0%,0%);" transform="translate(0,0) scale(1,-1)">19</text>
			</g>
			<g transform=" matrix(1.000000,0.000000,-0.000000,1.000000,439.126638,153.740000)">
				<text x="0" y="0" style="font-family: Helvetica; font-size: 6px; fill: rgb(0%,0%,0%);" transform="translate(0,0) scale(1,-1)">20</text>
			</g>
			<g transform=" matrix(1.000000,0.000000,-0.000000,1.000000,515.567686,163.460000)">
				<text x="0" y="0" style="font-family: Helvetica; font-size: 6px; fill: rgb(0%,0%,0%);" transform="translate(0,0) scale(1,-1)">21</text>
			</g>
			<g transform=" matrix(1.000000,0.000000,-0.000000,1.000000,525.000000,153.740000)">
				<text x="0" y="0" style="font-family: Helvetica; font-size: 6px; fill: rgb(0%,0%,0%);" transform="translate(0,0) scale(1,-1)">22</text>
			</g>
		</g>
	</g>
</svg>
