<?xml version="1.0" encoding="utf-8"?>
<!DOCTYPE svg
  PUBLIC '-//W3C//DTD SVG 1.0//EN'
  'http://www.w3.org/TR/2001/REC-SVG-20010904/DTD/svg10.dtd'>
<svg width="600" height="400" preserveAspectRatio="xMinYMin meet" viewBox="0 0 600 400" xmlns="http://www.w3.org/2000/svg" version="1.0" fill-rule="evenodd" xmlns:xlink="http://www.w3.org/1999/xlink">
	<title>...</title>
	<desc>...</desc>
	<clipPath id="clip">
		<rect x="0" y="0" width="600" height="400"/>
	</clipPath>
	<g id="group" transform="scale(1,-1) translate(0,-400)" style="clip-path: url(#clip)">
		<g transform="">
			<path d="M 40.188679,259.004000 L 40.188679,259.004000 Z" style="stroke: rgb(93%,50%,93%); stroke-linecap: butt; stroke-width: 1;"/>
			<path d="M 40.188679,259.004000 L 50.377358,256.196000 Z" style="stroke: rgb(93%,50%,93%); stroke-linecap: butt; stroke-width: 1;"/>
			<path d="M 50.377358,256.196000 L 60.566038,250.580000 Z" style="stroke: rgb(93%,50%,93%); stroke-linecap: butt; stroke-width: 1;"/>
			<path d="M 60.566038,250.580000 L 70.754717,256.196000 Z" style="stroke: rgb(93%,50%,93%); stroke-linecap: butt; stroke-width: 1;"/>
			<path d="M 70.754717,256.196000 L 80.943396,259.004000 Z" style="stroke: rgb(93%,50%,93%); stroke-linecap: butt; stroke-width: 1;"/>
			<path d="M 80.943396,259.004000 L 91.132075,249.176000 Z" style="stroke: rgb(93%,50%,93%); stroke-linecap: butt; stroke-width: 1;"/>
			<path d="M 91.132075,249.176000 L 101.320755,247.772000 Z" style="stroke: rgb(93%,50%,93%); stroke-linecap: butt; stroke-width: 1;"/>
			<path d="M 101.320755,247.772000 L 111.509434,257.600000 Z" style="stroke: rgb(93%,50%,93%); stroke-linecap: butt; stroke-width: 1;"/>
			<path d="M 111.509434,257.600000 L 121.698113,259.004000 Z" style="stroke: rgb(93%,50%,93%); stroke-linecap: butt; stroke-width: 1;"/>
			<path d="M 121.698113,259.004000 L 131.886792,257.600000 Z" style="stroke: rgb(93%,50%,93%); stroke-linecap: butt; stroke-width: 1;"/>
			<path d="M 131.886792,257.600000 L 142.075472,260.408000 Z" style="stroke: rgb(93%,50%,93%); stroke-linecap: butt; stroke-width: 1;"/>
			<path d="M 142.075472,260.408000 L 152.264151,253.388000 Z" style="stroke: rgb(93%,50%,93%); stroke-linecap: butt; stroke-width: 1;"/>
			<path d="M 152.264151,253.388000 L 162.452830,247.772000 Z" style="stroke: rgb(93%,50%,93%); stroke-linecap: butt; stroke-width: 1;"/>
			<path d="M 162.452830,247.772000 L 172.641509,251.984000 Z" style="stroke: rgb(93%,50%,93%); stroke-linecap: butt; stroke-width: 1;"/>
			<path d="M 172.641509,251.984000 L 182.830189,260.408000 Z" style="stroke: rgb(93%,50%,93%); stroke-linecap: butt; stroke-width: 1;"/>
			<path d="M 182.830189,260.408000 L 193.018868,266.024000 Z" style="stroke: rgb(93%,50%,93%); stroke-linecap: butt; stroke-width: 1;"/>
			<path d="M 193.018868,266.024000 L 203.207547,266.024000 Z" style="stroke: rgb(93%,50%,93%); stroke-linecap: butt; stroke-width: 1;"/>
			<path d="M 203.207547,266.024000 L 213.396226,261.812000 Z" style="stroke: rgb(93%,50%,93%); stroke-linecap: butt; stroke-width: 1;"/>
			<path d="M 213.396226,261.812000 L 223.584906,253.388000 Z" style="stroke: rgb(93%,50%,93%); stroke-linecap: butt; stroke-width: 1;"/>
			<path d="M 223.584906,253.388000 L 233.773585,247.772000 Z" style="stroke: rgb(93%,50%,93%); stroke-linecap: butt; stroke-width: 1;"/>
			<path d="M 233.773585,247.772000 L 243.962264,249.176000 Z" style="stroke: rgb(93%,50%,93%); stroke-linecap: butt; stroke-width: 1;"/>
			<path d="M 243.962264,249.176000 L 254.150943,253.388000 Z" style="stroke: rgb(93%,50%,93%); stroke-linecap: butt; stroke-width: 1;"/>
			<path d="M 254.150943,253.388000 L 264.339623,257.600000 Z" style="stroke: rgb(93%,50%,93%); stroke-linecap: butt; stroke-width: 1;"/>
			<path d="M 264.339623,257.600000 L 274.528302,259.004000 Z" style="stroke: rgb(93%,50%,93%); stroke-linecap: butt; stroke-width: 1;"/>
			<path d="M 274.528302,259.004000 L 284.716981,259.004000 Z" style="stroke: rgb(93%,50%,93%); stroke-linecap: butt; stroke-width: 1;"/>
			<path d="M 284.716981,259.004000 L 294.905660,256.196000 Z" style="stroke: rgb(93%,50%,93%); stroke-linecap: butt; stroke-width: 1;"/>
			<path d="M 294.905660,256.196000 L 305.094340,247.772000 Z" style="stroke: rgb(93%,50%,93%); stroke-linecap: butt; stroke-width: 1;"/>
			<path d="M 305.094340,247.772000 L 315.283019,250.580000 Z" style="stroke: rgb(93%,50%,93%); stroke-linecap: butt; stroke-width: 1;"/>
			<path d="M 315.283019,250.580000 L 325.471698,261.812000 Z" style="stroke: rgb(93%,50%,93%); stroke-linecap: butt; stroke-width: 1;"/>
			<path d="M 325.471698,261.812000 L 335.660377,260.408000 Z" style="stroke: rgb(93%,50%,93%); stroke-linecap: butt; stroke-width: 1;"/>
			<path d="M 335.660377,260.408000 L 345.849057,253.388000 Z" style="stroke: rgb(93%,50%,93%); stroke-linecap: butt; stroke-width: 1;"/>
			<path d="M 345.849057,253.388000 L 356.037736,243.560000 Z" style="stroke: rgb(93%,50%,93%); stroke-linecap: butt; stroke-width: 1;"/>
			<path d="M 356.037736,243.560000 L 366.226415,236.540000 Z" style="stroke: rgb(93%,50%,93%); stroke-linecap: butt; stroke-width: 1;"/>
			<path d="M 366.226415,236.540000 L 376.415094,242.156000 Z" style="stroke: rgb(93%,50%,93%); stroke-linecap: butt; stroke-width: 1;"/>
			<path d="M 376.415094,242.156000 L 386.603774,249.176000 Z" style="stroke: rgb(93%,50%,93%); stroke-linecap: butt; stroke-width: 1;"/>
			<path d="M 386.603774,249.176000 L 396.792453,253.388000 Z" style="stroke: rgb(93%,50%,93%); stroke-linecap: butt; stroke-width: 1;"/>
			<path d="M 396.792453,253.388000 L 406.981132,253.388000 Z" style="stroke: rgb(93%,50%,93%); stroke-linecap: butt; stroke-width: 1;"/>
			<path d="M 406.981132,253.388000 L 417.169811,260.408000 Z" style="stroke: rgb(93%,50%,93%); stroke-linecap: butt; stroke-width: 1;"/>
			<path d="M 417.169811,260.408000 L 427.358491,270.236000 Z" style="stroke: rgb(93%,50%,93%); stroke-linecap: butt; stroke-width: 1;"/>
			<path d="M 427.358491,270.236000 L 437.547170,263.216000 Z" style="stroke: rgb(93%,50%,93%); stroke-linecap: butt; stroke-width: 1;"/>
			<path d="M 437.547170,263.216000 L 447.735849,259.004000 Z" style="stroke: rgb(93%,50%,93%); stroke-linecap: butt; stroke-width: 1;"/>
			<path d="M 447.735849,259.004000 L 457.924528,257.600000 Z" style="stroke: rgb(93%,50%,93%); stroke-linecap: butt; stroke-width: 1;"/>
			<path d="M 457.924528,257.600000 L 468.113208,259.004000 Z" style="stroke: rgb(93%,50%,93%); stroke-linecap: butt; stroke-width: 1;"/>
			<path d="M 468.113208,259.004000 L 478.301887,257.600000 Z" style="stroke: rgb(93%,50%,93%); stroke-linecap: butt; stroke-width: 1;"/>
			<path d="M 478.301887,257.600000 L 488.490566,256.196000 Z" style="stroke: rgb(93%,50%,93%); stroke-linecap: butt; stroke-width: 1;"/>
			<path d="M 488.490566,256.196000 L 498.679245,263.216000 Z" style="stroke: rgb(93%,50%,93%); stroke-linecap: butt; stroke-width: 1;"/>
			<path d="M 498.679245,263.216000 L 508.867925,261.812000 Z" style="stroke: rgb(93%,50%,93%); stroke-linecap: butt; stroke-width: 1;"/>
			<path d="M 508.867925,261.812000 L 519.056604,257.600000 Z" style="stroke: rgb(93%,50%,93%); stroke-linecap: butt; stroke-width: 1;"/>
			<path d="M 519.056604,257.600000 L 529.245283,260.408000 Z" style="stroke: rgb(93%,50%,93%); stroke-linecap: butt; stroke-width: 1;"/>
			<path d="M 529.245283,260.408000 L 539.433962,260.408000 Z" style="stroke: rgb(93%,50%,93%); stroke-linecap: butt; stroke-width: 1;"/>
			<path d="M 539.433962,260.408000 L 549.622642,251.984000 Z" style="stroke: rgb(93%,50%,93%); stroke-linecap: butt; stroke-width: 1;"/>
			<path d="M 549.622642,251.984000 L 559.811321,253.388000 Z" style="stroke: rgb(93%,50%,93%); stroke-linecap: butt; stroke-width: 1;"/>
			<path d="M 559.811321,253.388000 L 570.000000,260.408000 Z" style="stroke: rgb(93%,50%,93%); stroke-linecap: butt; stroke-width: 1;"/>
			<path d="M 30.000000,80.408000 L 30.000000,80.408000 Z" style="stroke: rgb(93%,50%,93%); stroke-linecap: butt; stroke-width: 1;"/>
			<path d="M 30.000000,80.408000 L 40.188679,81.812000 Z" style="stroke: rgb(93%,50%,93%); stroke-linecap: butt; stroke-width: 1;"/>
			<path d="M 40.188679,81.812000 L 50.377358,83.216000 Z" style="stroke: rgb(93%,50%,93%); stroke-linecap: butt; stroke-width: 1;"/>
			<path d="M 50.377358,83.216000 L 60.566038,76.196000 Z" style="stroke: rgb(93%,50%,93%); stroke-linecap: butt; stroke-width: 1;"/>
			<path d="M 60.566038,76.196000 L 70.754717,71.984000 Z" style="stroke: rgb(93%,50%,93%); stroke-linecap: butt; stroke-width: 1;"/>
			<path d="M 70.754717,71.984000 L 80.943396,76.196000 Z" style="stroke: rgb(93%,50%,93%); stroke-linecap: butt; stroke-width: 1;"/>
			<path d="M 80.943396,76.196000 L 91.132075,81.812000 Z" style="stroke: rgb(93%,50%,93%); stroke-linecap: butt; stroke-width: 1;"/>
			<path d="M 91.132075,81.812000 L 101.320755,81.812000 Z" style="stroke: rgb(93%,50%,93%); stroke-linecap: butt; stroke-width: 1;"/>
			<path d="M 101.320755,81.812000 L 111.509434,73.388000 Z" style="stroke: rgb(93%,50%,93%); stroke-linecap: butt; stroke-width: 1;"/>
			<path d="M 111.509434,73.388000 L 121.698113,77.600000 Z" style="stroke: rgb(93%,50%,93%); stroke-linecap: butt; stroke-width: 1;"/>
			<path d="M 121.698113,77.600000 L 131.886792,81.812000 Z" style="stroke: rgb(93%,50%,93%); stroke-linecap: butt; stroke-width: 1;"/>
			<path d="M 131.886792,81.812000 L 142.075472,81.812000 Z" style="stroke: rgb(93%,50%,93%); stroke-linecap: butt; stroke-width: 1;"/>
			<path d="M 142.075472,81.812000 L 152.264151,83.216000 Z" style="stroke: rgb(93%,50%,93%); stroke-linecap: butt; stroke-width: 1;"/>
			<path d="M 152.264151,83.216000 L 162.452830,87.428000 Z" style="stroke: rgb(93%,50%,93%); stroke-linecap: butt; stroke-width: 1;"/>
			<path d="M 162.452830,87.428000 L 172.641509,84.620000 Z" style="stroke: rgb(93%,50%,93%); stroke-linecap: butt; stroke-width: 1;"/>
			<path d="M 172.641509,84.620000 L 182.830189,77.600000 Z" style="stroke: rgb(93%,50%,93%); stroke-linecap: butt; stroke-width: 1;"/>
			<path d="M 182.830189,77.600000 L 193.018868,71.984000 Z" style="stroke: rgb(93%,50%,93%); stroke-linecap: butt; stroke-width: 1;"/>
			<path d="M 193.018868,71.984000 L 203.207547,71.984000 Z" style="stroke: rgb(93%,50%,93%); stroke-linecap: butt; stroke-width: 1;"/>
			<path d="M 203.207547,71.984000 L 213.396226,79.004000 Z" style="stroke: rgb(93%,50%,93%); stroke-linecap: butt; stroke-width: 1;"/>
			<path d="M 213.396226,79.004000 L 223.584906,81.812000 Z" style="stroke: rgb(93%,50%,93%); stroke-linecap: butt; stroke-width: 1;"/>
			<path d="M 223.584906,81.812000 L 233.773585,81.812000 Z" style="stroke: rgb(93%,50%,93%); stroke-linecap: butt; stroke-width: 1;"/>
			<path d="M 233.773585,81.812000 L 243.962264,84.620000 Z" style="stroke: rgb(93%,50%,93%); stroke-linecap: butt; stroke-width: 1;"/>
			<path d="M 243.962264,84.620000 L 254.150943,84.620000 Z" style="stroke: rgb(93%,50%,93%); stroke-linecap: butt; stroke-width: 1;"/>
			<path d="M 254.150943,84.620000 L 264.339623,83.216000 Z" style="stroke: rgb(93%,50%,93%); stroke-linecap: butt; stroke-width: 1;"/>
			<path d="M 264.339623,83.216000 L 274.528302,81.812000 Z" style="stroke: rgb(93%,50%,93%); stroke-linecap: butt; stroke-width: 1;"/>
			<path d="M 274.528302,81.812000 L 284.716981,73.388000 Z" style="stroke: rgb(93%,50%,93%); stroke-linecap: butt; stroke-width: 1;"/>
			<path d="M 284.716981,73.388000 L 294.905660,69.176000 Z" style="stroke: rgb(93%,50%,93%); stroke-linecap: butt; stroke-width: 1;"/>
			<path d="M 294.905660,69.176000 L 305.094340,76.196000 Z" style="stroke: rgb(93%,50%,93%); stroke-linecap: butt; stroke-width: 1;"/>
			<path d="M 305.094340,76.196000 L 315.283019,91.640000 Z" style="stroke: rgb(93%,50%,93%); stroke-linecap: butt; stroke-width: 1;"/>
			<path d="M 315.283019,91.640000 L 325.471698,98.660000 Z" style="stroke: rgb(93%,50%,93%); stroke-linecap: butt; stroke-width: 1;"/>
			<path d="M 325.471698,98.660000 L 335.660377,88.832000 Z" style="stroke: rgb(93%,50%,93%); stroke-linecap: butt; stroke-width: 1;"/>
			<path d="M 335.660377,88.832000 L 345.849057,79.004000 Z" style="stroke: rgb(93%,50%,93%); stroke-linecap: butt; stroke-width: 1;"/>
			<path d="M 345.849057,79.004000 L 356.037736,77.600000 Z" style="stroke: rgb(93%,50%,93%); stroke-linecap: butt; stroke-width: 1;"/>
			<path d="M 356.037736,77.600000 L 366.226415,80.408000 Z" style="stroke: rgb(93%,50%,93%); stroke-linecap: butt; stroke-width: 1;"/>
			<path d="M 366.226415,80.408000 L 376.415094,84.620000 Z" style="stroke: rgb(93%,50%,93%); stroke-linecap: butt; stroke-width: 1;"/>
			<path d="M 376.415094,84.620000 L 386.603774,84.620000 Z" style="stroke: rgb(93%,50%,93%); stroke-linecap: butt; stroke-width: 1;"/>
			<path d="M 386.603774,84.620000 L 396.792453,80.408000 Z" style="stroke: rgb(93%,50%,93%); stroke-linecap: butt; stroke-width: 1;"/>
			<path d="M 396.792453,80.408000 L 406.981132,83.216000 Z" style="stroke: rgb(93%,50%,93%); stroke-linecap: butt; stroke-width: 1;"/>
			<path d="M 406.981132,83.216000 L 417.169811,86.024000 Z" style="stroke: rgb(93%,50%,93%); stroke-linecap: butt; stroke-width: 1;"/>
			<path d="M 417.169811,86.024000 L 427.358491,81.812000 Z" style="stroke: rgb(93%,50%,93%); stroke-linecap: butt; stroke-width: 1;"/>
			<path d="M 427.358491,81.812000 L 437.547170,86.024000 Z" style="stroke: rgb(93%,50%,93%); stroke-linecap: butt; stroke-width: 1;"/>
			<path d="M 437.547170,86.024000 L 447.735849,86.024000 Z" style="stroke: rgb(93%,50%,93%); stroke-linecap: butt; stroke-width: 1;"/>
			<path d="M 447.735849,86.024000 L 457.924528,81.812000 Z" style="stroke: rgb(93%,50%,93%); stroke-linecap: butt; stroke-width: 1;"/>
			<path d="M 457.924528,81.812000 L 468.113208,87.428000 Z" style="stroke: rgb(93%,50%,93%); stroke-linecap: butt; stroke-width: 1;"/>
			<path d="M 468.113208,87.428000 L 478.301887,93.044000 Z" style="stroke: rgb(93%,50%,93%); stroke-linecap: butt; stroke-width: 1;"/>
			<path d="M 478.301887,93.044000 L 488.490566,87.428000 Z" style="stroke: rgb(93%,50%,93%); stroke-linecap: butt; stroke-width: 1;"/>
			<path d="M 488.490566,87.428000 L 498.679245,88.832000 Z" style="stroke: rgb(93%,50%,93%); stroke-linecap: butt; stroke-width: 1;"/>
			<path d="M 498.679245,88.832000 L 508.867925,88.832000 Z" style="stroke: rgb(93%,50%,93%); stroke-linecap: butt; stroke-width: 1;"/>
			<path d="M 508.867925,88.832000 L 519.056604,83.216000 Z" style="stroke: rgb(93%,50%,93%); stroke-linecap: butt; stroke-width: 1;"/>
			<path d="M 519.056604,83.216000 L 529.245283,81.812000 Z" style="stroke: rgb(93%,50%,93%); stroke-linecap: butt; stroke-width: 1;"/>
			<path d="M 529.245283,81.812000 L 539.433962,86.024000 Z" style="stroke: rgb(93%,50%,93%); stroke-linecap: butt; stroke-width: 1;"/>
			<path d="M 539.433962,86.024000 L 549.622642,90.236000 Z" style="stroke: rgb(93%,50%,93%); stroke-linecap: butt; stroke-width: 1;"/>
			<path d="M 549.622642,90.236000 L 559.403774,84.620000 Z" style="stroke: rgb(93%,50%,93%); stroke-linecap: butt; stroke-width: 1;"/>
			<polygon points="107.0264 338.6, 187.3132 338.6, 187.3132 343.46, 107.0264 343.46" style="stroke: rgb(85%,43%,57%); stroke-linecap: butt; stroke-width: 1; fill: rgb(85%,43%,57%);"/>
			<polygon points="107.0264 338.6, 117.6226 338.6, 117.6226 343.46, 107.0264 343.46" style="stroke: rgb(100%,0%,0%); stroke-linecap: butt; stroke-width: 1; fill: rgb(100%,0%,0%);"/>
			<polygon points="175.9019 338.6, 187.3132 338.6, 187.3132 343.46, 175.9019 343.46" style="stroke: rgb(100%,0%,0%); stroke-linecap: butt; stroke-width: 1; fill: rgb(100%,0%,0%);"/>
			<polygon points="133.517 333.74, 211.766 333.74, 211.766 338.6, 133.517 338.6" style="stroke: rgb(85%,43%,57%); stroke-linecap: butt; stroke-width: 1; fill: rgb(85%,43%,57%);"/>
			<polygon points="133.517 333.74, 144.1132 333.74, 144.1132 338.6, 133.517 338.6" style="stroke: rgb(100%,0%,0%); stroke-linecap: butt; stroke-width: 1; fill: rgb(100%,0%,0%);"/>
			<polygon points="203.2075 333.74, 211.766 333.74, 211.766 338.6, 203.2075 338.6" style="stroke: rgb(100%,0%,0%); stroke-linecap: butt; stroke-width: 1; fill: rgb(100%,0%,0%);"/>
			<polygon points="201.5774 338.6, 282.2717 338.6, 282.2717 343.46, 201.5774 343.46" style="stroke: rgb(85%,43%,57%); stroke-linecap: butt; stroke-width: 1; fill: rgb(85%,43%,57%);"/>
			<polygon points="201.5774 338.6, 210.1358 338.6, 210.1358 343.46, 201.5774 343.46" style="stroke: rgb(100%,0%,0%); stroke-linecap: butt; stroke-width: 1; fill: rgb(100%,0%,0%);"/>
			<polygon points="272.8981 338.6, 282.2717 338.6, 282.2717 343.46, 272.8981 343.46" style="stroke: rgb(100%,0%,0%); stroke-linecap: butt; stroke-width: 1; fill: rgb(100%,0%,0%);"/>
			<polygon points="424.5057 333.74, 503.5698 333.74, 503.5698 338.6, 424.5057 338.6" style="stroke: rgb(85%,43%,57%); stroke-linecap: butt; stroke-width: 1; fill: rgb(85%,43%,57%);"/>
			<polygon points="424.5057 333.74, 432.6566 333.74, 432.6566 338.6, 424.5057 338.6" style="stroke: rgb(100%,0%,0%); stroke-linecap: butt; stroke-width: 1; fill: rgb(100%,0%,0%);"/>
			<polygon points="494.6038 333.74, 503.5698 333.74, 503.5698 338.6, 494.6038 338.6" style="stroke: rgb(100%,0%,0%); stroke-linecap: butt; stroke-width: 1; fill: rgb(100%,0%,0%);"/>
			<polygon points="434.6943 338.6, 513.7585 338.6, 513.7585 343.46, 434.6943 343.46" style="stroke: rgb(85%,43%,57%); stroke-linecap: butt; stroke-width: 1; fill: rgb(85%,43%,57%);"/>
			<polygon points="434.6943 338.6, 443.6604 338.6, 443.6604 343.46, 434.6943 343.46" style="stroke: rgb(100%,0%,0%); stroke-linecap: butt; stroke-width: 1; fill: rgb(100%,0%,0%);"/>
			<polygon points="504.7925 338.6, 513.7585 338.6, 513.7585 343.46, 504.7925 343.46" style="stroke: rgb(100%,0%,0%); stroke-linecap: butt; stroke-width: 1; fill: rgb(100%,0%,0%);"/>
			<polygon points="514.5736 333.74, 570 333.74, 570 338.6, 514.5736 338.6" style="stroke: rgb(85%,43%,57%); stroke-linecap: butt; stroke-width: 1; fill: rgb(85%,43%,57%);"/>
			<polygon points="30 153.74, 52.00755 153.74, 52.00755 158.6, 30 158.6" style="stroke: rgb(85%,43%,57%); stroke-linecap: butt; stroke-width: 1; fill: rgb(85%,43%,57%);"/>
			<polygon points="514.5736 333.74, 523.5396 333.74, 523.5396 338.6, 514.5736 338.6" style="stroke: rgb(100%,0%,0%); stroke-linecap: butt; stroke-width: 1; fill: rgb(100%,0%,0%);"/>
			<polygon points="43.44906 153.74, 52.00755 153.74, 52.00755 158.6, 43.44906 158.6" style="stroke: rgb(100%,0%,0%); stroke-linecap: butt; stroke-width: 1; fill: rgb(100%,0%,0%);"/>
			<polygon points="567.9623 338.6, 570 338.6, 570 343.46, 567.9623 343.46" style="stroke: rgb(85%,43%,57%); stroke-linecap: butt; stroke-width: 1; fill: rgb(85%,43%,57%);"/>
			<polygon points="30 158.6, 108.6566 158.6, 108.6566 163.46, 30 163.46" style="stroke: rgb(85%,43%,57%); stroke-linecap: butt; stroke-width: 1; fill: rgb(85%,43%,57%);"/>
			<polygon points="567.9623 338.6, 570 338.6, 570 343.46, 567.9623 343.46" style="stroke: rgb(100%,0%,0%); stroke-linecap: butt; stroke-width: 1; fill: rgb(100%,0%,0%);"/>
			<polygon points="30 158.6, 37.33585 158.6, 37.33585 163.46, 30 163.46" style="stroke: rgb(100%,0%,0%); stroke-linecap: butt; stroke-width: 1; fill: rgb(100%,0%,0%);"/>
			<polygon points="98.87547 158.6, 108.6566 158.6, 108.6566 163.46, 98.87547 163.46" style="stroke: rgb(100%,0%,0%); stroke-linecap: butt; stroke-width: 1; fill: rgb(100%,0%,0%);"/>
			<polygon points="74.42264 153.74, 153.4868 153.74, 153.4868 158.6, 74.42264 158.6" style="stroke: rgb(85%,43%,57%); stroke-linecap: butt; stroke-width: 1; fill: rgb(85%,43%,57%);"/>
			<polygon points="74.42264 153.74, 85.42642 153.74, 85.42642 158.6, 74.42264 158.6" style="stroke: rgb(100%,0%,0%); stroke-linecap: butt; stroke-width: 1; fill: rgb(100%,0%,0%);"/>
			<polygon points="144.5208 153.74, 153.4868 153.74, 153.4868 158.6, 144.5208 158.6" style="stroke: rgb(100%,0%,0%); stroke-linecap: butt; stroke-width: 1; fill: rgb(100%,0%,0%);"/>
			<polygon points="150.2264 158.6, 230.5132 158.6, 230.5132 163.46, 150.2264 163.46" style="stroke: rgb(85%,43%,57%); stroke-linecap: butt; stroke-width: 1; fill: rgb(85%,43%,57%);"/>
			<polygon points="150.2264 158.6, 160.4151 158.6, 160.4151 163.46, 150.2264 163.46" style="stroke: rgb(100%,0%,0%); stroke-linecap: butt; stroke-width: 1; fill: rgb(100%,0%,0%);"/>
			<polygon points="221.1396 158.6, 230.5132 158.6, 230.5132 163.46, 221.1396 163.46" style="stroke: rgb(100%,0%,0%); stroke-linecap: butt; stroke-width: 1; fill: rgb(100%,0%,0%);"/>
			<polygon points="156.3396 153.74, 237.034 153.74, 237.034 158.6, 156.3396 158.6" style="stroke: rgb(85%,43%,57%); stroke-linecap: butt; stroke-width: 1; fill: rgb(85%,43%,57%);"/>
			<polygon points="156.3396 153.74, 167.3434 153.74, 167.3434 158.6, 156.3396 158.6" style="stroke: rgb(100%,0%,0%); stroke-linecap: butt; stroke-width: 1; fill: rgb(100%,0%,0%);"/>
			<polygon points="228.0679 153.74, 237.034 153.74, 237.034 158.6, 228.0679 158.6" style="stroke: rgb(100%,0%,0%); stroke-linecap: butt; stroke-width: 1; fill: rgb(100%,0%,0%);"/>
			<polygon points="259.0415 158.6, 337.2906 158.6, 337.2906 163.46, 259.0415 163.46" style="stroke: rgb(85%,43%,57%); stroke-linecap: butt; stroke-width: 1; fill: rgb(85%,43%,57%);"/>
			<polygon points="259.0415 158.6, 269.2302 158.6, 269.2302 163.46, 259.0415 163.46" style="stroke: rgb(100%,0%,0%); stroke-linecap: butt; stroke-width: 1; fill: rgb(100%,0%,0%);"/>
			<polygon points="328.7321 158.6, 337.2906 158.6, 337.2906 163.46, 328.7321 163.46" style="stroke: rgb(100%,0%,0%); stroke-linecap: butt; stroke-width: 1; fill: rgb(100%,0%,0%);"/>
			<polygon points="305.5019 153.74, 384.9736 153.74, 384.9736 158.6, 305.5019 158.6" style="stroke: rgb(85%,43%,57%); stroke-linecap: butt; stroke-width: 1; fill: rgb(85%,43%,57%);"/>
			<polygon points="305.5019 153.74, 315.283 153.74, 315.283 158.6, 305.5019 158.6" style="stroke: rgb(100%,0%,0%); stroke-linecap: butt; stroke-width: 1; fill: rgb(100%,0%,0%);"/>
			<polygon points="374.3774 153.74, 384.9736 153.74, 384.9736 158.6, 374.3774 158.6" style="stroke: rgb(100%,0%,0%); stroke-linecap: butt; stroke-width: 1; fill: rgb(100%,0%,0%);"/>
			<polygon points="367.4491 158.6, 444.4755 158.6, 444.4755 163.46, 367.4491 163.46" style="stroke: rgb(85%,43%,57%); stroke-linecap: butt; stroke-width: 1; fill: rgb(85%,43%,57%);"/>
			<polygon points="367.4491 158.6, 376.0075 158.6, 376.0075 163.46, 367.4491 163.46" style="stroke: rgb(100%,0%,0%); stroke-linecap: butt; stroke-width: 1; fill: rgb(100%,0%,0%);"/>
			<polygon points="435.917 158.6, 444.4755 158.6, 444.4755 163.46, 435.917 163.46" style="stroke: rgb(100%,0%,0%); stroke-linecap: butt; stroke-width: 1; fill: rgb(100%,0%,0%);"/>
			<polygon points="394.3472 153.74, 473.0038 153.74, 473.0038 158.6, 394.3472 158.6" style="stroke: rgb(85%,43%,57%); stroke-linecap: butt; stroke-width: 1; fill: rgb(85%,43%,57%);"/>
			<polygon points="394.3472 153.74, 403.7208 153.74, 403.7208 158.6, 394.3472 158.6" style="stroke: rgb(100%,0%,0%); stroke-linecap: butt; stroke-width: 1; fill: rgb(100%,0%,0%);"/>
			<polygon points="464.4453 153.74, 473.0038 153.74, 473.0038 158.6, 464.4453 158.6" style="stroke: rgb(100%,0%,0%); stroke-linecap: butt; stroke-width: 1; fill: rgb(100%,0%,0%);"/>
			<polygon points="451.4038 158.6, 529.2453 158.6, 529.2453 163.46, 451.4038 163.46" style="stroke: rgb(85%,43%,57%); stroke-linecap: butt; stroke-width: 1; fill: rgb(85%,43%,57%);"/>
			<polygon points="451.4038 158.6, 459.9623 158.6, 459.9623 163.46, 451.4038 163.46" style="stroke: rgb(100%,0%,0%); stroke-linecap: butt; stroke-width: 1; fill: rgb(100%,0%,0%);"/>
			<polygon points="519.4642 158.6, 529.2453 158.6, 529.2453 163.46, 519.4642 163.46" style="stroke: rgb(100%,0%,0%); stroke-linecap: butt; stroke-width: 1; fill: rgb(100%,0%,0%);"/>
			<polygon points="477.0792 153.74, 557.7736 153.74, 557.7736 158.6, 477.0792 158.6" style="stroke: rgb(85%,43%,57%); stroke-linecap: butt; stroke-width: 1; fill: rgb(85%,43%,57%);"/>
			<polygon points="477.0792 153.74, 485.6377 153.74, 485.6377 158.6, 477.0792 158.6" style="stroke: rgb(100%,0%,0%); stroke-linecap: butt; stroke-width: 1; fill: rgb(100%,0%,0%);"/>
			<polygon points="549.2151 153.74, 557.7736 153.74, 557.7736 158.6, 549.2151 158.6" style="stroke: rgb(100%,0%,0%); stroke-linecap: butt; stroke-width: 1; fill: rgb(100%,0%,0%);"/>
			<path d="M 30.000000,257.600000 L 570.000000,257.600000 Z" style="stroke: rgb(0%,0%,0%); stroke-linecap: butt; stroke-width: 1;"/>
			<path d="M 30.000000,236.540000 L 30.000000,278.660000 Z" style="stroke: rgb(0%,0%,0%); stroke-linecap: butt; stroke-width: 1;"/>
			<path d="M 569.592453,56.540000 L 569.592453,98.660000 Z" style="stroke: rgb(0%,0%,0%); stroke-linecap: butt; stroke-width: 1;"/>
			<path d="M 30.000000,77.600000 L 569.592453,77.600000 Z" style="stroke: rgb(0%,0%,0%); stroke-linecap: butt; stroke-width: 1;"/>
			<path d="M 30.000000,56.540000 L 30.000000,98.660000 Z" style="stroke: rgb(0%,0%,0%); stroke-linecap: butt; stroke-width: 1;"/>
			<path d="M 437.547170,257.600000 L 437.547170,268.130000 Z" style="stroke: rgb(0%,0%,0%); stroke-linecap: butt; stroke-width: 1;"/>
			<path d="M 305.094340,77.600000 L 305.094340,88.130000 Z" style="stroke: rgb(0%,0%,0%); stroke-linecap: butt; stroke-width: 1;"/>
			<path d="M 30.000000,338.600000 L 570.000000,338.600000 Z" style="stroke: rgb(0%,0%,0%); stroke-linecap: butt; stroke-width: 1;"/>
			<path d="M 30.000000,333.740000 L 30.000000,343.460000 Z" style="stroke: rgb(0%,0%,0%); stroke-linecap: butt; stroke-width: 1;"/>
			<path d="M 569.592453,153.740000 L 569.592453,163.460000 Z" style="stroke: rgb(0%,0%,0%); stroke-linecap: butt; stroke-width: 1;"/>
			<path d="M 30.000000,158.600000 L 569.592453,158.600000 Z" style="stroke: rgb(0%,0%,0%); stroke-linecap: butt; stroke-width: 1;"/>
			<path d="M 30.000000,153.740000 L 30.000000,163.460000 Z" style="stroke: rgb(0%,0%,0%); stroke-linecap: butt; stroke-width: 1;"/>
			<g transform=" matrix(0.707107,0.707107,-0.707107,0.707107,437.547170,268.130000)">
				<text x="0" y="0" style="font-family: Helvetica; font-size: 6px; fill: rgb(0%,0%,0%);" transform="translate(0,0) scale(1,-1)">1000</text>
			</g>
			<g transform=" matrix(0.707107,0.707107,-0.707107,0.707107,305.094340,88.130000)">
				<text x="0" y="0" style="font-family: Helvetica; font-size: 6px; fill: rgb(0%,0%,0%);" transform="translate(0,0) scale(1,-1)">2000</text>
			</g>
			<g transform=" matrix(0.707107,0.707107,-0.707107,0.707107,30.000000,236.540000)">
				<text x="0" y="0" style="font-family: Helvetica; font-size: 6px; fill: rgb(0%,0%,0%);" transform="translate(0,0) scale(1,-1)">0.000</text>
			</g>
			<g transform=" matrix(0.707107,0.707107,-0.707107,0.707107,30.000000,278.660000)">
				<text x="0" y="0" style="font-family: Helvetica; font-size: 6px; fill: rgb(0%,0%,0%);" transform="translate(0,0) scale(1,-1)">0.600</text>
			</g>
			<g transform=" matrix(0.707107,0.707107,-0.707107,0.707107,30.000000,257.600000)">
				<text x="0" y="0" style="font-family: Helvetica; font-size: 6px; fill: rgb(0%,0%,0%);" transform="translate(0,0) scale(1,-1)"></text>
			</g>
			<g transform=" matrix(0.707107,0.707107,-0.707107,0.707107,30.000000,56.540000)">
				<text x="0" y="0" style="font-family: Helvetica; font-size: 6px; fill: rgb(0%,0%,0%);" transform="translate(0,0) scale(1,-1)">0.000</text>
			</g>
			<g transform=" matrix(0.707107,0.707107,-0.707107,0.707107,30.000000,98.660000)">
				<text x="0" y="0" style="font-family: Helvetica; font-size: 6px; fill: rgb(0%,0%,0%);" transform="translate(0,0) scale(1,-1)">0.600</text>
			</g>
			<g transform=" matrix(0.707107,0.707107,-0.707107,0.707107,30.000000,77.600000)">
				<text x="0" y="0" style="font-family: Helvetica; font-size: 6px; fill: rgb(0%,0%,0%);" transform="translate(0,0) scale(1,-1)"></text>
			</g>
			<g transform=" matrix(1.000000,0.000000,-0.000000,1.000000,147.169811,343.460000)">
				<text x="0" y="0" style="font-family: Helvetica; font-size: 6px; fill: rgb(0%,0%,0%);" transform="translate(0,0) scale(1,-1)">1</text>
			</g>
			<g transform=" matrix(1.000000,0.000000,-0.000000,1.000000,172.641509,333.740000)">
				<text x="0" y="0" style="font-family: Helvetica; font-size: 6px; fill: rgb(0%,0%,0%);" transform="translate(0,0) scale(1,-1)">2</text>
			</g>
			<g transform=" matrix(1.000000,0.000000,-0.000000,1.000000,241.924528,343.460000)">
				<text x="0" y="0" style="font-family: Helvetica; font-size: 6px; fill: rgb(0%,0%,0%);" transform="translate(0,0) scale(1,-1)">3</text>
			</g>
			<g transform=" matrix(1.000000,0.000000,-0.000000,1.000000,464.037736,333.740000)">
				<text x="0" y="0" style="font-family: Helvetica; font-size: 6px; fill: rgb(0%,0%,0%);" transform="translate(0,0) scale(1,-1)">4</text>
			</g>
			<g transform=" matrix(1.000000,0.000000,-0.000000,1.000000,474.226415,343.460000)">
				<text x="0" y="0" style="font-family: Helvetica; font-size: 6px; fill: rgb(0%,0%,0%);" transform="translate(0,0) scale(1,-1)">5</text>
			</g>
			<g transform=" matrix(1.000000,0.000000,-0.000000,1.000000,542.286792,333.740000)">
				<text x="0" y="0" style="font-family: Helvetica; font-size: 6px; fill: rgb(0%,0%,0%);" transform="translate(0,0) scale(1,-1)">6</text>
			</g>
			<g transform=" matrix(1.000000,0.000000,-0.000000,1.000000,41.003774,153.740000)">
				<text x="0" y="0" style="font-family: Helvetica; font-size: 6px; fill: rgb(0%,0%,0%);" transform="translate(0,0) scale(1,-1)">6</text>
			</g>
			<g transform=" matrix(1.000000,0.000000,-0.000000,1.000000,568.981132,343.460000)">
				<text x="0" y="0" style="font-family: Helvetica; font-size: 6px; fill: rgb(0%,0%,0%);" transform="translate(0,0) scale(1,-1)">7</text>
			</g>
			<g transform=" matrix(1.000000,0.000000,-0.000000,1.000000,69.328302,163.460000)">
				<text x="0" y="0" style="font-family: Helvetica; font-size: 6px; fill: rgb(0%,0%,0%);" transform="translate(0,0) scale(1,-1)">7</text>
			</g>
			<g transform=" matrix(1.000000,0.000000,-0.000000,1.000000,113.954717,153.740000)">
				<text x="0" y="0" style="font-family: Helvetica; font-size: 6px; fill: rgb(0%,0%,0%);" transform="translate(0,0) scale(1,-1)">8</text>
			</g>
			<g transform=" matrix(1.000000,0.000000,-0.000000,1.000000,190.369811,163.460000)">
				<text x="0" y="0" style="font-family: Helvetica; font-size: 6px; fill: rgb(0%,0%,0%);" transform="translate(0,0) scale(1,-1)">9</text>
			</g>
			<g transform=" matrix(1.000000,0.000000,-0.000000,1.000000,196.686792,153.740000)">
				<text x="0" y="0" style="font-family: Helvetica; font-size: 6px; fill: rgb(0%,0%,0%);" transform="translate(0,0) scale(1,-1)">10</text>
			</g>
			<g transform=" matrix(1.000000,0.000000,-0.000000,1.000000,298.166038,163.460000)">
				<text x="0" y="0" style="font-family: Helvetica; font-size: 6px; fill: rgb(0%,0%,0%);" transform="translate(0,0) scale(1,-1)">11</text>
			</g>
			<g transform=" matrix(1.000000,0.000000,-0.000000,1.000000,345.237736,153.740000)">
				<text x="0" y="0" style="font-family: Helvetica; font-size: 6px; fill: rgb(0%,0%,0%);" transform="translate(0,0) scale(1,-1)">12</text>
			</g>
			<g transform=" matrix(1.000000,0.000000,-0.000000,1.000000,405.962264,163.460000)">
				<text x="0" y="0" style="font-family: Helvetica; font-size: 6px; fill: rgb(0%,0%,0%);" transform="translate(0,0) scale(1,-1)">13</text>
			</g>
			<g transform=" matrix(1.000000,0.000000,-0.000000,1.000000,433.675472,153.740000)">
				<text x="0" y="0" style="font-family: Helvetica; font-size: 6px; fill: rgb(0%,0%,0%);" transform="translate(0,0) scale(1,-1)">14</text>
			</g>
			<g transform=" matrix(1.000000,0.000000,-0.000000,1.000000,490.324528,163.460000)">
				<text x="0" y="0" style="font-family: Helvetica; font-size: 6px; fill: rgb(0%,0%,0%);" transform="translate(0,0) scale(1,-1)">15</text>
			</g>
			<g transform=" matrix(1.000000,0.000000,-0.000000,1.000000,517.426415,153.740000)">
				<text x="0" y="0" style="font-family: Helvetica; font-size: 6px; fill: rgb(0%,0%,0%);" transform="translate(0,0) scale(1,-1)">16</text>
			</g>
		</g>
	</g>
</svg>
