<?xml version="1.0" encoding="utf-8"?>
<!DOCTYPE svg
  PUBLIC '-//W3C//DTD SVG 1.0//EN'
  'http://www.w3.org/TR/2001/REC-SVG-20010904/DTD/svg10.dtd'>
<svg fill-rule="evenodd" height="400" preserveAspectRatio="xMinYMin meet" version="1.0" viewBox="0 0 600 400" width="600" xmlns="http://www.w3.org/2000/svg" xmlns:xlink="http://www.w3.org/1999/xlink">
	<title>...</title>
	<desc>...</desc>
	<clipPath id="clip">
		<rect height="400" width="600" x="0" y="0"/>
	</clipPath>
	<g id="group" style="clip-path: url(#clip)" transform="scale(1,-1) translate(0,-400)">
		<g transform="">
			<path d="M 47.44186,261.812 L 47.44186,261.812 Z" style="stroke: rgb(93%,50%,93%); stroke-linecap: butt; stroke-width: 1;"/>
			<path d="M 47.44186,261.812 L 64.883721,259.706 Z" style="stroke: rgb(93%,50%,93%); stroke-linecap: butt; stroke-width: 1;"/>
			<path d="M 64.883721,259.706 L 82.325581,253.388 Z" style="stroke: rgb(93%,50%,93%); stroke-linecap: butt; stroke-width: 1;"/>
			<path d="M 82.325581,253.388 L 99.767442,253.388 Z" style="stroke: rgb(93%,50%,93%); stroke-linecap: butt; stroke-width: 1;"/>
			<path d="M 99.767442,253.388 L 117.209302,251.282 Z" style="stroke: rgb(93%,50%,93%); stroke-linecap: butt; stroke-width: 1;"/>
			<path d="M 117.209302,251.282 L 134.651163,249.176 Z" style="stroke: rgb(93%,50%,93%); stroke-linecap: butt; stroke-width: 1;"/>
			<path d="M 134.651163,249.176 L 152.093023,247.07 Z" style="stroke: rgb(93%,50%,93%); stroke-linecap: butt; stroke-width: 1;"/>
			<path d="M 152.093023,247.07 L 169.534884,253.388 Z" style="stroke: rgb(93%,50%,93%); stroke-linecap: butt; stroke-width: 1;"/>
			<path d="M 169.534884,253.388 L 186.976744,259.706 Z" style="stroke: rgb(93%,50%,93%); stroke-linecap: butt; stroke-width: 1;"/>
			<path d="M 186.976744,259.706 L 204.418605,251.282 Z" style="stroke: rgb(93%,50%,93%); stroke-linecap: butt; stroke-width: 1;"/>
			<path d="M 204.418605,251.282 L 221.860465,242.858 Z" style="stroke: rgb(93%,50%,93%); stroke-linecap: butt; stroke-width: 1;"/>
			<path d="M 221.860465,242.858 L 239.302326,238.646 Z" style="stroke: rgb(93%,50%,93%); stroke-linecap: butt; stroke-width: 1;"/>
			<path d="M 239.302326,238.646 L 256.744186,255.494 Z" style="stroke: rgb(93%,50%,93%); stroke-linecap: butt; stroke-width: 1;"/>
			<path d="M 256.744186,255.494 L 274.186047,257.6 Z" style="stroke: rgb(93%,50%,93%); stroke-linecap: butt; stroke-width: 1;"/>
			<path d="M 274.186047,257.6 L 291.627907,244.964 Z" style="stroke: rgb(93%,50%,93%); stroke-linecap: butt; stroke-width: 1;"/>
			<path d="M 291.627907,244.964 L 309.069767,251.282 Z" style="stroke: rgb(93%,50%,93%); stroke-linecap: butt; stroke-width: 1;"/>
			<path d="M 309.069767,251.282 L 326.511628,249.176 Z" style="stroke: rgb(93%,50%,93%); stroke-linecap: butt; stroke-width: 1;"/>
			<path d="M 326.511628,249.176 L 343.953488,242.858 Z" style="stroke: rgb(93%,50%,93%); stroke-linecap: butt; stroke-width: 1;"/>
			<path d="M 343.953488,242.858 L 361.395349,249.176 Z" style="stroke: rgb(93%,50%,93%); stroke-linecap: butt; stroke-width: 1;"/>
			<path d="M 361.395349,249.176 L 378.837209,257.6 Z" style="stroke: rgb(93%,50%,93%); stroke-linecap: butt; stroke-width: 1;"/>
			<path d="M 378.837209,257.6 L 396.27907,251.282 Z" style="stroke: rgb(93%,50%,93%); stroke-linecap: butt; stroke-width: 1;"/>
			<path d="M 396.27907,251.282 L 413.72093,249.176 Z" style="stroke: rgb(93%,50%,93%); stroke-linecap: butt; stroke-width: 1;"/>
			<path d="M 413.72093,249.176 L 431.162791,244.964 Z" style="stroke: rgb(93%,50%,93%); stroke-linecap: butt; stroke-width: 1;"/>
			<path d="M 431.162791,244.964 L 448.604651,242.858 Z" style="stroke: rgb(93%,50%,93%); stroke-linecap: butt; stroke-width: 1;"/>
			<path d="M 448.604651,242.858 L 466.046512,253.388 Z" style="stroke: rgb(93%,50%,93%); stroke-linecap: butt; stroke-width: 1;"/>
			<path d="M 466.046512,253.388 L 483.488372,249.176 Z" style="stroke: rgb(93%,50%,93%); stroke-linecap: butt; stroke-width: 1;"/>
			<path d="M 483.488372,249.176 L 500.930233,249.176 Z" style="stroke: rgb(93%,50%,93%); stroke-linecap: butt; stroke-width: 1;"/>
			<path d="M 500.930233,249.176 L 518.372093,249.176 Z" style="stroke: rgb(93%,50%,93%); stroke-linecap: butt; stroke-width: 1;"/>
			<path d="M 518.372093,249.176 L 535.813953,249.176 Z" style="stroke: rgb(93%,50%,93%); stroke-linecap: butt; stroke-width: 1;"/>
			<path d="M 535.813953,249.176 L 553.255814,259.706 Z" style="stroke: rgb(93%,50%,93%); stroke-linecap: butt; stroke-width: 1;"/>
			<path d="M 553.255814,259.706 L 570,261.812 Z" style="stroke: rgb(93%,50%,93%); stroke-linecap: butt; stroke-width: 1;"/>
			<path d="M 30,81.812 L 30.697674,81.812 Z" style="stroke: rgb(93%,50%,93%); stroke-linecap: butt; stroke-width: 1;"/>
			<path d="M 30.697674,81.812 L 48.139535,77.6 Z" style="stroke: rgb(93%,50%,93%); stroke-linecap: butt; stroke-width: 1;"/>
			<path d="M 48.139535,77.6 L 65.581395,79.706 Z" style="stroke: rgb(93%,50%,93%); stroke-linecap: butt; stroke-width: 1;"/>
			<path d="M 65.581395,79.706 L 83.023256,86.024 Z" style="stroke: rgb(93%,50%,93%); stroke-linecap: butt; stroke-width: 1;"/>
			<path d="M 83.023256,86.024 L 100.465116,90.236 Z" style="stroke: rgb(93%,50%,93%); stroke-linecap: butt; stroke-width: 1;"/>
			<path d="M 100.465116,90.236 L 117.906977,83.918 Z" style="stroke: rgb(93%,50%,93%); stroke-linecap: butt; stroke-width: 1;"/>
			<path d="M 117.906977,83.918 L 135.348837,83.918 Z" style="stroke: rgb(93%,50%,93%); stroke-linecap: butt; stroke-width: 1;"/>
			<path d="M 135.348837,83.918 L 152.790698,88.13 Z" style="stroke: rgb(93%,50%,93%); stroke-linecap: butt; stroke-width: 1;"/>
			<path d="M 152.790698,88.13 L 170.232558,79.706 Z" style="stroke: rgb(93%,50%,93%); stroke-linecap: butt; stroke-width: 1;"/>
			<path d="M 170.232558,79.706 L 187.674419,71.282 Z" style="stroke: rgb(93%,50%,93%); stroke-linecap: butt; stroke-width: 1;"/>
			<path d="M 187.674419,71.282 L 205.116279,67.07 Z" style="stroke: rgb(93%,50%,93%); stroke-linecap: butt; stroke-width: 1;"/>
			<path d="M 205.116279,67.07 L 222.55814,71.282 Z" style="stroke: rgb(93%,50%,93%); stroke-linecap: butt; stroke-width: 1;"/>
			<path d="M 222.55814,71.282 L 240,88.13 Z" style="stroke: rgb(93%,50%,93%); stroke-linecap: butt; stroke-width: 1;"/>
			<path d="M 240,88.13 L 257.44186,98.66 Z" style="stroke: rgb(93%,50%,93%); stroke-linecap: butt; stroke-width: 1;"/>
			<path d="M 257.44186,98.66 L 274.883721,92.342 Z" style="stroke: rgb(93%,50%,93%); stroke-linecap: butt; stroke-width: 1;"/>
			<path d="M 274.883721,92.342 L 292.325581,88.13 Z" style="stroke: rgb(93%,50%,93%); stroke-linecap: butt; stroke-width: 1;"/>
			<path d="M 292.325581,88.13 L 309.767442,81.812 Z" style="stroke: rgb(93%,50%,93%); stroke-linecap: butt; stroke-width: 1;"/>
			<path d="M 309.767442,81.812 L 327.209302,81.812 Z" style="stroke: rgb(93%,50%,93%); stroke-linecap: butt; stroke-width: 1;"/>
			<path d="M 327.209302,81.812 L 344.651163,88.13 Z" style="stroke: rgb(93%,50%,93%); stroke-linecap: butt; stroke-width: 1;"/>
			<path d="M 344.651163,88.13 L 362.093023,88.13 Z" style="stroke: rgb(93%,50%,93%); stroke-linecap: butt; stroke-width: 1;"/>
			<path d="M 362.093023,88.13 L 379.534884,83.918 Z" style="stroke: rgb(93%,50%,93%); stroke-linecap: butt; stroke-width: 1;"/>
			<path d="M 379.534884,83.918 L 396.976744,71.282 Z" style="stroke: rgb(93%,50%,93%); stroke-linecap: butt; stroke-width: 1;"/>
			<path d="M 396.976744,71.282 L 414.418605,73.388 Z" style="stroke: rgb(93%,50%,93%); stroke-linecap: butt; stroke-width: 1;"/>
			<path d="M 414.418605,73.388 L 431.860465,81.812 Z" style="stroke: rgb(93%,50%,93%); stroke-linecap: butt; stroke-width: 1;"/>
			<path d="M 431.860465,81.812 L 449.302326,83.918 Z" style="stroke: rgb(93%,50%,93%); stroke-linecap: butt; stroke-width: 1;"/>
			<path d="M 449.302326,83.918 L 466.744186,81.812 Z" style="stroke: rgb(93%,50%,93%); stroke-linecap: butt; stroke-width: 1;"/>
			<path d="M 466.744186,81.812 L 484.186047,77.6 Z" style="stroke: rgb(93%,50%,93%); stroke-linecap: butt; stroke-width: 1;"/>
			<path d="M 484.186047,77.6 L 501.627907,81.812 Z" style="stroke: rgb(93%,50%,93%); stroke-linecap: butt; stroke-width: 1;"/>
			<path d="M 501.627907,81.812 L 519.069767,69.176 Z" style="stroke: rgb(93%,50%,93%); stroke-linecap: butt; stroke-width: 1;"/>
			<path d="M 519.069767,69.176 L 536.511628,56.54 Z" style="stroke: rgb(93%,50%,93%); stroke-linecap: butt; stroke-width: 1;"/>
			<path d="M 536.511628,56.54 L 551.162791,58.646 Z" style="stroke: rgb(93%,50%,93%); stroke-linecap: butt; stroke-width: 1;"/>
			<polygon points="80.23256 338.6, 281.8605 338.6, 281.8605 343.46, 80.23256 343.46" style="stroke: rgb(85%,43%,57%); stroke-linecap: butt; stroke-width: 1; fill: rgb(85%,43%,57%); fill-rule: evenodd;"/>
			<polygon points="80.23256 338.6, 94.88372 338.6, 94.88372 343.46, 80.23256 343.46" style="stroke: rgb(100%,0%,0%); stroke-linecap: butt; stroke-width: 1; fill: rgb(100%,0%,0%); fill-rule: evenodd;"/>
			<polygon points="267.2093 338.6, 281.8605 338.6, 281.8605 343.46, 267.2093 343.46" style="stroke: rgb(100%,0%,0%); stroke-linecap: butt; stroke-width: 1; fill: rgb(100%,0%,0%); fill-rule: evenodd;"/>
			<polygon points="163.9535 333.74, 375.3488 333.74, 375.3488 338.6, 163.9535 338.6" style="stroke: rgb(85%,43%,57%); stroke-linecap: butt; stroke-width: 1; fill: rgb(85%,43%,57%); fill-rule: evenodd;"/>
			<polygon points="163.9535 333.74, 178.6047 333.74, 178.6047 338.6, 163.9535 338.6" style="stroke: rgb(100%,0%,0%); stroke-linecap: butt; stroke-width: 1; fill: rgb(100%,0%,0%); fill-rule: evenodd;"/>
			<polygon points="360 333.74, 375.3488 333.74, 375.3488 338.6, 360 338.6" style="stroke: rgb(100%,0%,0%); stroke-linecap: butt; stroke-width: 1; fill: rgb(100%,0%,0%); fill-rule: evenodd;"/>
			<polygon points="360 338.6, 570 338.6, 570 343.46, 360 343.46" style="stroke: rgb(85%,43%,57%); stroke-linecap: butt; stroke-width: 1; fill: rgb(85%,43%,57%); fill-rule: evenodd;"/>
			<polygon points="30 158.6, 76.04651 158.6, 76.04651 163.46, 30 163.46" style="stroke: rgb(85%,43%,57%); stroke-linecap: butt; stroke-width: 1; fill: rgb(85%,43%,57%); fill-rule: evenodd;"/>
			<polygon points="360 338.6, 375.3488 338.6, 375.3488 343.46, 360 343.46" style="stroke: rgb(100%,0%,0%); stroke-linecap: butt; stroke-width: 1; fill: rgb(100%,0%,0%); fill-rule: evenodd;"/>
			<polygon points="61.39535 158.6, 76.04651 158.6, 76.04651 163.46, 61.39535 163.46" style="stroke: rgb(100%,0%,0%); stroke-linecap: butt; stroke-width: 1; fill: rgb(100%,0%,0%); fill-rule: evenodd;"/>
			<polygon points="378.1395 333.74, 570 333.74, 570 338.6, 378.1395 338.6" style="stroke: rgb(85%,43%,57%); stroke-linecap: butt; stroke-width: 1; fill: rgb(85%,43%,57%); fill-rule: evenodd;"/>
			<polygon points="30 153.74, 96.27907 153.74, 96.27907 158.6, 30 158.6" style="stroke: rgb(85%,43%,57%); stroke-linecap: butt; stroke-width: 1; fill: rgb(85%,43%,57%); fill-rule: evenodd;"/>
			<polygon points="378.1395 333.74, 393.4884 333.74, 393.4884 338.6, 378.1395 338.6" style="stroke: rgb(100%,0%,0%); stroke-linecap: butt; stroke-width: 1; fill: rgb(100%,0%,0%); fill-rule: evenodd;"/>
			<polygon points="81.62791 153.74, 96.27907 153.74, 96.27907 158.6, 81.62791 158.6" style="stroke: rgb(100%,0%,0%); stroke-linecap: butt; stroke-width: 1; fill: rgb(100%,0%,0%); fill-rule: evenodd;"/>
			<polygon points="81.62791 158.6, 336.2791 158.6, 336.2791 163.46, 81.62791 163.46" style="stroke: rgb(85%,43%,57%); stroke-linecap: butt; stroke-width: 1; fill: rgb(85%,43%,57%); fill-rule: evenodd;"/>
			<polygon points="81.62791 158.6, 96.27907 158.6, 96.27907 163.46, 81.62791 163.46" style="stroke: rgb(100%,0%,0%); stroke-linecap: butt; stroke-width: 1; fill: rgb(100%,0%,0%); fill-rule: evenodd;"/>
			<polygon points="321.6279 158.6, 336.2791 158.6, 336.2791 163.46, 321.6279 163.46" style="stroke: rgb(100%,0%,0%); stroke-linecap: butt; stroke-width: 1; fill: rgb(100%,0%,0%); fill-rule: evenodd;"/>
			<polygon points="125.5814 153.74, 437.4419 153.74, 437.4419 158.6, 125.5814 158.6" style="stroke: rgb(85%,43%,57%); stroke-linecap: butt; stroke-width: 1; fill: rgb(85%,43%,57%); fill-rule: evenodd;"/>
			<polygon points="125.5814 153.74, 140.2326 153.74, 140.2326 158.6, 125.5814 158.6" style="stroke: rgb(100%,0%,0%); stroke-linecap: butt; stroke-width: 1; fill: rgb(100%,0%,0%); fill-rule: evenodd;"/>
			<polygon points="422.7907 153.74, 437.4419 153.74, 437.4419 158.6, 422.7907 158.6" style="stroke: rgb(100%,0%,0%); stroke-linecap: butt; stroke-width: 1; fill: rgb(100%,0%,0%); fill-rule: evenodd;"/>
			<path d="M 30,257.6 L 570,257.6 Z" style="stroke: rgb(0%,0%,0%); stroke-linecap: butt; stroke-width: 1;"/>
			<path d="M 30,236.54 L 30,278.66 Z" style="stroke: rgb(0%,0%,0%); stroke-linecap: butt; stroke-width: 1;"/>
			<path d="M 568.604651,56.54 L 568.604651,98.66 Z" style="stroke: rgb(0%,0%,0%); stroke-linecap: butt; stroke-width: 1;"/>
			<path d="M 30,77.6 L 568.604651,77.6 Z" style="stroke: rgb(0%,0%,0%); stroke-linecap: butt; stroke-width: 1;"/>
			<path d="M 30,56.54 L 30,98.66 Z" style="stroke: rgb(0%,0%,0%); stroke-linecap: butt; stroke-width: 1;"/>
			<path d="M 187.674419,77.6 L 187.674419,88.13 Z" style="stroke: rgb(0%,0%,0%); stroke-linecap: butt; stroke-width: 1;"/>
			<path d="M 30,338.6 L 570,338.6 Z" style="stroke: rgb(0%,0%,0%); stroke-linecap: butt; stroke-width: 1;"/>
			<path d="M 30,333.74 L 30,343.46 Z" style="stroke: rgb(0%,0%,0%); stroke-linecap: butt; stroke-width: 1;"/>
			<path d="M 568.604651,153.74 L 568.604651,163.46 Z" style="stroke: rgb(0%,0%,0%); stroke-linecap: butt; stroke-width: 1;"/>
			<path d="M 30,158.6 L 568.604651,158.6 Z" style="stroke: rgb(0%,0%,0%); stroke-linecap: butt; stroke-width: 1;"/>
			<path d="M 30,153.74 L 30,163.46 Z" style="stroke: rgb(0%,0%,0%); stroke-linecap: butt; stroke-width: 1;"/>
			<g transform=" matrix(0.707107,0.707107,-0.707107,0.707107,187.674419,88.13)">
				<text style="font-family: Helvetica; font-size: 6px;fill: rgb(0%,0%,0%); stroke:none;" transform="translate(0,0) scale(1,-1)" x="0" y="0">1000</text>
			</g>
			<g transform=" matrix(0.707107,0.707107,-0.707107,0.707107,30,236.54)">
				<text style="font-family: Helvetica; font-size: 6px;fill: rgb(0%,0%,0%); stroke:none;" transform="translate(0,0) scale(1,-1)" x="0" y="0">0.220</text>
			</g>
			<g transform=" matrix(0.707107,0.707107,-0.707107,0.707107,30,278.66)">
				<text style="font-family: Helvetica; font-size: 6px;fill: rgb(0%,0%,0%); stroke:none;" transform="translate(0,0) scale(1,-1)" x="0" y="0">0.620</text>
			</g>
			<g transform=" matrix(0.707107,0.707107,-0.707107,0.707107,30,257.6)">
				<text style="font-family: Helvetica; font-size: 6px;fill: rgb(0%,0%,0%); stroke:none;" transform="translate(0,0) scale(1,-1)" x="0" y="0"></text>
			</g>
			<g transform=" matrix(0.707107,0.707107,-0.707107,0.707107,30,56.54)">
				<text style="font-family: Helvetica; font-size: 6px;fill: rgb(0%,0%,0%); stroke:none;" transform="translate(0,0) scale(1,-1)" x="0" y="0">0.220</text>
			</g>
			<g transform=" matrix(0.707107,0.707107,-0.707107,0.707107,30,98.66)">
				<text style="font-family: Helvetica; font-size: 6px;fill: rgb(0%,0%,0%); stroke:none;" transform="translate(0,0) scale(1,-1)" x="0" y="0">0.620</text>
			</g>
			<g transform=" matrix(0.707107,0.707107,-0.707107,0.707107,30,77.6)">
				<text style="font-family: Helvetica; font-size: 6px;fill: rgb(0%,0%,0%); stroke:none;" transform="translate(0,0) scale(1,-1)" x="0" y="0"></text>
			</g>
			<g transform=" matrix(1,0,-0,1,181.046512,343.46)">
				<text style="font-family: Helvetica; font-size: 6px;fill: rgb(0%,0%,0%); stroke:none;" transform="translate(0,0) scale(1,-1)" x="0" y="0">1</text>
			</g>
			<g transform=" matrix(1,0,-0,1,269.651163,333.74)">
				<text style="font-family: Helvetica; font-size: 6px;fill: rgb(0%,0%,0%); stroke:none;" transform="translate(0,0) scale(1,-1)" x="0" y="0">2</text>
			</g>
			<g transform=" matrix(1,0,-0,1,465,343.46)">
				<text style="font-family: Helvetica; font-size: 6px;fill: rgb(0%,0%,0%); stroke:none;" transform="translate(0,0) scale(1,-1)" x="0" y="0">3</text>
			</g>
			<g transform=" matrix(1,0,-0,1,53.023256,163.46)">
				<text style="font-family: Helvetica; font-size: 6px;fill: rgb(0%,0%,0%); stroke:none;" transform="translate(0,0) scale(1,-1)" x="0" y="0">3</text>
			</g>
			<g transform=" matrix(1,0,-0,1,474.069767,333.74)">
				<text style="font-family: Helvetica; font-size: 6px;fill: rgb(0%,0%,0%); stroke:none;" transform="translate(0,0) scale(1,-1)" x="0" y="0">4</text>
			</g>
			<g transform=" matrix(1,0,-0,1,63.139535,153.74)">
				<text style="font-family: Helvetica; font-size: 6px;fill: rgb(0%,0%,0%); stroke:none;" transform="translate(0,0) scale(1,-1)" x="0" y="0">4</text>
			</g>
			<g transform=" matrix(1,0,-0,1,208.953488,163.46)">
				<text style="font-family: Helvetica; font-size: 6px;fill: rgb(0%,0%,0%); stroke:none;" transform="translate(0,0) scale(1,-1)" x="0" y="0">5</text>
			</g>
			<g transform=" matrix(1,0,-0,1,281.511628,153.74)">
				<text style="font-family: Helvetica; font-size: 6px;fill: rgb(0%,0%,0%); stroke:none;" transform="translate(0,0) scale(1,-1)" x="0" y="0">6</text>
			</g>
		</g>
	</g>
</svg>
